<svg width="499" height="236" viewBox="0 0 499 236" fill="none" xmlns="http://www.w3.org/2000/svg">
<rect x="71.5" width="356" height="68" rx="12" fill="#202020"/>
<rect x="72" y="0.5" width="355" height="67" rx="11.5" stroke="white" stroke-opacity="0.04"/>
<rect x="72" y="0.5" width="355" height="67" rx="11.5" stroke="url(#paint0_linear_2_738)" stroke-opacity="0.12"/>
<rect x="87.5" y="16" width="36" height="36" rx="8" fill="#2B2B2B"/>
<path fill-rule="evenodd" clip-rule="evenodd" d="M99.2143 28.6668L99.2143 37.1429C99.2143 37.5149 98.9128 37.8164 98.5408 37.8164C98.1689 37.8164 97.8674 37.5149 97.8674 37.1429L97.8674 27.0409C97.8674 26.8623 97.9383 26.691 98.0646 26.5647C98.1909 26.4384 98.3622 26.3674 98.5408 26.3674L108.643 26.3674C109.015 26.3674 109.316 26.669 109.316 27.0409C109.316 27.4128 109.015 27.7144 108.643 27.7144L100.167 27.7144L112.486 40.0341C112.749 40.2971 112.749 40.7235 112.486 40.9865C112.223 41.2495 111.797 41.2495 111.534 40.9865L99.2143 28.6668Z" fill="white"/>
<path d="M143.596 37.792V31.008H144.604V37.792H143.596ZM140.62 34.88V33.936H147.58V34.88H140.62ZM157.467 41.92V26.88H158.267V41.92H157.467ZM157.803 40.096C156.971 40.096 156.171 39.9627 155.403 39.696C154.645 39.4187 154.059 39.0667 153.643 38.64L154.107 37.728C154.501 38.112 155.029 38.4373 155.691 38.704C156.363 38.96 157.067 39.088 157.803 39.088C158.507 39.088 159.077 39.0027 159.515 38.832C159.963 38.6507 160.288 38.4107 160.491 38.112C160.704 37.8133 160.811 37.4827 160.811 37.12C160.811 36.6827 160.683 36.3307 160.427 36.064C160.181 35.7973 159.856 35.5893 159.451 35.44C159.045 35.28 158.597 35.1413 158.107 35.024C157.616 34.9067 157.125 34.784 156.635 34.656C156.144 34.5173 155.691 34.336 155.275 34.112C154.869 33.888 154.539 33.5947 154.283 33.232C154.037 32.8587 153.915 32.3733 153.915 31.776C153.915 31.2213 154.059 30.7147 154.347 30.256C154.645 29.7867 155.099 29.4133 155.707 29.136C156.315 28.848 157.093 28.704 158.043 28.704C158.672 28.704 159.296 28.7947 159.915 28.976C160.533 29.1467 161.067 29.3867 161.515 29.696L161.115 30.64C160.635 30.32 160.123 30.0853 159.579 29.936C159.045 29.7867 158.528 29.712 158.027 29.712C157.355 29.712 156.8 29.8027 156.363 29.984C155.925 30.1653 155.6 30.4107 155.387 30.72C155.184 31.0187 155.083 31.36 155.083 31.744C155.083 32.1813 155.205 32.5333 155.451 32.8C155.707 33.0667 156.037 33.2747 156.443 33.424C156.859 33.5733 157.312 33.7067 157.803 33.824C158.293 33.9413 158.779 34.0693 159.259 34.208C159.749 34.3467 160.197 34.528 160.603 34.752C161.019 34.9653 161.349 35.2533 161.595 35.616C161.851 35.9787 161.979 36.4533 161.979 37.04C161.979 37.584 161.829 38.0907 161.531 38.56C161.232 39.0187 160.773 39.392 160.155 39.68C159.547 39.9573 158.763 40.096 157.803 40.096ZM163.358 40V39.184L168.014 34.624C168.441 34.208 168.761 33.8453 168.974 33.536C169.188 33.216 169.332 32.9173 169.406 32.64C169.481 32.3627 169.518 32.1013 169.518 31.856C169.518 31.2053 169.294 30.6933 168.846 30.32C168.409 29.9467 167.758 29.76 166.894 29.76C166.233 29.76 165.646 29.8613 165.134 30.064C164.633 30.2667 164.201 30.5813 163.838 31.008L163.022 30.304C163.46 29.792 164.02 29.3973 164.702 29.12C165.385 28.8427 166.148 28.704 166.99 28.704C167.748 28.704 168.404 28.8267 168.958 29.072C169.513 29.3067 169.94 29.6533 170.238 30.112C170.548 30.5707 170.702 31.1093 170.702 31.728C170.702 32.0907 170.649 32.448 170.542 32.8C170.446 33.152 170.265 33.5253 169.998 33.92C169.742 34.304 169.364 34.7413 168.862 35.232L164.59 39.424L164.27 38.976H171.214V40H163.358ZM172.452 40V39.184L177.108 34.624C177.535 34.208 177.855 33.8453 178.068 33.536C178.281 33.216 178.425 32.9173 178.5 32.64C178.575 32.3627 178.612 32.1013 178.612 31.856C178.612 31.2053 178.388 30.6933 177.94 30.32C177.503 29.9467 176.852 29.76 175.988 29.76C175.327 29.76 174.74 29.8613 174.228 30.064C173.727 30.2667 173.295 30.5813 172.932 31.008L172.116 30.304C172.553 29.792 173.113 29.3973 173.796 29.12C174.479 28.8427 175.241 28.704 176.084 28.704C176.841 28.704 177.497 28.8267 178.052 29.072C178.607 29.3067 179.033 29.6533 179.332 30.112C179.641 30.5707 179.796 31.1093 179.796 31.728C179.796 32.0907 179.743 32.448 179.636 32.8C179.54 33.152 179.359 33.5253 179.092 33.92C178.836 34.304 178.457 34.7413 177.956 35.232L173.684 39.424L173.364 38.976H180.308V40H172.452ZM182.774 40.08C182.539 40.08 182.337 39.9947 182.166 39.824C182.006 39.6533 181.926 39.4453 181.926 39.2C181.926 38.944 182.006 38.736 182.166 38.576C182.337 38.416 182.539 38.336 182.774 38.336C183.009 38.336 183.206 38.416 183.366 38.576C183.537 38.736 183.622 38.944 183.622 39.2C183.622 39.4453 183.537 39.6533 183.366 39.824C183.206 39.9947 183.009 40.08 182.774 40.08ZM187.065 40V29.28L187.577 29.824H184.425V28.8H188.217V40H187.065ZM194.431 40.096C193.631 40.096 192.868 39.968 192.143 39.712C191.417 39.4453 190.841 39.0933 190.415 38.656L190.975 37.744C191.327 38.1173 191.807 38.4267 192.414 38.672C193.033 38.9173 193.7 39.04 194.415 39.04C195.364 39.04 196.084 38.832 196.575 38.416C197.076 37.9893 197.327 37.4347 197.327 36.752C197.327 36.272 197.209 35.8613 196.975 35.52C196.751 35.168 196.367 34.896 195.823 34.704C195.279 34.512 194.532 34.416 193.583 34.416H191.199L191.775 28.8H197.903V29.824H192.239L192.831 29.264L192.335 33.968L191.743 33.392H193.839C194.969 33.392 195.876 33.5307 196.559 33.808C197.241 34.0853 197.732 34.4747 198.031 34.976C198.34 35.4667 198.495 36.0427 198.495 36.704C198.495 37.3333 198.345 37.9093 198.047 38.432C197.748 38.944 197.3 39.3493 196.703 39.648C196.105 39.9467 195.348 40.096 194.431 40.096ZM205.137 40V28.8H209.329C210.278 28.8 211.094 28.9547 211.777 29.264C212.459 29.5627 212.982 30 213.345 30.576C213.718 31.1413 213.905 31.8293 213.905 32.64C213.905 33.4293 213.718 34.112 213.345 34.688C212.982 35.2533 212.459 35.6907 211.777 36C211.094 36.2987 210.278 36.448 209.329 36.448H205.793L206.321 35.904V40H205.137ZM212.785 40L209.905 35.936H211.185L214.081 40H212.785ZM206.321 36L205.793 35.44H209.297C210.417 35.44 211.265 35.1947 211.841 34.704C212.427 34.2133 212.72 33.5253 212.72 32.64C212.72 31.744 212.427 31.0507 211.841 30.56C211.265 30.0693 210.417 29.824 209.297 29.824H205.793L206.321 29.264V36ZM220.027 40.08C219.152 40.08 218.384 39.8987 217.723 39.536C217.062 39.1627 216.544 38.656 216.171 38.016C215.798 37.3653 215.611 36.624 215.611 35.792C215.611 34.96 215.787 34.224 216.139 33.584C216.502 32.944 216.992 32.4427 217.611 32.08C218.24 31.7067 218.944 31.52 219.723 31.52C220.512 31.52 221.211 31.7013 221.819 32.064C222.438 32.416 222.923 32.9173 223.275 33.568C223.627 34.208 223.803 34.9493 223.803 35.792C223.803 35.8453 223.798 35.904 223.787 35.968C223.787 36.0213 223.787 36.08 223.787 36.144H216.475V35.296H223.179L222.731 35.632C222.731 35.024 222.598 34.4853 222.331 34.016C222.075 33.536 221.723 33.1627 221.275 32.896C220.827 32.6293 220.31 32.496 219.723 32.496C219.147 32.496 218.63 32.6293 218.171 32.896C217.712 33.1627 217.355 33.536 217.099 34.016C216.843 34.496 216.715 35.0453 216.715 35.664V35.84C216.715 36.48 216.854 37.0453 217.131 37.536C217.419 38.016 217.814 38.3947 218.315 38.672C218.827 38.9387 219.408 39.072 220.059 39.072C220.571 39.072 221.046 38.9813 221.483 38.8C221.931 38.6187 222.315 38.3413 222.635 37.968L223.275 38.704C222.902 39.152 222.432 39.4933 221.867 39.728C221.312 39.9627 220.699 40.08 220.027 40.08ZM229.603 40.08C228.771 40.08 228.025 39.8987 227.363 39.536C226.713 39.1627 226.201 38.656 225.827 38.016C225.454 37.3653 225.267 36.624 225.267 35.792C225.267 34.9493 225.454 34.208 225.827 33.568C226.201 32.928 226.713 32.4267 227.363 32.064C228.025 31.7013 228.771 31.52 229.603 31.52C230.318 31.52 230.963 31.6587 231.539 31.936C232.115 32.2133 232.569 32.6293 232.899 33.184L232.051 33.76C231.763 33.3333 231.406 33.0187 230.979 32.816C230.553 32.6133 230.089 32.512 229.587 32.512C228.99 32.512 228.451 32.6507 227.971 32.928C227.491 33.1947 227.113 33.5733 226.835 34.064C226.558 34.5547 226.419 35.1307 226.419 35.792C226.419 36.4533 226.558 37.0293 226.835 37.52C227.113 38.0107 227.491 38.3947 227.971 38.672C228.451 38.9387 228.99 39.072 229.587 39.072C230.089 39.072 230.553 38.9707 230.979 38.768C231.406 38.5653 231.763 38.256 232.051 37.84L232.899 38.416C232.569 38.96 232.115 39.376 231.539 39.664C230.963 39.9413 230.318 40.08 229.603 40.08ZM238.558 40.08C237.684 40.08 236.916 39.8987 236.254 39.536C235.593 39.1627 235.076 38.656 234.702 38.016C234.329 37.3653 234.142 36.624 234.142 35.792C234.142 34.96 234.318 34.224 234.67 33.584C235.033 32.944 235.524 32.4427 236.142 32.08C236.772 31.7067 237.476 31.52 238.254 31.52C239.044 31.52 239.742 31.7013 240.35 32.064C240.969 32.416 241.454 32.9173 241.806 33.568C242.158 34.208 242.334 34.9493 242.334 35.792C242.334 35.8453 242.329 35.904 242.318 35.968C242.318 36.0213 242.318 36.08 242.318 36.144H235.006V35.296H241.71L241.262 35.632C241.262 35.024 241.129 34.4853 240.862 34.016C240.606 33.536 240.254 33.1627 239.806 32.896C239.358 32.6293 238.841 32.496 238.254 32.496C237.678 32.496 237.161 32.6293 236.702 32.896C236.244 33.1627 235.886 33.536 235.63 34.016C235.374 34.496 235.246 35.0453 235.246 35.664V35.84C235.246 36.48 235.385 37.0453 235.662 37.536C235.95 38.016 236.345 38.3947 236.846 38.672C237.358 38.9387 237.94 39.072 238.59 39.072C239.102 39.072 239.577 38.9813 240.014 38.8C240.462 38.6187 240.846 38.3413 241.166 37.968L241.806 38.704C241.433 39.152 240.964 39.4933 240.398 39.728C239.844 39.9627 239.23 40.08 238.558 40.08ZM244.647 40V31.6H245.783V40H244.647ZM245.223 29.744C244.988 29.744 244.791 29.664 244.631 29.504C244.471 29.344 244.391 29.152 244.391 28.928C244.391 28.704 244.471 28.5173 244.631 28.368C244.791 28.208 244.988 28.128 245.223 28.128C245.457 28.128 245.655 28.2027 245.815 28.352C245.975 28.5013 246.055 28.688 246.055 28.912C246.055 29.1467 245.975 29.344 245.815 29.504C245.665 29.664 245.468 29.744 245.223 29.744ZM251.103 40L247.375 31.6H248.559L251.983 39.392H251.423L254.895 31.6H256.015L252.271 40H251.103ZM260.949 40.08C260.074 40.08 259.306 39.8987 258.645 39.536C257.984 39.1627 257.466 38.656 257.093 38.016C256.72 37.3653 256.533 36.624 256.533 35.792C256.533 34.96 256.709 34.224 257.061 33.584C257.424 32.944 257.914 32.4427 258.533 32.08C259.162 31.7067 259.866 31.52 260.645 31.52C261.434 31.52 262.133 31.7013 262.741 32.064C263.36 32.416 263.845 32.9173 264.197 33.568C264.549 34.208 264.725 34.9493 264.725 35.792C264.725 35.8453 264.72 35.904 264.709 35.968C264.709 36.0213 264.709 36.08 264.709 36.144H257.397V35.296H264.101L263.653 35.632C263.653 35.024 263.52 34.4853 263.253 34.016C262.997 33.536 262.645 33.1627 262.197 32.896C261.749 32.6293 261.232 32.496 260.645 32.496C260.069 32.496 259.552 32.6293 259.093 32.896C258.634 33.1627 258.277 33.536 258.021 34.016C257.765 34.496 257.637 35.0453 257.637 35.664V35.84C257.637 36.48 257.776 37.0453 258.053 37.536C258.341 38.016 258.736 38.3947 259.237 38.672C259.749 38.9387 260.33 39.072 260.981 39.072C261.493 39.072 261.968 38.9813 262.405 38.8C262.853 38.6187 263.237 38.3413 263.557 37.968L264.197 38.704C263.824 39.152 263.354 39.4933 262.789 39.728C262.234 39.9627 261.621 40.08 260.949 40.08ZM270.381 40.08C269.581 40.08 268.861 39.8987 268.221 39.536C267.592 39.1733 267.096 38.672 266.733 38.032C266.37 37.3813 266.189 36.6347 266.189 35.792C266.189 34.9387 266.37 34.192 266.733 33.552C267.096 32.912 267.592 32.416 268.221 32.064C268.861 31.7013 269.581 31.52 270.381 31.52C271.117 31.52 271.773 31.6853 272.349 32.016C272.936 32.3467 273.4 32.832 273.741 33.472C274.093 34.1013 274.269 34.8747 274.269 35.792C274.269 36.6987 274.098 37.472 273.757 38.112C273.416 38.752 272.952 39.2427 272.365 39.584C271.789 39.9147 271.128 40.08 270.381 40.08ZM270.461 39.072C271.058 39.072 271.592 38.9387 272.061 38.672C272.541 38.3947 272.914 38.0107 273.181 37.52C273.458 37.0187 273.597 36.4427 273.597 35.792C273.597 35.1307 273.458 34.5547 273.181 34.064C272.914 33.5733 272.541 33.1947 272.061 32.928C271.592 32.6507 271.058 32.512 270.461 32.512C269.874 32.512 269.346 32.6507 268.877 32.928C268.408 33.1947 268.034 33.5733 267.757 34.064C267.48 34.5547 267.341 35.1307 267.341 35.792C267.341 36.4427 267.48 37.0187 267.757 37.52C268.034 38.0107 268.408 38.3947 268.877 38.672C269.346 38.9387 269.874 39.072 270.461 39.072ZM273.629 40V37.472L273.741 35.776L273.581 34.08V28.128H274.717V40H273.629ZM282.26 40V30.544C282.26 29.7973 282.479 29.1947 282.916 28.736C283.354 28.2773 283.983 28.048 284.804 28.048C285.124 28.048 285.434 28.0907 285.732 28.176C286.031 28.2613 286.282 28.3947 286.484 28.576L286.1 29.424C285.94 29.2853 285.754 29.184 285.54 29.12C285.327 29.0453 285.098 29.008 284.852 29.008C284.372 29.008 284.004 29.1413 283.748 29.408C283.492 29.6747 283.364 30.0693 283.364 30.592V31.872L283.396 32.4V40H282.26ZM280.756 32.544V31.6H285.956V32.544H280.756ZM287.49 40V31.6H288.578V33.888L288.466 33.488C288.701 32.848 289.096 32.3627 289.65 32.032C290.205 31.6907 290.893 31.52 291.714 31.52V32.624C291.672 32.624 291.629 32.624 291.586 32.624C291.544 32.6133 291.501 32.608 291.458 32.608C290.573 32.608 289.88 32.88 289.378 33.424C288.877 33.9573 288.626 34.72 288.626 35.712V40H287.49ZM297.133 40.08C296.322 40.08 295.592 39.8987 294.941 39.536C294.301 39.1627 293.794 38.656 293.421 38.016C293.048 37.3653 292.861 36.624 292.861 35.792C292.861 34.9493 293.048 34.208 293.421 33.568C293.794 32.928 294.301 32.4267 294.941 32.064C295.581 31.7013 296.312 31.52 297.133 31.52C297.965 31.52 298.701 31.7013 299.341 32.064C299.992 32.4267 300.498 32.928 300.861 33.568C301.234 34.208 301.421 34.9493 301.421 35.792C301.421 36.624 301.234 37.3653 300.861 38.016C300.498 38.656 299.992 39.1627 299.341 39.536C298.69 39.8987 297.954 40.08 297.133 40.08ZM297.133 39.072C297.741 39.072 298.28 38.9387 298.749 38.672C299.218 38.3947 299.586 38.0107 299.853 37.52C300.13 37.0187 300.269 36.4427 300.269 35.792C300.269 35.1307 300.13 34.5547 299.853 34.064C299.586 33.5733 299.218 33.1947 298.749 32.928C298.28 32.6507 297.746 32.512 297.149 32.512C296.552 32.512 296.018 32.6507 295.549 32.928C295.08 33.1947 294.706 33.5733 294.429 34.064C294.152 34.5547 294.013 35.1307 294.013 35.792C294.013 36.4427 294.152 37.0187 294.429 37.52C294.706 38.0107 295.08 38.3947 295.549 38.672C296.018 38.9387 296.546 39.072 297.133 39.072ZM314.236 31.52C314.919 31.52 315.511 31.6533 316.012 31.92C316.524 32.176 316.919 32.5707 317.196 33.104C317.484 33.6373 317.628 34.3093 317.628 35.12V40H316.492V35.232C316.492 34.3467 316.279 33.68 315.852 33.232C315.436 32.7733 314.844 32.544 314.076 32.544C313.5 32.544 312.999 32.6667 312.572 32.912C312.156 33.1467 311.831 33.4933 311.596 33.952C311.372 34.4 311.26 34.944 311.26 35.584V40H310.124V35.232C310.124 34.3467 309.911 33.68 309.484 33.232C309.058 32.7733 308.46 32.544 307.692 32.544C307.127 32.544 306.631 32.6667 306.204 32.912C305.778 33.1467 305.447 33.4933 305.212 33.952C304.988 34.4 304.876 34.944 304.876 35.584V40H303.74V31.6H304.828V33.872L304.652 33.472C304.908 32.864 305.319 32.3893 305.884 32.048C306.46 31.696 307.138 31.52 307.916 31.52C308.738 31.52 309.436 31.728 310.012 32.144C310.588 32.5493 310.962 33.1627 311.132 33.984L310.684 33.808C310.93 33.1253 311.362 32.576 311.98 32.16C312.61 31.7333 313.362 31.52 314.236 31.52ZM325.137 40V28.8H326.113L333.841 38.528H333.329V28.8H334.497V40H333.521L325.809 30.272H326.321V40H325.137ZM341.496 43.184C340.728 43.184 339.992 43.072 339.288 42.848C338.584 42.624 338.013 42.304 337.576 41.888L338.152 41.024C338.547 41.376 339.032 41.6533 339.608 41.856C340.195 42.0693 340.813 42.176 341.464 42.176C342.531 42.176 343.315 41.9253 343.816 41.424C344.317 40.9333 344.568 40.1653 344.568 39.12V37.024L344.728 35.584L344.616 34.144V31.6H345.704V38.976C345.704 40.4267 345.347 41.488 344.632 42.16C343.928 42.8427 342.883 43.184 341.496 43.184ZM341.288 39.68C340.488 39.68 339.768 39.5093 339.128 39.168C338.488 38.816 337.981 38.3307 337.608 37.712C337.245 37.0933 337.064 36.384 337.064 35.584C337.064 34.784 337.245 34.08 337.608 33.472C337.981 32.8533 338.488 32.3733 339.128 32.032C339.768 31.6907 340.488 31.52 341.288 31.52C342.035 31.52 342.707 31.6747 343.304 31.984C343.901 32.2933 344.376 32.752 344.728 33.36C345.08 33.968 345.256 34.7093 345.256 35.584C345.256 36.4587 345.08 37.2 344.728 37.808C344.376 38.416 343.901 38.88 343.304 39.2C342.707 39.52 342.035 39.68 341.288 39.68ZM341.4 38.672C342.019 38.672 342.568 38.544 343.048 38.288C343.528 38.0213 343.907 37.6587 344.184 37.2C344.461 36.7307 344.6 36.192 344.6 35.584C344.6 34.976 344.461 34.4427 344.184 33.984C343.907 33.5253 343.528 33.168 343.048 32.912C342.568 32.6453 342.019 32.512 341.4 32.512C340.792 32.512 340.243 32.6453 339.752 32.912C339.272 33.168 338.893 33.5253 338.616 33.984C338.349 34.4427 338.216 34.976 338.216 35.584C338.216 36.192 338.349 36.7307 338.616 37.2C338.893 37.6587 339.272 38.0213 339.752 38.288C340.243 38.544 340.792 38.672 341.4 38.672ZM352.337 40.08C351.623 40.08 350.999 39.9467 350.465 39.68C349.932 39.4133 349.516 39.0133 349.217 38.48C348.929 37.9467 348.785 37.28 348.785 36.48V31.6H349.921V36.352C349.921 37.248 350.14 37.9253 350.577 38.384C351.025 38.832 351.649 39.056 352.449 39.056C353.036 39.056 353.543 38.9387 353.969 38.704C354.407 38.4587 354.737 38.1067 354.961 37.648C355.196 37.1893 355.313 36.64 355.313 36V31.6H356.449V40H355.361V37.696L355.537 38.112C355.271 38.7307 354.855 39.216 354.289 39.568C353.735 39.9093 353.084 40.08 352.337 40.08ZM359.679 43.184C359.285 43.184 358.906 43.12 358.543 42.992C358.191 42.864 357.887 42.672 357.631 42.416L358.159 41.568C358.373 41.7707 358.602 41.9253 358.847 42.032C359.103 42.1493 359.386 42.208 359.695 42.208C360.069 42.208 360.389 42.1013 360.655 41.888C360.933 41.6853 361.194 41.3227 361.439 40.8L361.983 39.568L362.111 39.392L365.567 31.6H366.687L362.479 41.008C362.245 41.552 361.983 41.984 361.695 42.304C361.418 42.624 361.114 42.848 360.783 42.976C360.453 43.1147 360.085 43.184 359.679 43.184ZM361.919 40.24L358.047 31.6H359.231L362.655 39.312L361.919 40.24ZM371.621 40.08C370.746 40.08 369.978 39.8987 369.317 39.536C368.655 39.1627 368.138 38.656 367.765 38.016C367.391 37.3653 367.205 36.624 367.205 35.792C367.205 34.96 367.381 34.224 367.733 33.584C368.095 32.944 368.586 32.4427 369.205 32.08C369.834 31.7067 370.538 31.52 371.317 31.52C372.106 31.52 372.805 31.7013 373.413 32.064C374.031 32.416 374.517 32.9173 374.869 33.568C375.221 34.208 375.397 34.9493 375.397 35.792C375.397 35.8453 375.391 35.904 375.381 35.968C375.381 36.0213 375.381 36.08 375.381 36.144H368.069V35.296H374.773L374.325 35.632C374.325 35.024 374.191 34.4853 373.925 34.016C373.669 33.536 373.317 33.1627 372.869 32.896C372.421 32.6293 371.903 32.496 371.317 32.496C370.741 32.496 370.223 32.6293 369.765 32.896C369.306 33.1627 368.949 33.536 368.693 34.016C368.437 34.496 368.309 35.0453 368.309 35.664V35.84C368.309 36.48 368.447 37.0453 368.725 37.536C369.013 38.016 369.407 38.3947 369.909 38.672C370.421 38.9387 371.002 39.072 371.653 39.072C372.165 39.072 372.639 38.9813 373.077 38.8C373.525 38.6187 373.909 38.3413 374.229 37.968L374.869 38.704C374.495 39.152 374.026 39.4933 373.461 39.728C372.906 39.9627 372.293 40.08 371.621 40.08ZM381.997 31.52C382.68 31.52 383.277 31.6533 383.789 31.92C384.312 32.176 384.717 32.5707 385.005 33.104C385.304 33.6373 385.453 34.3093 385.453 35.12V40H384.317V35.232C384.317 34.3467 384.093 33.68 383.645 33.232C383.208 32.7733 382.589 32.544 381.789 32.544C381.192 32.544 380.669 32.6667 380.221 32.912C379.784 33.1467 379.442 33.4933 379.197 33.952C378.962 34.4 378.845 34.944 378.845 35.584V40H377.709V31.6H378.797V33.904L378.621 33.472C378.888 32.864 379.314 32.3893 379.901 32.048C380.488 31.696 381.186 31.52 381.997 31.52ZM396.037 40.096C395.205 40.096 394.405 39.9627 393.637 39.696C392.88 39.4187 392.293 39.0667 391.877 38.64L392.341 37.728C392.736 38.112 393.264 38.4373 393.925 38.704C394.597 38.96 395.301 39.088 396.037 39.088C396.741 39.088 397.312 39.0027 397.749 38.832C398.197 38.6507 398.522 38.4107 398.725 38.112C398.938 37.8133 399.045 37.4827 399.045 37.12C399.045 36.6827 398.917 36.3307 398.661 36.064C398.416 35.7973 398.09 35.5893 397.685 35.44C397.28 35.28 396.832 35.1413 396.341 35.024C395.85 34.9067 395.36 34.784 394.869 34.656C394.378 34.5173 393.925 34.336 393.509 34.112C393.104 33.888 392.773 33.5947 392.517 33.232C392.272 32.8587 392.149 32.3733 392.149 31.776C392.149 31.2213 392.293 30.7147 392.581 30.256C392.88 29.7867 393.333 29.4133 393.941 29.136C394.549 28.848 395.328 28.704 396.277 28.704C396.906 28.704 397.53 28.7947 398.149 28.976C398.768 29.1467 399.301 29.3867 399.749 29.696L399.349 30.64C398.869 30.32 398.357 30.0853 397.813 29.936C397.28 29.7867 396.762 29.712 396.261 29.712C395.589 29.712 395.034 29.8027 394.597 29.984C394.16 30.1653 393.834 30.4107 393.621 30.72C393.418 31.0187 393.317 31.36 393.317 31.744C393.317 32.1813 393.44 32.5333 393.685 32.8C393.941 33.0667 394.272 33.2747 394.677 33.424C395.093 33.5733 395.546 33.7067 396.037 33.824C396.528 33.9413 397.013 34.0693 397.493 34.208C397.984 34.3467 398.432 34.528 398.837 34.752C399.253 34.9653 399.584 35.2533 399.829 35.616C400.085 35.9787 400.213 36.4533 400.213 37.04C400.213 37.584 400.064 38.0907 399.765 38.56C399.466 39.0187 399.008 39.392 398.389 39.68C397.781 39.9573 396.997 40.096 396.037 40.096ZM406.841 31.52C407.523 31.52 408.121 31.6533 408.633 31.92C409.155 32.176 409.561 32.5707 409.849 33.104C410.147 33.6373 410.297 34.3093 410.297 35.12V40H409.161V35.232C409.161 34.3467 408.937 33.68 408.489 33.232C408.051 32.7733 407.433 32.544 406.633 32.544C406.035 32.544 405.513 32.6667 405.065 32.912C404.627 33.1467 404.286 33.4933 404.041 33.952C403.806 34.4 403.689 34.944 403.689 35.584V40H402.553V28.128H403.689V33.904L403.465 33.472C403.731 32.864 404.158 32.3893 404.745 32.048C405.331 31.696 406.03 31.52 406.841 31.52ZM418.629 40V38.144L418.581 37.84V34.736C418.581 34.0213 418.379 33.472 417.973 33.088C417.579 32.704 416.987 32.512 416.197 32.512C415.653 32.512 415.136 32.6027 414.645 32.784C414.155 32.9653 413.739 33.2053 413.397 33.504L412.885 32.656C413.312 32.2933 413.824 32.016 414.421 31.824C415.019 31.6213 415.648 31.52 416.309 31.52C417.397 31.52 418.235 31.792 418.821 32.336C419.419 32.8693 419.717 33.6853 419.717 34.784V40H418.629ZM415.733 40.08C415.104 40.08 414.555 39.9787 414.085 39.776C413.627 39.5627 413.275 39.2747 413.029 38.912C412.784 38.5387 412.661 38.112 412.661 37.632C412.661 37.1947 412.763 36.8 412.965 36.448C413.179 36.0853 413.52 35.7973 413.989 35.584C414.469 35.36 415.109 35.248 415.909 35.248H418.805V36.096H415.941C415.131 36.096 414.565 36.24 414.245 36.528C413.936 36.816 413.781 37.1733 413.781 37.6C413.781 38.08 413.968 38.464 414.341 38.752C414.715 39.04 415.237 39.184 415.909 39.184C416.549 39.184 417.099 39.04 417.557 38.752C418.027 38.4533 418.368 38.0267 418.581 37.472L418.837 38.256C418.624 38.8107 418.251 39.2533 417.717 39.584C417.195 39.9147 416.533 40.08 415.733 40.08ZM427.091 31.52C427.773 31.52 428.371 31.6533 428.883 31.92C429.405 32.176 429.811 32.5707 430.099 33.104C430.397 33.6373 430.547 34.3093 430.547 35.12V40H429.411V35.232C429.411 34.3467 429.187 33.68 428.739 33.232C428.301 32.7733 427.683 32.544 426.883 32.544C426.285 32.544 425.763 32.6667 425.315 32.912C424.877 33.1467 424.536 33.4933 424.291 33.952C424.056 34.4 423.939 34.944 423.939 35.584V40H422.803V31.6H423.891V33.904L423.715 33.472C423.981 32.864 424.408 32.3893 424.995 32.048C425.581 31.696 426.28 31.52 427.091 31.52ZM437.183 40.08C436.309 40.08 435.541 39.8987 434.879 39.536C434.218 39.1627 433.701 38.656 433.327 38.016C432.954 37.3653 432.767 36.624 432.767 35.792C432.767 34.96 432.943 34.224 433.295 33.584C433.658 32.944 434.149 32.4427 434.767 32.08C435.397 31.7067 436.101 31.52 436.879 31.52C437.669 31.52 438.367 31.7013 438.975 32.064C439.594 32.416 440.079 32.9173 440.431 33.568C440.783 34.208 440.959 34.9493 440.959 35.792C440.959 35.8453 440.954 35.904 440.943 35.968C440.943 36.0213 440.943 36.08 440.943 36.144H433.631V35.296H440.335L439.887 35.632C439.887 35.024 439.754 34.4853 439.487 34.016C439.231 33.536 438.879 33.1627 438.431 32.896C437.983 32.6293 437.466 32.496 436.879 32.496C436.303 32.496 435.786 32.6293 435.327 32.896C434.869 33.1627 434.511 33.536 434.255 34.016C433.999 34.496 433.871 35.0453 433.871 35.664V35.84C433.871 36.48 434.01 37.0453 434.287 37.536C434.575 38.016 434.97 38.3947 435.471 38.672C435.983 38.9387 436.565 39.072 437.215 39.072C437.727 39.072 438.202 38.9813 438.639 38.8C439.087 38.6187 439.471 38.3413 439.791 37.968L440.431 38.704C440.058 39.152 439.589 39.4933 439.023 39.728C438.469 39.9627 437.855 40.08 437.183 40.08Z" fill="white"/>
<rect y="80" width="499" height="76" rx="16" fill="#202020"/>
<rect x="0.5" y="80.5" width="498" height="75" rx="15.5" stroke="white" stroke-opacity="0.04"/>
<rect x="0.5" y="80.5" width="498" height="75" rx="15.5" stroke="url(#paint1_linear_2_738)" stroke-opacity="0.12"/>
<rect x="24" y="96" width="44" height="44" rx="8" fill="#2B2B2B"/>
<path fill-rule="evenodd" clip-rule="evenodd" d="M39.7143 112.667L39.7143 121.143C39.7143 121.515 39.4128 121.816 39.0408 121.816C38.6689 121.816 38.3674 121.515 38.3674 121.143L38.3674 111.041C38.3674 110.862 38.4383 110.691 38.5646 110.565C38.6909 110.438 38.8622 110.367 39.0408 110.367L49.1429 110.367C49.5148 110.367 49.8164 110.669 49.8164 111.041C49.8164 111.413 49.5148 111.714 49.1429 111.714L40.6667 111.714L52.9864 124.034C53.2495 124.297 53.2495 124.723 52.9864 124.987C52.7234 125.25 52.297 125.25 52.034 124.987L39.7143 112.667Z" fill="white"/>
<path d="M89.12 122.24V113.76H90.38V122.24H89.12ZM85.4 118.6V117.42H94.1V118.6H85.4ZM106.458 127.4V108.6H107.458V127.4H106.458ZM106.878 125.12C105.838 125.12 104.838 124.953 103.878 124.62C102.932 124.273 102.198 123.833 101.678 123.3L102.258 122.16C102.752 122.64 103.412 123.047 104.238 123.38C105.078 123.7 105.958 123.86 106.878 123.86C107.758 123.86 108.472 123.753 109.018 123.54C109.578 123.313 109.985 123.013 110.238 122.64C110.505 122.267 110.638 121.853 110.638 121.4C110.638 120.853 110.478 120.413 110.158 120.08C109.852 119.747 109.445 119.487 108.938 119.3C108.432 119.1 107.872 118.927 107.258 118.78C106.645 118.633 106.032 118.48 105.418 118.32C104.805 118.147 104.238 117.92 103.718 117.64C103.212 117.36 102.798 116.993 102.478 116.54C102.172 116.073 102.018 115.467 102.018 114.72C102.018 114.027 102.198 113.393 102.558 112.82C102.932 112.233 103.498 111.767 104.258 111.42C105.018 111.06 105.992 110.88 107.178 110.88C107.965 110.88 108.745 110.993 109.518 111.22C110.292 111.433 110.958 111.733 111.518 112.12L111.018 113.3C110.418 112.9 109.778 112.607 109.098 112.42C108.432 112.233 107.785 112.14 107.158 112.14C106.318 112.14 105.625 112.253 105.078 112.48C104.532 112.707 104.125 113.013 103.858 113.4C103.605 113.773 103.478 114.2 103.478 114.68C103.478 115.227 103.632 115.667 103.938 116C104.258 116.333 104.672 116.593 105.178 116.78C105.698 116.967 106.265 117.133 106.878 117.28C107.492 117.427 108.098 117.587 108.698 117.76C109.312 117.933 109.872 118.16 110.378 118.44C110.898 118.707 111.312 119.067 111.618 119.52C111.938 119.973 112.098 120.567 112.098 121.3C112.098 121.98 111.912 122.613 111.538 123.2C111.165 123.773 110.592 124.24 109.818 124.6C109.058 124.947 108.078 125.12 106.878 125.12ZM118.107 125.12C117.093 125.12 116.133 124.96 115.227 124.64C114.333 124.307 113.613 123.867 113.067 123.32L113.767 122.18C114.22 122.647 114.827 123.033 115.587 123.34C116.36 123.647 117.2 123.8 118.107 123.8C119.267 123.8 120.153 123.547 120.767 123.04C121.393 122.533 121.707 121.853 121.707 121C121.707 120.147 121.4 119.467 120.787 118.96C120.187 118.453 119.233 118.2 117.927 118.2H116.927V117.14L121.247 111.72L121.447 112.28H113.647V111H122.647V112.02L118.327 117.44L117.627 116.98H118.167C119.847 116.98 121.1 117.353 121.927 118.1C122.767 118.847 123.187 119.807 123.187 120.98C123.187 121.767 123 122.473 122.627 123.1C122.253 123.727 121.687 124.22 120.927 124.58C120.18 124.94 119.24 125.12 118.107 125.12ZM130.796 125.12C129.716 125.12 128.756 124.84 127.916 124.28C127.076 123.707 126.416 122.893 125.936 121.84C125.456 120.773 125.216 119.493 125.216 118C125.216 116.507 125.456 115.233 125.936 114.18C126.416 113.113 127.076 112.3 127.916 111.74C128.756 111.167 129.716 110.88 130.796 110.88C131.876 110.88 132.836 111.167 133.676 111.74C134.516 112.3 135.176 113.113 135.656 114.18C136.149 115.233 136.396 116.507 136.396 118C136.396 119.493 136.149 120.773 135.656 121.84C135.176 122.893 134.516 123.707 133.676 124.28C132.836 124.84 131.876 125.12 130.796 125.12ZM130.796 123.8C131.622 123.8 132.342 123.58 132.956 123.14C133.569 122.687 134.049 122.033 134.396 121.18C134.742 120.313 134.916 119.253 134.916 118C134.916 116.747 134.742 115.693 134.396 114.84C134.049 113.973 133.569 113.32 132.956 112.88C132.342 112.427 131.622 112.2 130.796 112.2C129.996 112.2 129.282 112.427 128.656 112.88C128.029 113.32 127.542 113.973 127.196 114.84C126.849 115.693 126.676 116.747 126.676 118C126.676 119.253 126.849 120.313 127.196 121.18C127.542 122.033 128.029 122.687 128.656 123.14C129.282 123.58 129.996 123.8 130.796 123.8ZM144.038 125.12C142.958 125.12 141.998 124.84 141.158 124.28C140.318 123.707 139.658 122.893 139.178 121.84C138.698 120.773 138.458 119.493 138.458 118C138.458 116.507 138.698 115.233 139.178 114.18C139.658 113.113 140.318 112.3 141.158 111.74C141.998 111.167 142.958 110.88 144.038 110.88C145.118 110.88 146.078 111.167 146.918 111.74C147.758 112.3 148.418 113.113 148.898 114.18C149.391 115.233 149.638 116.507 149.638 118C149.638 119.493 149.391 120.773 148.898 121.84C148.418 122.893 147.758 123.707 146.918 124.28C146.078 124.84 145.118 125.12 144.038 125.12ZM144.038 123.8C144.865 123.8 145.585 123.58 146.198 123.14C146.811 122.687 147.291 122.033 147.638 121.18C147.985 120.313 148.158 119.253 148.158 118C148.158 116.747 147.985 115.693 147.638 114.84C147.291 113.973 146.811 113.32 146.198 112.88C145.585 112.427 144.865 112.2 144.038 112.2C143.238 112.2 142.525 112.427 141.898 112.88C141.271 113.32 140.785 113.973 140.438 114.84C140.091 115.693 139.918 116.747 139.918 118C139.918 119.253 140.091 120.313 140.438 121.18C140.785 122.033 141.271 122.687 141.898 123.14C142.525 123.58 143.238 123.8 144.038 123.8ZM152.565 125.1C152.272 125.1 152.019 124.993 151.805 124.78C151.605 124.567 151.505 124.307 151.505 124C151.505 123.68 151.605 123.42 151.805 123.22C152.019 123.02 152.272 122.92 152.565 122.92C152.859 122.92 153.105 123.02 153.305 123.22C153.519 123.42 153.625 123.68 153.625 124C153.625 124.307 153.519 124.567 153.305 124.78C153.105 124.993 152.859 125.1 152.565 125.1ZM160.144 125.12C159.144 125.12 158.19 124.96 157.284 124.64C156.377 124.307 155.657 123.867 155.124 123.32L155.824 122.18C156.264 122.647 156.864 123.033 157.624 123.34C158.397 123.647 159.23 123.8 160.124 123.8C161.31 123.8 162.21 123.54 162.824 123.02C163.45 122.487 163.764 121.793 163.764 120.94C163.764 120.34 163.617 119.827 163.324 119.4C163.044 118.96 162.564 118.62 161.884 118.38C161.204 118.14 160.27 118.02 159.084 118.02H156.104L156.824 111H164.484V112.28H157.404L158.144 111.58L157.524 117.46L156.784 116.74H159.404C160.817 116.74 161.95 116.913 162.804 117.26C163.657 117.607 164.27 118.093 164.644 118.72C165.03 119.333 165.224 120.053 165.224 120.88C165.224 121.667 165.037 122.387 164.664 123.04C164.29 123.68 163.73 124.187 162.984 124.56C162.237 124.933 161.29 125.12 160.144 125.12ZM166.694 125V123.98L172.514 118.28C173.047 117.76 173.447 117.307 173.714 116.92C173.981 116.52 174.161 116.147 174.254 115.8C174.347 115.453 174.394 115.127 174.394 114.82C174.394 114.007 174.114 113.367 173.554 112.9C173.007 112.433 172.194 112.2 171.114 112.2C170.287 112.2 169.554 112.327 168.914 112.58C168.287 112.833 167.747 113.227 167.294 113.76L166.274 112.88C166.821 112.24 167.521 111.747 168.374 111.4C169.227 111.053 170.181 110.88 171.234 110.88C172.181 110.88 173.001 111.033 173.694 111.34C174.387 111.633 174.921 112.067 175.294 112.64C175.681 113.213 175.874 113.887 175.874 114.66C175.874 115.113 175.807 115.56 175.674 116C175.554 116.44 175.327 116.907 174.994 117.4C174.674 117.88 174.201 118.427 173.574 119.04L168.234 124.28L167.834 123.72H176.514V125H166.694ZM184.796 125V111H190.036C191.222 111 192.242 111.193 193.096 111.58C193.949 111.953 194.602 112.5 195.056 113.22C195.522 113.927 195.756 114.787 195.756 115.8C195.756 116.787 195.522 117.64 195.056 118.36C194.602 119.067 193.949 119.613 193.096 120C192.242 120.373 191.222 120.56 190.036 120.56H185.616L186.276 119.88V125H184.796ZM194.356 125L190.756 119.92H192.356L195.976 125H194.356ZM186.276 120L185.616 119.3H189.996C191.396 119.3 192.456 118.993 193.176 118.38C193.909 117.767 194.276 116.907 194.276 115.8C194.276 114.68 193.909 113.813 193.176 113.2C192.456 112.587 191.396 112.28 189.996 112.28H185.616L186.276 111.58V120ZM203.409 125.1C202.315 125.1 201.355 124.873 200.529 124.42C199.702 123.953 199.055 123.32 198.589 122.52C198.122 121.707 197.889 120.78 197.889 119.74C197.889 118.7 198.109 117.78 198.549 116.98C199.002 116.18 199.615 115.553 200.389 115.1C201.175 114.633 202.055 114.4 203.029 114.4C204.015 114.4 204.889 114.627 205.649 115.08C206.422 115.52 207.029 116.147 207.469 116.96C207.909 117.76 208.129 118.687 208.129 119.74C208.129 119.807 208.122 119.88 208.109 119.96C208.109 120.027 208.109 120.1 208.109 120.18H198.969V119.12H207.349L206.789 119.54C206.789 118.78 206.622 118.107 206.289 117.52C205.969 116.92 205.529 116.453 204.969 116.12C204.409 115.787 203.762 115.62 203.029 115.62C202.309 115.62 201.662 115.787 201.089 116.12C200.515 116.453 200.069 116.92 199.749 117.52C199.429 118.12 199.269 118.807 199.269 119.58V119.8C199.269 120.6 199.442 121.307 199.789 121.92C200.149 122.52 200.642 122.993 201.269 123.34C201.909 123.673 202.635 123.84 203.449 123.84C204.089 123.84 204.682 123.727 205.229 123.5C205.789 123.273 206.269 122.927 206.669 122.46L207.469 123.38C207.002 123.94 206.415 124.367 205.709 124.66C205.015 124.953 204.249 125.1 203.409 125.1ZM215.379 125.1C214.339 125.1 213.406 124.873 212.579 124.42C211.766 123.953 211.126 123.32 210.659 122.52C210.192 121.707 209.959 120.78 209.959 119.74C209.959 118.687 210.192 117.76 210.659 116.96C211.126 116.16 211.766 115.533 212.579 115.08C213.406 114.627 214.339 114.4 215.379 114.4C216.272 114.4 217.079 114.573 217.799 114.92C218.519 115.267 219.086 115.787 219.499 116.48L218.439 117.2C218.079 116.667 217.632 116.273 217.099 116.02C216.566 115.767 215.986 115.64 215.359 115.64C214.612 115.64 213.939 115.813 213.339 116.16C212.739 116.493 212.266 116.967 211.919 117.58C211.572 118.193 211.399 118.913 211.399 119.74C211.399 120.567 211.572 121.287 211.919 121.9C212.266 122.513 212.739 122.993 213.339 123.34C213.939 123.673 214.612 123.84 215.359 123.84C215.986 123.84 216.566 123.713 217.099 123.46C217.632 123.207 218.079 122.82 218.439 122.3L219.499 123.02C219.086 123.7 218.519 124.22 217.799 124.58C217.079 124.927 216.272 125.1 215.379 125.1ZM226.573 125.1C225.479 125.1 224.519 124.873 223.693 124.42C222.866 123.953 222.219 123.32 221.753 122.52C221.286 121.707 221.053 120.78 221.053 119.74C221.053 118.7 221.273 117.78 221.713 116.98C222.166 116.18 222.779 115.553 223.553 115.1C224.339 114.633 225.219 114.4 226.193 114.4C227.179 114.4 228.053 114.627 228.813 115.08C229.586 115.52 230.193 116.147 230.633 116.96C231.073 117.76 231.293 118.687 231.293 119.74C231.293 119.807 231.286 119.88 231.273 119.96C231.273 120.027 231.273 120.1 231.273 120.18H222.133V119.12H230.513L229.953 119.54C229.953 118.78 229.786 118.107 229.453 117.52C229.133 116.92 228.693 116.453 228.133 116.12C227.573 115.787 226.926 115.62 226.193 115.62C225.473 115.62 224.826 115.787 224.253 116.12C223.679 116.453 223.233 116.92 222.913 117.52C222.593 118.12 222.433 118.807 222.433 119.58V119.8C222.433 120.6 222.606 121.307 222.953 121.92C223.313 122.52 223.806 122.993 224.433 123.34C225.073 123.673 225.799 123.84 226.613 123.84C227.253 123.84 227.846 123.727 228.393 123.5C228.953 123.273 229.433 122.927 229.833 122.46L230.633 123.38C230.166 123.94 229.579 124.367 228.873 124.66C228.179 124.953 227.413 125.1 226.573 125.1ZM234.183 125V114.5H235.603V125H234.183ZM234.903 112.18C234.61 112.18 234.363 112.08 234.163 111.88C233.963 111.68 233.863 111.44 233.863 111.16C233.863 110.88 233.963 110.647 234.163 110.46C234.363 110.26 234.61 110.16 234.903 110.16C235.196 110.16 235.443 110.253 235.643 110.44C235.843 110.627 235.943 110.86 235.943 111.14C235.943 111.433 235.843 111.68 235.643 111.88C235.456 112.08 235.21 112.18 234.903 112.18ZM242.254 125L237.594 114.5H239.074L243.354 124.24H242.654L246.994 114.5H248.394L243.714 125H242.254ZM254.561 125.1C253.468 125.1 252.508 124.873 251.681 124.42C250.854 123.953 250.208 123.32 249.741 122.52C249.274 121.707 249.041 120.78 249.041 119.74C249.041 118.7 249.261 117.78 249.701 116.98C250.154 116.18 250.768 115.553 251.541 115.1C252.328 114.633 253.208 114.4 254.181 114.4C255.168 114.4 256.041 114.627 256.801 115.08C257.574 115.52 258.181 116.147 258.621 116.96C259.061 117.76 259.281 118.687 259.281 119.74C259.281 119.807 259.274 119.88 259.261 119.96C259.261 120.027 259.261 120.1 259.261 120.18H250.121V119.12H258.501L257.941 119.54C257.941 118.78 257.774 118.107 257.441 117.52C257.121 116.92 256.681 116.453 256.121 116.12C255.561 115.787 254.914 115.62 254.181 115.62C253.461 115.62 252.814 115.787 252.241 116.12C251.668 116.453 251.221 116.92 250.901 117.52C250.581 118.12 250.421 118.807 250.421 119.58V119.8C250.421 120.6 250.594 121.307 250.941 121.92C251.301 122.52 251.794 122.993 252.421 123.34C253.061 123.673 253.788 123.84 254.601 123.84C255.241 123.84 255.834 123.727 256.381 123.5C256.941 123.273 257.421 122.927 257.821 122.46L258.621 123.38C258.154 123.94 257.568 124.367 256.861 124.66C256.168 124.953 255.401 125.1 254.561 125.1ZM266.351 125.1C265.351 125.1 264.451 124.873 263.651 124.42C262.865 123.967 262.245 123.34 261.791 122.54C261.338 121.727 261.111 120.793 261.111 119.74C261.111 118.673 261.338 117.74 261.791 116.94C262.245 116.14 262.865 115.52 263.651 115.08C264.451 114.627 265.351 114.4 266.351 114.4C267.271 114.4 268.091 114.607 268.811 115.02C269.545 115.433 270.125 116.04 270.551 116.84C270.991 117.627 271.211 118.593 271.211 119.74C271.211 120.873 270.998 121.84 270.571 122.64C270.145 123.44 269.565 124.053 268.831 124.48C268.111 124.893 267.285 125.1 266.351 125.1ZM266.451 123.84C267.198 123.84 267.865 123.673 268.451 123.34C269.051 122.993 269.518 122.513 269.851 121.9C270.198 121.273 270.371 120.553 270.371 119.74C270.371 118.913 270.198 118.193 269.851 117.58C269.518 116.967 269.051 116.493 268.451 116.16C267.865 115.813 267.198 115.64 266.451 115.64C265.718 115.64 265.058 115.813 264.471 116.16C263.885 116.493 263.418 116.967 263.071 117.58C262.725 118.193 262.551 118.913 262.551 119.74C262.551 120.553 262.725 121.273 263.071 121.9C263.418 122.513 263.885 122.993 264.471 123.34C265.058 123.673 265.718 123.84 266.451 123.84ZM270.411 125V121.84L270.551 119.72L270.351 117.6V110.16H271.771V125H270.411ZM281.2 125V113.18C281.2 112.247 281.474 111.493 282.02 110.92C282.567 110.347 283.354 110.06 284.38 110.06C284.78 110.06 285.167 110.113 285.54 110.22C285.914 110.327 286.227 110.493 286.48 110.72L286 111.78C285.8 111.607 285.567 111.48 285.3 111.4C285.034 111.307 284.747 111.26 284.44 111.26C283.84 111.26 283.38 111.427 283.06 111.76C282.74 112.093 282.58 112.587 282.58 113.24V114.84L282.62 115.5V125H281.2ZM279.32 115.68V114.5H285.82V115.68H279.32ZM287.738 125V114.5H289.098V117.36L288.958 116.86C289.251 116.06 289.744 115.453 290.438 115.04C291.131 114.613 291.991 114.4 293.018 114.4V115.78C292.964 115.78 292.911 115.78 292.858 115.78C292.804 115.767 292.751 115.76 292.698 115.76C291.591 115.76 290.724 116.1 290.098 116.78C289.471 117.447 289.158 118.4 289.158 119.64V125H287.738ZM299.791 125.1C298.778 125.1 297.865 124.873 297.051 124.42C296.251 123.953 295.618 123.32 295.151 122.52C294.685 121.707 294.451 120.78 294.451 119.74C294.451 118.687 294.685 117.76 295.151 116.96C295.618 116.16 296.251 115.533 297.051 115.08C297.851 114.627 298.765 114.4 299.791 114.4C300.831 114.4 301.751 114.627 302.551 115.08C303.365 115.533 303.998 116.16 304.451 116.96C304.918 117.76 305.151 118.687 305.151 119.74C305.151 120.78 304.918 121.707 304.451 122.52C303.998 123.32 303.365 123.953 302.551 124.42C301.738 124.873 300.818 125.1 299.791 125.1ZM299.791 123.84C300.551 123.84 301.225 123.673 301.811 123.34C302.398 122.993 302.858 122.513 303.191 121.9C303.538 121.273 303.711 120.553 303.711 119.74C303.711 118.913 303.538 118.193 303.191 117.58C302.858 116.967 302.398 116.493 301.811 116.16C301.225 115.813 300.558 115.64 299.811 115.64C299.065 115.64 298.398 115.813 297.811 116.16C297.225 116.493 296.758 116.967 296.411 117.58C296.065 118.193 295.891 118.913 295.891 119.74C295.891 120.553 296.065 121.273 296.411 121.9C296.758 122.513 297.225 122.993 297.811 123.34C298.398 123.673 299.058 123.84 299.791 123.84ZM321.17 114.4C322.024 114.4 322.764 114.567 323.39 114.9C324.03 115.22 324.524 115.713 324.87 116.38C325.23 117.047 325.41 117.887 325.41 118.9V125H323.99V119.04C323.99 117.933 323.724 117.1 323.19 116.54C322.67 115.967 321.93 115.68 320.97 115.68C320.25 115.68 319.624 115.833 319.09 116.14C318.57 116.433 318.164 116.867 317.87 117.44C317.59 118 317.45 118.68 317.45 119.48V125H316.03V119.04C316.03 117.933 315.764 117.1 315.23 116.54C314.697 115.967 313.95 115.68 312.99 115.68C312.284 115.68 311.664 115.833 311.13 116.14C310.597 116.433 310.184 116.867 309.89 117.44C309.61 118 309.47 118.68 309.47 119.48V125H308.05V114.5H309.41V117.34L309.19 116.84C309.51 116.08 310.024 115.487 310.73 115.06C311.45 114.62 312.297 114.4 313.27 114.4C314.297 114.4 315.17 114.66 315.89 115.18C316.61 115.687 317.077 116.453 317.29 117.48L316.73 117.26C317.037 116.407 317.577 115.72 318.35 115.2C319.137 114.667 320.077 114.4 321.17 114.4ZM340.876 125.12C339.822 125.12 338.849 124.947 337.956 124.6C337.062 124.24 336.289 123.74 335.636 123.1C334.982 122.46 334.469 121.707 334.096 120.84C333.736 119.973 333.556 119.027 333.556 118C333.556 116.973 333.736 116.027 334.096 115.16C334.469 114.293 334.982 113.54 335.636 112.9C336.302 112.26 337.082 111.767 337.976 111.42C338.869 111.06 339.842 110.88 340.896 110.88C341.909 110.88 342.862 111.053 343.756 111.4C344.649 111.733 345.402 112.24 346.016 112.92L345.076 113.86C344.502 113.273 343.869 112.853 343.176 112.6C342.482 112.333 341.736 112.2 340.936 112.2C340.096 112.2 339.316 112.347 338.596 112.64C337.876 112.92 337.249 113.327 336.716 113.86C336.182 114.38 335.762 114.993 335.456 115.7C335.162 116.393 335.016 117.16 335.016 118C335.016 118.84 335.162 119.613 335.456 120.32C335.762 121.013 336.182 121.627 336.716 122.16C337.249 122.68 337.876 123.087 338.596 123.38C339.316 123.66 340.096 123.8 340.936 123.8C341.736 123.8 342.482 123.667 343.176 123.4C343.869 123.133 344.502 122.707 345.076 122.12L346.016 123.06C345.402 123.74 344.649 124.253 343.756 124.6C342.862 124.947 341.902 125.12 340.876 125.12ZM352.682 125.1C351.669 125.1 350.755 124.873 349.942 124.42C349.142 123.953 348.509 123.32 348.042 122.52C347.575 121.707 347.342 120.78 347.342 119.74C347.342 118.687 347.575 117.76 348.042 116.96C348.509 116.16 349.142 115.533 349.942 115.08C350.742 114.627 351.655 114.4 352.682 114.4C353.722 114.4 354.642 114.627 355.442 115.08C356.255 115.533 356.889 116.16 357.342 116.96C357.809 117.76 358.042 118.687 358.042 119.74C358.042 120.78 357.809 121.707 357.342 122.52C356.889 123.32 356.255 123.953 355.442 124.42C354.629 124.873 353.709 125.1 352.682 125.1ZM352.682 123.84C353.442 123.84 354.115 123.673 354.702 123.34C355.289 122.993 355.749 122.513 356.082 121.9C356.429 121.273 356.602 120.553 356.602 119.74C356.602 118.913 356.429 118.193 356.082 117.58C355.749 116.967 355.289 116.493 354.702 116.16C354.115 115.813 353.449 115.64 352.702 115.64C351.955 115.64 351.289 115.813 350.702 116.16C350.115 116.493 349.649 116.967 349.302 117.58C348.955 118.193 348.782 118.913 348.782 119.74C348.782 120.553 348.955 121.273 349.302 121.9C349.649 122.513 350.115 122.993 350.702 123.34C351.289 123.673 351.949 123.84 352.682 123.84ZM365.221 125.1C364.208 125.1 363.294 124.873 362.481 124.42C361.681 123.953 361.048 123.32 360.581 122.52C360.114 121.707 359.881 120.78 359.881 119.74C359.881 118.687 360.114 117.76 360.581 116.96C361.048 116.16 361.681 115.533 362.481 115.08C363.281 114.627 364.194 114.4 365.221 114.4C366.261 114.4 367.181 114.627 367.981 115.08C368.794 115.533 369.428 116.16 369.881 116.96C370.348 117.76 370.581 118.687 370.581 119.74C370.581 120.78 370.348 121.707 369.881 122.52C369.428 123.32 368.794 123.953 367.981 124.42C367.168 124.873 366.248 125.1 365.221 125.1ZM365.221 123.84C365.981 123.84 366.654 123.673 367.241 123.34C367.828 122.993 368.288 122.513 368.621 121.9C368.968 121.273 369.141 120.553 369.141 119.74C369.141 118.913 368.968 118.193 368.621 117.58C368.288 116.967 367.828 116.493 367.241 116.16C366.654 115.813 365.988 115.64 365.241 115.64C364.494 115.64 363.828 115.813 363.241 116.16C362.654 116.493 362.188 116.967 361.841 117.58C361.494 118.193 361.321 118.913 361.321 119.74C361.321 120.553 361.494 121.273 361.841 121.9C362.188 122.513 362.654 122.993 363.241 123.34C363.828 123.673 364.488 123.84 365.221 123.84ZM378.9 125.1C377.993 125.1 377.173 124.893 376.44 124.48C375.707 124.053 375.12 123.447 374.68 122.66C374.253 121.86 374.04 120.887 374.04 119.74C374.04 118.593 374.253 117.627 374.68 116.84C375.107 116.04 375.687 115.433 376.42 115.02C377.153 114.607 377.98 114.4 378.9 114.4C379.9 114.4 380.793 114.627 381.58 115.08C382.38 115.52 383.007 116.147 383.46 116.96C383.913 117.76 384.14 118.687 384.14 119.74C384.14 120.807 383.913 121.74 383.46 122.54C383.007 123.34 382.38 123.967 381.58 124.42C380.793 124.873 379.9 125.1 378.9 125.1ZM373.48 128.88V114.5H374.84V117.66L374.7 119.76L374.9 121.88V128.88H373.48ZM378.8 123.84C379.547 123.84 380.213 123.673 380.8 123.34C381.387 122.993 381.853 122.513 382.2 121.9C382.547 121.273 382.72 120.553 382.72 119.74C382.72 118.927 382.547 118.213 382.2 117.6C381.853 116.987 381.387 116.507 380.8 116.16C380.213 115.813 379.547 115.64 378.8 115.64C378.053 115.64 377.38 115.813 376.78 116.16C376.193 116.507 375.727 116.987 375.38 117.6C375.047 118.213 374.88 118.927 374.88 119.74C374.88 120.553 375.047 121.273 375.38 121.9C375.727 122.513 376.193 122.993 376.78 123.34C377.38 123.673 378.053 123.84 378.8 123.84ZM391.495 125.1C390.401 125.1 389.441 124.873 388.615 124.42C387.788 123.953 387.141 123.32 386.675 122.52C386.208 121.707 385.975 120.78 385.975 119.74C385.975 118.7 386.195 117.78 386.635 116.98C387.088 116.18 387.701 115.553 388.475 115.1C389.261 114.633 390.141 114.4 391.115 114.4C392.101 114.4 392.975 114.627 393.735 115.08C394.508 115.52 395.115 116.147 395.555 116.96C395.995 117.76 396.215 118.687 396.215 119.74C396.215 119.807 396.208 119.88 396.195 119.96C396.195 120.027 396.195 120.1 396.195 120.18H387.055V119.12H395.435L394.875 119.54C394.875 118.78 394.708 118.107 394.375 117.52C394.055 116.92 393.615 116.453 393.055 116.12C392.495 115.787 391.848 115.62 391.115 115.62C390.395 115.62 389.748 115.787 389.175 116.12C388.601 116.453 388.155 116.92 387.835 117.52C387.515 118.12 387.355 118.807 387.355 119.58V119.8C387.355 120.6 387.528 121.307 387.875 121.92C388.235 122.52 388.728 122.993 389.355 123.34C389.995 123.673 390.721 123.84 391.535 123.84C392.175 123.84 392.768 123.727 393.315 123.5C393.875 123.273 394.355 122.927 394.755 122.46L395.555 123.38C395.088 123.94 394.501 124.367 393.795 124.66C393.101 124.953 392.335 125.1 391.495 125.1ZM399.105 125V114.5H400.465V117.36L400.325 116.86C400.618 116.06 401.112 115.453 401.805 115.04C402.498 114.613 403.358 114.4 404.385 114.4V115.78C404.332 115.78 404.278 115.78 404.225 115.78C404.172 115.767 404.118 115.76 404.065 115.76C402.958 115.76 402.092 116.1 401.465 116.78C400.838 117.447 400.525 118.4 400.525 119.64V125H399.105ZM413.947 121.52L413.887 119.72L422.367 111H424.067L417.887 117.48L417.047 118.38L413.947 121.52ZM412.667 125V111H414.147V125H412.667ZM422.727 125L416.687 118.04L417.687 116.96L424.487 125H422.727ZM426.39 125V114.5H427.75V117.36L427.61 116.86C427.903 116.06 428.397 115.453 429.09 115.04C429.783 114.613 430.643 114.4 431.67 114.4V115.78C431.617 115.78 431.563 115.78 431.51 115.78C431.457 115.767 431.403 115.76 431.35 115.76C430.243 115.76 429.377 116.1 428.75 116.78C428.123 117.447 427.81 118.4 427.81 119.64V125H426.39ZM434.261 125V114.5H435.681V125H434.261ZM434.981 112.18C434.688 112.18 434.441 112.08 434.241 111.88C434.041 111.68 433.941 111.44 433.941 111.16C433.941 110.88 434.041 110.647 434.241 110.46C434.441 110.26 434.688 110.16 434.981 110.16C435.275 110.16 435.521 110.253 435.721 110.44C435.921 110.627 436.021 110.86 436.021 111.14C436.021 111.433 435.921 111.68 435.721 111.88C435.535 112.08 435.288 112.18 434.981 112.18ZM442.452 125.1C441.586 125.1 440.766 124.98 439.992 124.74C439.219 124.487 438.612 124.173 438.172 123.8L438.812 122.68C439.239 123 439.786 123.28 440.452 123.52C441.119 123.747 441.819 123.86 442.552 123.86C443.552 123.86 444.272 123.707 444.712 123.4C445.152 123.08 445.372 122.66 445.372 122.14C445.372 121.753 445.246 121.453 444.992 121.24C444.752 121.013 444.432 120.847 444.032 120.74C443.632 120.62 443.186 120.52 442.692 120.44C442.199 120.36 441.706 120.267 441.212 120.16C440.732 120.053 440.292 119.9 439.892 119.7C439.492 119.487 439.166 119.2 438.912 118.84C438.672 118.48 438.552 118 438.552 117.4C438.552 116.827 438.712 116.313 439.032 115.86C439.352 115.407 439.819 115.053 440.432 114.8C441.059 114.533 441.819 114.4 442.712 114.4C443.392 114.4 444.072 114.493 444.752 114.68C445.432 114.853 445.992 115.087 446.432 115.38L445.812 116.52C445.346 116.2 444.846 115.973 444.312 115.84C443.779 115.693 443.246 115.62 442.712 115.62C441.766 115.62 441.066 115.787 440.612 116.12C440.172 116.44 439.952 116.853 439.952 117.36C439.952 117.76 440.072 118.073 440.312 118.3C440.566 118.527 440.892 118.707 441.292 118.84C441.706 118.96 442.152 119.06 442.632 119.14C443.126 119.22 443.612 119.32 444.092 119.44C444.586 119.547 445.032 119.7 445.432 119.9C445.846 120.087 446.172 120.36 446.412 120.72C446.666 121.067 446.792 121.527 446.792 122.1C446.792 122.713 446.619 123.247 446.272 123.7C445.939 124.14 445.446 124.487 444.792 124.74C444.152 124.98 443.372 125.1 442.452 125.1ZM452.718 125.1C451.731 125.1 450.971 124.833 450.438 124.3C449.905 123.767 449.638 123.013 449.638 122.04V112.18H451.058V121.96C451.058 122.573 451.211 123.047 451.518 123.38C451.838 123.713 452.291 123.88 452.878 123.88C453.505 123.88 454.025 123.7 454.438 123.34L454.938 124.36C454.658 124.613 454.318 124.8 453.918 124.92C453.531 125.04 453.131 125.1 452.718 125.1ZM447.758 115.68V114.5H454.258V115.68H447.758ZM457.523 125V114.5H458.943V125H457.523ZM458.243 112.18C457.95 112.18 457.703 112.08 457.503 111.88C457.303 111.68 457.203 111.44 457.203 111.16C457.203 110.88 457.303 110.647 457.503 110.46C457.703 110.26 457.95 110.16 458.243 110.16C458.536 110.16 458.783 110.253 458.983 110.44C459.183 110.627 459.283 110.86 459.283 111.14C459.283 111.433 459.183 111.68 458.983 111.88C458.796 112.08 458.55 112.18 458.243 112.18ZM468.254 114.4C469.107 114.4 469.854 114.567 470.494 114.9C471.147 115.22 471.654 115.713 472.014 116.38C472.387 117.047 472.574 117.887 472.574 118.9V125H471.154V119.04C471.154 117.933 470.874 117.1 470.314 116.54C469.767 115.967 468.994 115.68 467.994 115.68C467.247 115.68 466.594 115.833 466.034 116.14C465.487 116.433 465.061 116.867 464.754 117.44C464.461 118 464.314 118.68 464.314 119.48V125H462.894V114.5H464.254V117.38L464.034 116.84C464.367 116.08 464.901 115.487 465.634 115.06C466.367 114.62 467.241 114.4 468.254 114.4Z" fill="white"/>
<rect x="71.5" y="168" width="356" height="68" rx="12" fill="#202020"/>
<rect x="72" y="168.5" width="355" height="67" rx="11.5" stroke="white" stroke-opacity="0.04"/>
<rect x="72" y="168.5" width="355" height="67" rx="11.5" stroke="url(#paint2_linear_2_738)" stroke-opacity="0.12"/>
<rect x="87.5" y="184" width="36" height="36" rx="8" fill="#2B2B2B"/>
<path fill-rule="evenodd" clip-rule="evenodd" d="M99.7143 196.667L99.7143 205.143C99.7143 205.515 99.4128 205.816 99.0408 205.816C98.6689 205.816 98.3674 205.515 98.3674 205.143L98.3674 195.041C98.3674 194.862 98.4383 194.691 98.5646 194.565C98.6909 194.438 98.8622 194.367 99.0408 194.367L109.143 194.367C109.515 194.367 109.816 194.669 109.816 195.041C109.816 195.413 109.515 195.714 109.143 195.714L100.667 195.714L112.986 208.034C113.249 208.297 113.249 208.723 112.986 208.987C112.723 209.25 112.297 209.25 112.034 208.987L99.7143 196.667Z" fill="white"/>
<path d="M143.596 205.792V199.008H144.604V205.792H143.596ZM140.62 202.88V201.936H147.58V202.88H140.62ZM157.467 209.92V194.88H158.267V209.92H157.467ZM157.803 208.096C156.971 208.096 156.171 207.963 155.403 207.696C154.645 207.419 154.059 207.067 153.643 206.64L154.107 205.728C154.501 206.112 155.029 206.437 155.691 206.704C156.363 206.96 157.067 207.088 157.803 207.088C158.507 207.088 159.077 207.003 159.515 206.832C159.963 206.651 160.288 206.411 160.491 206.112C160.704 205.813 160.811 205.483 160.811 205.12C160.811 204.683 160.683 204.331 160.427 204.064C160.181 203.797 159.856 203.589 159.451 203.44C159.045 203.28 158.597 203.141 158.107 203.024C157.616 202.907 157.125 202.784 156.635 202.656C156.144 202.517 155.691 202.336 155.275 202.112C154.869 201.888 154.539 201.595 154.283 201.232C154.037 200.859 153.915 200.373 153.915 199.776C153.915 199.221 154.059 198.715 154.347 198.256C154.645 197.787 155.099 197.413 155.707 197.136C156.315 196.848 157.093 196.704 158.043 196.704C158.672 196.704 159.296 196.795 159.915 196.976C160.533 197.147 161.067 197.387 161.515 197.696L161.115 198.64C160.635 198.32 160.123 198.085 159.579 197.936C159.045 197.787 158.528 197.712 158.027 197.712C157.355 197.712 156.8 197.803 156.363 197.984C155.925 198.165 155.6 198.411 155.387 198.72C155.184 199.019 155.083 199.36 155.083 199.744C155.083 200.181 155.205 200.533 155.451 200.8C155.707 201.067 156.037 201.275 156.443 201.424C156.859 201.573 157.312 201.707 157.803 201.824C158.293 201.941 158.779 202.069 159.259 202.208C159.749 202.347 160.197 202.528 160.603 202.752C161.019 202.965 161.349 203.253 161.595 203.616C161.851 203.979 161.979 204.453 161.979 205.04C161.979 205.584 161.829 206.091 161.531 206.56C161.232 207.019 160.773 207.392 160.155 207.68C159.547 207.957 158.763 208.096 157.803 208.096ZM167.102 208.096C166.302 208.096 165.54 207.968 164.814 207.712C164.089 207.445 163.513 207.093 163.086 206.656L163.646 205.744C163.998 206.117 164.478 206.427 165.086 206.672C165.705 206.917 166.372 207.04 167.086 207.04C168.036 207.04 168.756 206.832 169.246 206.416C169.748 205.989 169.998 205.435 169.998 204.752C169.998 204.272 169.881 203.861 169.646 203.52C169.422 203.168 169.038 202.896 168.494 202.704C167.95 202.512 167.204 202.416 166.254 202.416H163.87L164.446 196.8H170.574V197.824H164.91L165.502 197.264L165.006 201.968L164.414 201.392H166.51C167.641 201.392 168.548 201.531 169.23 201.808C169.913 202.085 170.404 202.475 170.702 202.976C171.012 203.467 171.166 204.043 171.166 204.704C171.166 205.333 171.017 205.909 170.718 206.432C170.42 206.944 169.972 207.349 169.374 207.648C168.777 207.947 168.02 208.096 167.102 208.096ZM177.093 208.096C176.229 208.096 175.461 207.872 174.789 207.424C174.117 206.965 173.589 206.315 173.205 205.472C172.821 204.619 172.629 203.595 172.629 202.4C172.629 201.205 172.821 200.187 173.205 199.344C173.589 198.491 174.117 197.84 174.789 197.392C175.461 196.933 176.229 196.704 177.093 196.704C177.957 196.704 178.725 196.933 179.397 197.392C180.069 197.84 180.597 198.491 180.981 199.344C181.376 200.187 181.573 201.205 181.573 202.4C181.573 203.595 181.376 204.619 180.981 205.472C180.597 206.315 180.069 206.965 179.397 207.424C178.725 207.872 177.957 208.096 177.093 208.096ZM177.093 207.04C177.754 207.04 178.33 206.864 178.821 206.512C179.312 206.149 179.696 205.627 179.973 204.944C180.25 204.251 180.389 203.403 180.389 202.4C180.389 201.397 180.25 200.555 179.973 199.872C179.696 199.179 179.312 198.656 178.821 198.304C178.33 197.941 177.754 197.76 177.093 197.76C176.453 197.76 175.882 197.941 175.381 198.304C174.88 198.656 174.49 199.179 174.213 199.872C173.936 200.555 173.797 201.397 173.797 202.4C173.797 203.403 173.936 204.251 174.213 204.944C174.49 205.627 174.88 206.149 175.381 206.512C175.882 206.864 176.453 207.04 177.093 207.04ZM183.915 208.08C183.68 208.08 183.477 207.995 183.307 207.824C183.147 207.653 183.067 207.445 183.067 207.2C183.067 206.944 183.147 206.736 183.307 206.576C183.477 206.416 183.68 206.336 183.915 206.336C184.149 206.336 184.347 206.416 184.507 206.576C184.677 206.736 184.763 206.944 184.763 207.2C184.763 207.445 184.677 207.653 184.507 207.824C184.347 207.995 184.149 208.08 183.915 208.08ZM190.734 208.096C189.87 208.096 189.102 207.872 188.43 207.424C187.758 206.965 187.23 206.315 186.846 205.472C186.462 204.619 186.27 203.595 186.27 202.4C186.27 201.205 186.462 200.187 186.846 199.344C187.23 198.491 187.758 197.84 188.43 197.392C189.102 196.933 189.87 196.704 190.734 196.704C191.598 196.704 192.366 196.933 193.038 197.392C193.71 197.84 194.238 198.491 194.622 199.344C195.016 200.187 195.214 201.205 195.214 202.4C195.214 203.595 195.016 204.619 194.622 205.472C194.238 206.315 193.71 206.965 193.038 207.424C192.366 207.872 191.598 208.096 190.734 208.096ZM190.734 207.04C191.395 207.04 191.971 206.864 192.462 206.512C192.952 206.149 193.336 205.627 193.614 204.944C193.891 204.251 194.03 203.403 194.03 202.4C194.03 201.397 193.891 200.555 193.614 199.872C193.336 199.179 192.952 198.656 192.462 198.304C191.971 197.941 191.395 197.76 190.734 197.76C190.094 197.76 189.523 197.941 189.022 198.304C188.52 198.656 188.131 199.179 187.854 199.872C187.576 200.555 187.438 201.397 187.438 202.4C187.438 203.403 187.576 204.251 187.854 204.944C188.131 205.627 188.52 206.149 189.022 206.512C189.523 206.864 190.094 207.04 190.734 207.04ZM201.327 208.096C200.463 208.096 199.695 207.872 199.023 207.424C198.351 206.965 197.823 206.315 197.439 205.472C197.055 204.619 196.863 203.595 196.863 202.4C196.863 201.205 197.055 200.187 197.439 199.344C197.823 198.491 198.351 197.84 199.023 197.392C199.695 196.933 200.463 196.704 201.327 196.704C202.191 196.704 202.959 196.933 203.631 197.392C204.303 197.84 204.831 198.491 205.215 199.344C205.61 200.187 205.807 201.205 205.807 202.4C205.807 203.595 205.61 204.619 205.215 205.472C204.831 206.315 204.303 206.965 203.631 207.424C202.959 207.872 202.191 208.096 201.327 208.096ZM201.327 207.04C201.989 207.04 202.565 206.864 203.055 206.512C203.546 206.149 203.93 205.627 204.207 204.944C204.485 204.251 204.623 203.403 204.623 202.4C204.623 201.397 204.485 200.555 204.207 199.872C203.93 199.179 203.546 198.656 203.055 198.304C202.565 197.941 201.989 197.76 201.327 197.76C200.687 197.76 200.117 197.941 199.615 198.304C199.114 198.656 198.725 199.179 198.447 199.872C198.17 200.555 198.031 201.397 198.031 202.4C198.031 203.403 198.17 204.251 198.447 204.944C198.725 205.627 199.114 206.149 199.615 206.512C200.117 206.864 200.687 207.04 201.327 207.04ZM212.637 208V196.8H216.829C217.778 196.8 218.594 196.955 219.277 197.264C219.959 197.563 220.482 198 220.845 198.576C221.218 199.141 221.405 199.829 221.405 200.64C221.405 201.429 221.218 202.112 220.845 202.688C220.482 203.253 219.959 203.691 219.277 204C218.594 204.299 217.778 204.448 216.829 204.448H213.293L213.821 203.904V208H212.637ZM220.285 208L217.405 203.936H218.685L221.581 208H220.285ZM213.821 204L213.293 203.44H216.797C217.917 203.44 218.765 203.195 219.341 202.704C219.927 202.213 220.22 201.525 220.22 200.64C220.22 199.744 219.927 199.051 219.341 198.56C218.765 198.069 217.917 197.824 216.797 197.824H213.293L213.821 197.264V204ZM227.527 208.08C226.652 208.08 225.884 207.899 225.223 207.536C224.562 207.163 224.044 206.656 223.671 206.016C223.298 205.365 223.111 204.624 223.111 203.792C223.111 202.96 223.287 202.224 223.639 201.584C224.002 200.944 224.492 200.443 225.111 200.08C225.74 199.707 226.444 199.52 227.223 199.52C228.012 199.52 228.711 199.701 229.319 200.064C229.938 200.416 230.423 200.917 230.775 201.568C231.127 202.208 231.303 202.949 231.303 203.792C231.303 203.845 231.298 203.904 231.287 203.968C231.287 204.021 231.287 204.08 231.287 204.144H223.975V203.296H230.679L230.231 203.632C230.231 203.024 230.098 202.485 229.831 202.016C229.575 201.536 229.223 201.163 228.775 200.896C228.327 200.629 227.81 200.496 227.223 200.496C226.647 200.496 226.13 200.629 225.671 200.896C225.212 201.163 224.855 201.536 224.599 202.016C224.343 202.496 224.215 203.045 224.215 203.664V203.84C224.215 204.48 224.354 205.045 224.631 205.536C224.919 206.016 225.314 206.395 225.815 206.672C226.327 206.939 226.908 207.072 227.559 207.072C228.071 207.072 228.546 206.981 228.983 206.8C229.431 206.619 229.815 206.341 230.135 205.968L230.775 206.704C230.402 207.152 229.932 207.493 229.367 207.728C228.812 207.963 228.199 208.08 227.527 208.08ZM237.103 208.08C236.271 208.08 235.525 207.899 234.863 207.536C234.213 207.163 233.701 206.656 233.327 206.016C232.954 205.365 232.767 204.624 232.767 203.792C232.767 202.949 232.954 202.208 233.327 201.568C233.701 200.928 234.213 200.427 234.863 200.064C235.525 199.701 236.271 199.52 237.103 199.52C237.818 199.52 238.463 199.659 239.039 199.936C239.615 200.213 240.069 200.629 240.399 201.184L239.551 201.76C239.263 201.333 238.906 201.019 238.479 200.816C238.053 200.613 237.589 200.512 237.087 200.512C236.49 200.512 235.951 200.651 235.471 200.928C234.991 201.195 234.613 201.573 234.335 202.064C234.058 202.555 233.919 203.131 233.919 203.792C233.919 204.453 234.058 205.029 234.335 205.52C234.613 206.011 234.991 206.395 235.471 206.672C235.951 206.939 236.49 207.072 237.087 207.072C237.589 207.072 238.053 206.971 238.479 206.768C238.906 206.565 239.263 206.256 239.551 205.84L240.399 206.416C240.069 206.96 239.615 207.376 239.039 207.664C238.463 207.941 237.818 208.08 237.103 208.08ZM246.058 208.08C245.184 208.08 244.416 207.899 243.754 207.536C243.093 207.163 242.576 206.656 242.202 206.016C241.829 205.365 241.642 204.624 241.642 203.792C241.642 202.96 241.818 202.224 242.17 201.584C242.533 200.944 243.024 200.443 243.642 200.08C244.272 199.707 244.976 199.52 245.754 199.52C246.544 199.52 247.242 199.701 247.85 200.064C248.469 200.416 248.954 200.917 249.306 201.568C249.658 202.208 249.834 202.949 249.834 203.792C249.834 203.845 249.829 203.904 249.818 203.968C249.818 204.021 249.818 204.08 249.818 204.144H242.506V203.296H249.21L248.762 203.632C248.762 203.024 248.629 202.485 248.362 202.016C248.106 201.536 247.754 201.163 247.306 200.896C246.858 200.629 246.341 200.496 245.754 200.496C245.178 200.496 244.661 200.629 244.202 200.896C243.744 201.163 243.386 201.536 243.13 202.016C242.874 202.496 242.746 203.045 242.746 203.664V203.84C242.746 204.48 242.885 205.045 243.162 205.536C243.45 206.016 243.845 206.395 244.346 206.672C244.858 206.939 245.44 207.072 246.09 207.072C246.602 207.072 247.077 206.981 247.514 206.8C247.962 206.619 248.346 206.341 248.666 205.968L249.306 206.704C248.933 207.152 248.464 207.493 247.898 207.728C247.344 207.963 246.73 208.08 246.058 208.08ZM252.147 208V199.6H253.283V208H252.147ZM252.723 197.744C252.488 197.744 252.291 197.664 252.131 197.504C251.971 197.344 251.891 197.152 251.891 196.928C251.891 196.704 251.971 196.517 252.131 196.368C252.291 196.208 252.488 196.128 252.723 196.128C252.957 196.128 253.155 196.203 253.315 196.352C253.475 196.501 253.555 196.688 253.555 196.912C253.555 197.147 253.475 197.344 253.315 197.504C253.165 197.664 252.968 197.744 252.723 197.744ZM258.603 208L254.875 199.6H256.059L259.483 207.392H258.923L262.395 199.6H263.515L259.771 208H258.603ZM268.449 208.08C267.574 208.08 266.806 207.899 266.145 207.536C265.484 207.163 264.966 206.656 264.593 206.016C264.22 205.365 264.033 204.624 264.033 203.792C264.033 202.96 264.209 202.224 264.561 201.584C264.924 200.944 265.414 200.443 266.033 200.08C266.662 199.707 267.366 199.52 268.145 199.52C268.934 199.52 269.633 199.701 270.241 200.064C270.86 200.416 271.345 200.917 271.697 201.568C272.049 202.208 272.225 202.949 272.225 203.792C272.225 203.845 272.22 203.904 272.209 203.968C272.209 204.021 272.209 204.08 272.209 204.144H264.897V203.296H271.601L271.153 203.632C271.153 203.024 271.02 202.485 270.753 202.016C270.497 201.536 270.145 201.163 269.697 200.896C269.249 200.629 268.732 200.496 268.145 200.496C267.569 200.496 267.052 200.629 266.593 200.896C266.134 201.163 265.777 201.536 265.521 202.016C265.265 202.496 265.137 203.045 265.137 203.664V203.84C265.137 204.48 265.276 205.045 265.553 205.536C265.841 206.016 266.236 206.395 266.737 206.672C267.249 206.939 267.83 207.072 268.481 207.072C268.993 207.072 269.468 206.981 269.905 206.8C270.353 206.619 270.737 206.341 271.057 205.968L271.697 206.704C271.324 207.152 270.854 207.493 270.289 207.728C269.734 207.963 269.121 208.08 268.449 208.08ZM277.881 208.08C277.081 208.08 276.361 207.899 275.721 207.536C275.092 207.173 274.596 206.672 274.233 206.032C273.87 205.381 273.689 204.635 273.689 203.792C273.689 202.939 273.87 202.192 274.233 201.552C274.596 200.912 275.092 200.416 275.721 200.064C276.361 199.701 277.081 199.52 277.881 199.52C278.617 199.52 279.273 199.685 279.849 200.016C280.436 200.347 280.9 200.832 281.241 201.472C281.593 202.101 281.769 202.875 281.769 203.792C281.769 204.699 281.598 205.472 281.257 206.112C280.916 206.752 280.452 207.243 279.865 207.584C279.289 207.915 278.628 208.08 277.881 208.08ZM277.961 207.072C278.558 207.072 279.092 206.939 279.561 206.672C280.041 206.395 280.414 206.011 280.681 205.52C280.958 205.019 281.097 204.443 281.097 203.792C281.097 203.131 280.958 202.555 280.681 202.064C280.414 201.573 280.041 201.195 279.561 200.928C279.092 200.651 278.558 200.512 277.961 200.512C277.374 200.512 276.846 200.651 276.377 200.928C275.908 201.195 275.534 201.573 275.257 202.064C274.98 202.555 274.841 203.131 274.841 203.792C274.841 204.443 274.98 205.019 275.257 205.52C275.534 206.011 275.908 206.395 276.377 206.672C276.846 206.939 277.374 207.072 277.961 207.072ZM281.129 208V205.472L281.241 203.776L281.081 202.08V196.128H282.217V208H281.129ZM289.76 208V198.544C289.76 197.797 289.979 197.195 290.416 196.736C290.854 196.277 291.483 196.048 292.304 196.048C292.624 196.048 292.934 196.091 293.232 196.176C293.531 196.261 293.782 196.395 293.984 196.576L293.6 197.424C293.44 197.285 293.254 197.184 293.04 197.12C292.827 197.045 292.598 197.008 292.352 197.008C291.872 197.008 291.504 197.141 291.248 197.408C290.992 197.675 290.864 198.069 290.864 198.592V199.872L290.896 200.4V208H289.76ZM288.256 200.544V199.6H293.456V200.544H288.256ZM294.99 208V199.6H296.078V201.888L295.966 201.488C296.201 200.848 296.596 200.363 297.15 200.032C297.705 199.691 298.393 199.52 299.214 199.52V200.624C299.172 200.624 299.129 200.624 299.086 200.624C299.044 200.613 299.001 200.608 298.958 200.608C298.073 200.608 297.38 200.88 296.878 201.424C296.377 201.957 296.126 202.72 296.126 203.712V208H294.99ZM304.633 208.08C303.822 208.08 303.092 207.899 302.441 207.536C301.801 207.163 301.294 206.656 300.921 206.016C300.548 205.365 300.361 204.624 300.361 203.792C300.361 202.949 300.548 202.208 300.921 201.568C301.294 200.928 301.801 200.427 302.441 200.064C303.081 199.701 303.812 199.52 304.633 199.52C305.465 199.52 306.201 199.701 306.841 200.064C307.492 200.427 307.998 200.928 308.361 201.568C308.734 202.208 308.921 202.949 308.921 203.792C308.921 204.624 308.734 205.365 308.361 206.016C307.998 206.656 307.492 207.163 306.841 207.536C306.19 207.899 305.454 208.08 304.633 208.08ZM304.633 207.072C305.241 207.072 305.78 206.939 306.249 206.672C306.718 206.395 307.086 206.011 307.353 205.52C307.63 205.019 307.769 204.443 307.769 203.792C307.769 203.131 307.63 202.555 307.353 202.064C307.086 201.573 306.718 201.195 306.249 200.928C305.78 200.651 305.246 200.512 304.649 200.512C304.052 200.512 303.518 200.651 303.049 200.928C302.58 201.195 302.206 201.573 301.929 202.064C301.652 202.555 301.513 203.131 301.513 203.792C301.513 204.443 301.652 205.019 301.929 205.52C302.206 206.011 302.58 206.395 303.049 206.672C303.518 206.939 304.046 207.072 304.633 207.072ZM321.736 199.52C322.419 199.52 323.011 199.653 323.512 199.92C324.024 200.176 324.419 200.571 324.696 201.104C324.984 201.637 325.128 202.309 325.128 203.12V208H323.992V203.232C323.992 202.347 323.779 201.68 323.352 201.232C322.936 200.773 322.344 200.544 321.576 200.544C321 200.544 320.499 200.667 320.072 200.912C319.656 201.147 319.331 201.493 319.096 201.952C318.872 202.4 318.76 202.944 318.76 203.584V208H317.624V203.232C317.624 202.347 317.411 201.68 316.984 201.232C316.558 200.773 315.96 200.544 315.192 200.544C314.627 200.544 314.131 200.667 313.704 200.912C313.278 201.147 312.947 201.493 312.712 201.952C312.488 202.4 312.376 202.944 312.376 203.584V208H311.24V199.6H312.328V201.872L312.152 201.472C312.408 200.864 312.819 200.389 313.384 200.048C313.96 199.696 314.638 199.52 315.416 199.52C316.238 199.52 316.936 199.728 317.512 200.144C318.088 200.549 318.462 201.163 318.632 201.984L318.184 201.808C318.43 201.125 318.862 200.576 319.48 200.16C320.11 199.733 320.862 199.52 321.736 199.52ZM332.637 208V196.8H333.613L338.733 205.536H338.221L343.293 196.8H344.269V208H343.133V198.576H343.405L338.733 206.576H338.173L333.469 198.576H333.773V208H332.637ZM347.678 208V199.6H348.814V208H347.678ZM348.254 197.744C348.019 197.744 347.822 197.664 347.662 197.504C347.502 197.344 347.422 197.152 347.422 196.928C347.422 196.704 347.502 196.517 347.662 196.368C347.822 196.208 348.019 196.128 348.254 196.128C348.488 196.128 348.686 196.203 348.846 196.352C349.006 196.501 349.086 196.688 349.086 196.912C349.086 197.147 349.006 197.344 348.846 197.504C348.696 197.664 348.499 197.744 348.254 197.744ZM351.975 208V196.128H353.111V208H351.975ZM359.84 208.08C358.965 208.08 358.197 207.899 357.536 207.536C356.874 207.163 356.357 206.656 355.984 206.016C355.61 205.365 355.424 204.624 355.424 203.792C355.424 202.96 355.6 202.224 355.952 201.584C356.314 200.944 356.805 200.443 357.424 200.08C358.053 199.707 358.757 199.52 359.536 199.52C360.325 199.52 361.024 199.701 361.632 200.064C362.25 200.416 362.736 200.917 363.088 201.568C363.44 202.208 363.616 202.949 363.616 203.792C363.616 203.845 363.61 203.904 363.6 203.968C363.6 204.021 363.6 204.08 363.6 204.144H356.288V203.296H362.992L362.544 203.632C362.544 203.024 362.41 202.485 362.144 202.016C361.888 201.536 361.536 201.163 361.088 200.896C360.64 200.629 360.122 200.496 359.536 200.496C358.96 200.496 358.442 200.629 357.984 200.896C357.525 201.163 357.168 201.536 356.912 202.016C356.656 202.496 356.528 203.045 356.528 203.664V203.84C356.528 204.48 356.666 205.045 356.944 205.536C357.232 206.016 357.626 206.395 358.128 206.672C358.64 206.939 359.221 207.072 359.872 207.072C360.384 207.072 360.858 206.981 361.296 206.8C361.744 206.619 362.128 206.341 362.448 205.968L363.088 206.704C362.714 207.152 362.245 207.493 361.68 207.728C361.125 207.963 360.512 208.08 359.84 208.08ZM368.184 208.08C367.49 208.08 366.834 207.984 366.216 207.792C365.597 207.589 365.112 207.339 364.76 207.04L365.272 206.144C365.613 206.4 366.05 206.624 366.584 206.816C367.117 206.997 367.677 207.088 368.264 207.088C369.064 207.088 369.64 206.965 369.992 206.72C370.344 206.464 370.52 206.128 370.52 205.712C370.52 205.403 370.418 205.163 370.216 204.992C370.024 204.811 369.768 204.677 369.448 204.592C369.128 204.496 368.77 204.416 368.376 204.352C367.981 204.288 367.586 204.213 367.192 204.128C366.808 204.043 366.456 203.92 366.136 203.76C365.816 203.589 365.554 203.36 365.352 203.072C365.16 202.784 365.064 202.4 365.064 201.92C365.064 201.461 365.192 201.051 365.448 200.688C365.704 200.325 366.077 200.043 366.568 199.84C367.069 199.627 367.677 199.52 368.392 199.52C368.936 199.52 369.48 199.595 370.024 199.744C370.568 199.883 371.016 200.069 371.368 200.304L370.872 201.216C370.498 200.96 370.098 200.779 369.672 200.672C369.245 200.555 368.818 200.496 368.392 200.496C367.634 200.496 367.074 200.629 366.712 200.896C366.36 201.152 366.184 201.483 366.184 201.888C366.184 202.208 366.28 202.459 366.472 202.64C366.674 202.821 366.936 202.965 367.256 203.072C367.586 203.168 367.944 203.248 368.328 203.312C368.722 203.376 369.112 203.456 369.496 203.552C369.89 203.637 370.248 203.76 370.568 203.92C370.898 204.069 371.16 204.288 371.352 204.576C371.554 204.853 371.656 205.221 371.656 205.68C371.656 206.171 371.517 206.597 371.24 206.96C370.973 207.312 370.578 207.589 370.056 207.792C369.544 207.984 368.92 208.08 368.184 208.08ZM379.224 201.808H385.144V202.816H379.224V201.808ZM379.352 206.976H386.088V208H378.168V196.8H385.848V197.824H379.352V206.976ZM390.762 208.08C390.069 208.08 389.413 207.984 388.794 207.792C388.175 207.589 387.69 207.339 387.338 207.04L387.85 206.144C388.191 206.4 388.629 206.624 389.162 206.816C389.695 206.997 390.255 207.088 390.842 207.088C391.642 207.088 392.218 206.965 392.57 206.72C392.922 206.464 393.098 206.128 393.098 205.712C393.098 205.403 392.997 205.163 392.794 204.992C392.602 204.811 392.346 204.677 392.026 204.592C391.706 204.496 391.349 204.416 390.954 204.352C390.559 204.288 390.165 204.213 389.77 204.128C389.386 204.043 389.034 203.92 388.714 203.76C388.394 203.589 388.133 203.36 387.93 203.072C387.738 202.784 387.642 202.4 387.642 201.92C387.642 201.461 387.77 201.051 388.026 200.688C388.282 200.325 388.655 200.043 389.146 199.84C389.647 199.627 390.255 199.52 390.97 199.52C391.514 199.52 392.058 199.595 392.602 199.744C393.146 199.883 393.594 200.069 393.946 200.304L393.45 201.216C393.077 200.96 392.677 200.779 392.25 200.672C391.823 200.555 391.397 200.496 390.97 200.496C390.213 200.496 389.653 200.629 389.29 200.896C388.938 201.152 388.762 201.483 388.762 201.888C388.762 202.208 388.858 202.459 389.05 202.64C389.253 202.821 389.514 202.965 389.834 203.072C390.165 203.168 390.522 203.248 390.906 203.312C391.301 203.376 391.69 203.456 392.074 203.552C392.469 203.637 392.826 203.76 393.146 203.92C393.477 204.069 393.738 204.288 393.93 204.576C394.133 204.853 394.234 205.221 394.234 205.68C394.234 206.171 394.095 206.597 393.818 206.96C393.551 207.312 393.157 207.589 392.634 207.792C392.122 207.984 391.498 208.08 390.762 208.08ZM398.974 208.08C398.185 208.08 397.577 207.867 397.15 207.44C396.724 207.013 396.51 206.411 396.51 205.632V197.744H397.646V205.568C397.646 206.059 397.769 206.437 398.014 206.704C398.27 206.971 398.633 207.104 399.102 207.104C399.604 207.104 400.02 206.96 400.35 206.672L400.75 207.488C400.526 207.691 400.254 207.84 399.934 207.936C399.625 208.032 399.305 208.08 398.974 208.08ZM395.006 200.544V199.6H400.206V200.544H395.006ZM407.106 199.52C407.789 199.52 408.386 199.653 408.898 199.92C409.421 200.176 409.826 200.571 410.114 201.104C410.413 201.637 410.562 202.309 410.562 203.12V208H409.426V203.232C409.426 202.347 409.202 201.68 408.754 201.232C408.317 200.773 407.698 200.544 406.898 200.544C406.301 200.544 405.778 200.667 405.33 200.912C404.893 201.147 404.552 201.493 404.306 201.952C404.072 202.4 403.954 202.944 403.954 203.584V208H402.818V196.128H403.954V201.904L403.73 201.472C403.997 200.864 404.424 200.389 405.01 200.048C405.597 199.696 406.296 199.52 407.106 199.52ZM417.199 208.08C416.324 208.08 415.556 207.899 414.895 207.536C414.234 207.163 413.716 206.656 413.343 206.016C412.97 205.365 412.783 204.624 412.783 203.792C412.783 202.96 412.959 202.224 413.311 201.584C413.674 200.944 414.164 200.443 414.783 200.08C415.412 199.707 416.116 199.52 416.895 199.52C417.684 199.52 418.383 199.701 418.991 200.064C419.61 200.416 420.095 200.917 420.447 201.568C420.799 202.208 420.975 202.949 420.975 203.792C420.975 203.845 420.97 203.904 420.959 203.968C420.959 204.021 420.959 204.08 420.959 204.144H413.647V203.296H420.351L419.903 203.632C419.903 203.024 419.77 202.485 419.503 202.016C419.247 201.536 418.895 201.163 418.447 200.896C417.999 200.629 417.482 200.496 416.895 200.496C416.319 200.496 415.802 200.629 415.343 200.896C414.884 201.163 414.527 201.536 414.271 202.016C414.015 202.496 413.887 203.045 413.887 203.664V203.84C413.887 204.48 414.026 205.045 414.303 205.536C414.591 206.016 414.986 206.395 415.487 206.672C415.999 206.939 416.58 207.072 417.231 207.072C417.743 207.072 418.218 206.981 418.655 206.8C419.103 206.619 419.487 206.341 419.807 205.968L420.447 206.704C420.074 207.152 419.604 207.493 419.039 207.728C418.484 207.963 417.871 208.08 417.199 208.08ZM423.287 208V199.6H424.375V201.888L424.263 201.488C424.498 200.848 424.892 200.363 425.447 200.032C426.002 199.691 426.69 199.52 427.511 199.52V200.624C427.468 200.624 427.426 200.624 427.383 200.624C427.34 200.613 427.298 200.608 427.255 200.608C426.37 200.608 425.676 200.88 425.175 201.424C424.674 201.957 424.423 202.72 424.423 203.712V208H423.287Z" fill="white"/>
<defs>
<linearGradient id="paint0_linear_2_738" x1="249.5" y1="0" x2="249.5" y2="50.3462" gradientUnits="userSpaceOnUse">
<stop stop-color="white"/>
<stop offset="1" stop-color="white" stop-opacity="0"/>
</linearGradient>
<linearGradient id="paint1_linear_2_738" x1="249.5" y1="80" x2="249.5" y2="136.269" gradientUnits="userSpaceOnUse">
<stop stop-color="white"/>
<stop offset="1" stop-color="white" stop-opacity="0"/>
</linearGradient>
<linearGradient id="paint2_linear_2_738" x1="249.5" y1="168" x2="249.5" y2="218.346" gradientUnits="userSpaceOnUse">
<stop stop-color="white"/>
<stop offset="1" stop-color="white" stop-opacity="0"/>
</linearGradient>
</defs>
</svg>
