<svg width="222" height="351" viewBox="0 0 222 351" fill="none" xmlns="http://www.w3.org/2000/svg">
<g clip-path="url(#clip0_271_159)">
<rect x="222.004" y="0.60791" width="350" height="222" rx="16" transform="rotate(90 222.004 0.60791)" fill="#00252E"/>
<path opacity="0.53" d="M221.889 108.002L222.004 329.566C222.004 331.487 221.743 333.357 221.251 335.122L122.712 236.834C119.763 233.9 117.86 230.318 117.054 226.548C115.527 219.802 117.41 212.419 122.702 207.156L221.889 108.002Z" fill="url(#paint0_linear_271_159)"/>
<path opacity="0.53" d="M78.3142 255.587L174.5 351.524L19.1616 351.608C7.5842 351.618 -1.80742 342.241 -1.81788 330.691L-1.82834 305.994L48.5915 255.597C56.7804 247.389 70.1044 247.379 78.3142 255.587Z" fill="url(#paint1_linear_271_159)"/>
<path opacity="0.53" d="M0.0879789 169.217L30.3022 199.344C38.5225 207.531 38.533 220.836 30.3232 229.023L0.140273 259.192L0.0879789 169.217Z" fill="url(#paint2_linear_271_159)"/>
<path opacity="0.53" d="M19.9628 -1.2979L180.635 -1.38143C180.855 4.24723 178.826 9.95939 174.506 14.2618L46.9977 141.716C38.7984 149.924 25.4639 149.934 17.2541 141.737L-0.943498 123.587L-0.995793 19.6503C-0.995793 15.5254 0.206922 11.6512 2.2986 8.41391C6.01132 2.56595 12.5269 -1.2979 19.9628 -1.2979Z" fill="url(#paint3_linear_271_159)"/>
<path d="M29.5017 29.3039L29.5017 32.8048C29.5017 33.8995 29.8062 34.7232 30.8829 35.1892L46.2062 41.9092L46.2062 37.1402C46.2062 37.1402 44.1508 36.349 43.7158 36.1864L43.7158 30.3769C44.2922 30.236 46.2062 29.8241 46.2062 29.8241L46.2062 25.6079L29.5017 29.3039ZM40.2901 34.8858C39.333 34.5172 35.6028 33.1082 35.6028 33.1082C35.6028 33.1082 34.624 32.718 34.0259 32.4904L35.4614 32.187C35.4614 32.187 39.4418 31.309 40.2901 31.1356L40.2901 34.8858Z" fill="white"/>
<path d="M34.1455 47.9571C34.9176 47.9679 35.4397 46.9816 36.2118 45.3992C37.4081 42.7871 38.8436 41.5731 40.7577 41.6056C44.2269 41.6273 46.4673 44.7272 46.4673 49.4853C46.4455 51.523 46.0322 53.4739 45.5755 54.5361L41.8344 53.8967L42.0954 53.3222C42.7153 51.8373 42.9763 50.8618 42.9763 49.0518C42.9763 47.7511 42.4651 46.353 41.345 46.3313C40.6055 46.3204 40.0834 46.9274 39.2678 48.6833C38.4739 50.4175 37.1362 52.6936 34.7436 52.6611C31.5028 52.6394 29.219 49.4745 29.219 44.9981C29.219 43.2423 29.5887 41.8224 29.9259 40.9337L33.5365 41.5514L33.3516 41.9633C33.0145 42.8087 32.6991 43.8818 32.7099 45.3667C32.6991 47.1334 33.4495 47.9571 34.1455 47.9571Z" fill="white"/>
<path d="M29.5126 54.5578L46.2063 57.3867L46.2063 61.9172L42.9654 61.3645L37.6365 60.4649L29.5235 59.0992L29.5126 54.5578Z" fill="white"/>
<path d="M38.115 70.8375C34.2542 72.3549 31.046 75.975 29.7192 81.4485L29.3821 81.3943L29.3821 74.36C29.4256 73.4062 29.7192 72.6367 30.7415 72.3765L38.115 70.8375Z" fill="white"/>
<path d="M29.5344 60.9309L46.1954 68.0736L46.1954 72.8642L32.2749 76.9287C34.1564 74.0131 37.1362 71.5311 39.2025 70.6532L40.9317 70.1762L29.5344 65.7324L29.5344 60.9309Z" fill="white"/>
<path d="M28.1477 291.459L47.5059 291.448C49.7897 291.448 51.6602 293.313 51.6602 295.578L51.682 322.219C51.682 324.506 49.8114 326.37 47.5385 326.37L28.1804 326.392C25.8857 326.392 24.026 324.528 24.026 322.252L24.0042 295.6C24.0042 293.323 25.853 291.459 28.1477 291.459Z" fill="#F6C859"/>
<path d="M47.9844 312.92C47.9844 313.071 47.9083 313.212 47.7669 313.277C47.5711 313.375 47.321 313.299 47.2231 313.104C46.9186 312.518 46.3531 311.727 45.3852 311.261C44.1454 310.676 42.7969 310.828 42.6772 311.077C42.6446 311.142 42.7751 311.38 42.8512 311.532C43.047 311.912 43.3189 312.443 43.1014 313.05C42.8947 313.646 42.3618 313.938 42.1008 314.079C40.4152 315.001 36.0433 315.282 33.8682 314.318C33.1504 313.993 32.7154 313.559 32.5849 313.017C32.4544 312.464 32.6828 312.009 32.8785 311.651C33.0308 311.359 33.0961 311.207 33.0417 311.109C32.8133 310.73 31.4212 310.741 30.3228 311.272C29.3441 311.738 28.7785 312.529 28.4849 313.115C28.387 313.31 28.1369 313.396 27.9411 313.288C27.7454 313.19 27.6584 312.941 27.7671 312.746C28.126 312.052 28.8003 311.099 29.9857 310.546C31.1494 309.993 33.1613 309.733 33.7486 310.698C34.0422 311.185 33.8029 311.651 33.6181 312.02C33.4767 312.302 33.3353 312.573 33.4006 312.833C33.4876 313.19 33.89 313.429 34.2162 313.581C36.1194 314.426 40.252 314.177 41.7311 313.375C41.9812 313.234 42.2531 313.071 42.351 312.789C42.4489 312.518 42.3292 312.258 42.1443 311.901C41.9595 311.543 41.7637 311.153 41.9595 310.73C42.4053 309.82 44.352 309.885 45.7441 310.535C46.9295 311.099 47.6038 312.042 47.9627 312.735C47.9735 312.8 47.9844 312.865 47.9844 312.92Z" fill="#7D662D"/>
<path d="M34.5968 314.144L34.5968 321.417C34.5968 321.645 34.4119 321.818 34.1944 321.818C33.9769 321.818 33.7921 321.645 33.7921 321.428L33.7921 314.155C33.7921 313.928 33.9769 313.754 34.1944 313.754C34.4119 313.743 34.5968 313.917 34.5968 314.144Z" fill="#7D662D"/>
<path d="M41.9051 314.144L41.9051 321.417C41.9051 321.645 41.7202 321.818 41.5027 321.818C41.2743 321.818 41.1003 321.634 41.1003 321.417L41.1003 314.144C41.1003 313.917 41.2852 313.743 41.5027 313.743C41.7202 313.733 41.9051 313.917 41.9051 314.144Z" fill="#7D662D"/>
<path d="M47.9735 304.433C47.9735 304.498 47.9626 304.563 47.93 304.617C47.5711 305.311 46.8968 306.265 45.7114 306.818C44.3194 307.479 42.3727 307.533 41.9268 306.633C41.7202 306.211 41.9268 305.81 42.1008 305.463C42.2857 305.094 42.4053 304.834 42.3075 304.574C42.1987 304.271 41.8833 304.097 41.6876 303.989C40.2085 303.187 36.065 302.948 34.1727 303.794C33.8464 303.945 33.4332 304.184 33.357 304.541C33.3027 304.758 33.0852 304.899 32.8677 304.845C32.6501 304.791 32.5196 304.574 32.5631 304.357C32.6936 303.815 33.1178 303.382 33.8356 303.057C36.0106 302.081 40.3934 302.363 42.0682 303.284C42.3292 303.425 42.8621 303.718 43.0687 304.314C43.2862 304.921 43.0144 305.452 42.8186 305.831C42.7425 305.983 42.6228 306.221 42.6446 306.286C42.7642 306.525 44.1128 306.688 45.3525 306.091C46.3313 305.625 46.8968 304.834 47.1905 304.249C47.2884 304.054 47.5385 303.967 47.7343 304.075C47.8974 304.14 47.9735 304.281 47.9735 304.433Z" fill="#7D662D"/>
<path d="M32.9655 306.059C32.9655 306.232 32.8568 306.384 32.6937 306.438C30.0836 307.305 28.0716 305.278 27.7454 304.628C27.6366 304.433 27.7236 304.184 27.9194 304.086C28.1151 303.989 28.3653 304.064 28.4631 304.26C28.6154 304.552 30.2141 306.416 32.4326 305.679C32.6502 305.604 32.8785 305.723 32.9438 305.94C32.9655 305.972 32.9655 306.015 32.9655 306.059Z" fill="#7D662D"/>
<path d="M34.586 295.946L34.586 303.219C34.586 303.447 34.4011 303.62 34.1836 303.62C33.9661 303.62 33.7812 303.436 33.7812 303.219L33.7812 295.946C33.7812 295.719 33.9661 295.545 34.1836 295.545C34.4011 295.545 34.586 295.73 34.586 295.946Z" fill="#7D662D"/>
<path d="M41.8833 295.946L41.8833 303.219C41.8833 303.447 41.6984 303.62 41.4809 303.62C41.2526 303.62 41.0786 303.436 41.0786 303.219L41.0786 295.946C41.0786 295.719 41.2634 295.545 41.4809 295.545C41.7093 295.545 41.8833 295.719 41.8833 295.946Z" fill="#7D662D"/>
<path d="M103.933 319.319L105.7 319.319L105.596 321.836L107.614 320.374L108.555 321.951L106.286 323.194L108.555 324.436L107.614 325.982L105.596 324.551L105.711 327.037L103.943 327.037L104.079 324.551L102.029 325.992L101.088 324.447L103.357 323.204L101.088 321.961L102.029 320.385L104.079 321.847L103.933 319.319Z" fill="white"/>
<path d="M103.922 306.38L105.69 306.38L105.585 308.897L107.603 307.435L108.545 309.012L106.275 310.255L108.545 311.497L107.603 313.043L105.585 311.612L105.7 314.098L103.933 314.098L104.069 311.612L102.019 313.053L101.077 311.508L103.347 310.265L101.077 309.022L102.019 307.446L104.069 308.908L103.922 306.38Z" fill="white"/>
<path d="M103.922 293.432L105.69 293.432L105.585 295.938L107.604 294.476L108.545 296.053L106.275 297.295L108.545 298.538L107.604 300.084L105.585 298.653L105.7 301.138L103.933 301.138L104.069 298.653L102.019 300.094L101.077 298.549L103.347 297.306L101.077 296.063L102.019 294.486L104.069 295.948L103.922 293.432Z" fill="white"/>
<path d="M103.912 280.493L105.679 280.493L105.575 283.01L107.593 281.548L108.534 283.125L106.265 284.367L108.534 285.61L107.593 287.155L105.575 285.725L105.69 288.21L103.922 288.21L104.058 285.725L102.008 287.166L101.067 285.62L103.337 284.378L101.067 283.135L102.008 281.558L104.058 283.02L103.912 280.493Z" fill="white"/>
<path d="M103.901 258.574L105.669 258.574L105.564 261.091L107.583 259.629L108.524 261.205L106.254 262.448L108.524 263.691L107.583 265.236L105.564 263.806L105.679 266.291L103.912 266.291L104.048 263.806L101.998 265.247L101.057 263.701L103.326 262.459L101.057 261.216L101.998 259.639L104.048 261.101L103.901 258.574Z" fill="white"/>
<path d="M103.891 245.625L105.658 245.625L105.554 248.141L107.572 246.679L108.513 248.256L106.244 249.499L108.513 250.742L107.572 252.287L105.554 250.856L105.669 253.342L103.901 253.342L104.037 250.856L101.987 252.298L101.046 250.752L103.316 249.509L101.046 248.267L101.987 246.69L104.037 248.152L103.891 245.625Z" fill="white"/>
<path d="M103.891 232.686L105.658 232.686L105.554 235.203L107.572 233.741L108.513 235.318L106.244 236.561L108.513 237.803L107.572 239.349L105.554 237.918L105.669 240.404L103.901 240.404L104.037 237.918L101.987 239.359L101.046 237.814L103.316 236.571L101.046 235.328L101.987 233.752L104.037 235.214L103.891 232.686Z" fill="white"/>
<path d="M103.88 219.737L105.648 219.737L105.543 222.243L107.562 220.781L108.503 222.358L106.233 223.601L108.503 224.843L107.562 226.389L105.543 224.958L105.658 227.444L103.891 227.444L104.027 224.958L101.977 226.399L101.036 224.854L103.305 223.611L101.036 222.368L101.977 220.792L104.027 222.254L103.88 219.737Z" fill="white"/>
<path d="M103.87 197.828L105.637 197.828L105.533 200.345L107.551 198.883L108.492 200.46L106.223 201.702L108.492 202.945L107.551 204.491L105.533 203.06L105.648 205.545L103.88 205.545L104.016 203.06L101.966 204.501L101.025 202.956L103.295 201.713L101.025 200.47L101.966 198.893L104.016 200.355L103.87 197.828Z" fill="white"/>
<path d="M103.859 184.879L105.627 184.879L105.522 187.396L107.541 185.934L108.482 187.511L106.213 188.753L108.482 189.996L107.541 191.541L105.522 190.111L105.637 192.596L103.87 192.596L104.006 190.111L101.956 191.552L101.015 190.006L103.284 188.764L101.015 187.521L101.956 185.944L104.006 187.406L103.859 184.879Z" fill="white"/>
<path d="M103.849 171.93L105.616 171.93L105.512 174.447L107.53 172.985L108.472 174.562L106.202 175.804L108.472 177.047L107.53 178.592L105.512 177.162L105.627 179.647L103.859 179.647L103.995 177.162L101.945 178.603L101.004 177.057L103.274 175.815L101.004 174.572L101.945 172.995L103.995 174.457L103.849 171.93Z" fill="white"/>
<path d="M103.849 158.992L105.616 158.992L105.512 161.498L107.53 160.036L108.472 161.613L106.202 162.856L108.472 164.098L107.53 165.644L105.512 164.213L105.627 166.698L103.859 166.698L103.995 164.213L101.945 165.654L101.004 164.109L103.274 162.866L101.004 161.623L101.945 160.046L103.995 161.508L103.849 158.992Z" fill="white"/>
<path d="M120.697 145.374L118.595 145.374L111.63 138.566C109.8 136.749 108.241 135.83 106.934 135.83C105.846 135.83 104.999 136.164 104.393 136.822C103.786 137.48 103.483 138.294 103.483 139.255C103.483 141.082 104.351 142.398 106.087 143.223L104.822 145.374C103.567 144.769 102.615 143.923 101.977 142.847C101.328 141.772 101.004 140.581 101.004 139.276C101.004 137.657 101.538 136.247 102.604 135.057C103.671 133.856 105.114 133.261 106.913 133.261C108.869 133.261 111.002 134.409 113.303 136.707L118.229 141.636L118.229 132.906L120.718 132.906L120.697 145.374Z" fill="white"/>
<path d="M109.267 121.314C109.538 119.842 110.176 118.63 111.17 117.69C112.164 116.75 113.429 116.281 114.956 116.281C116.838 116.281 118.324 116.928 119.411 118.212C120.499 119.497 121.043 121.063 121.043 122.901C121.043 124.374 120.708 125.679 120.039 126.817C119.369 127.956 118.397 128.77 117.121 129.25L115.845 127.099C117.633 126.525 118.522 125.126 118.522 122.901C118.522 121.711 118.208 120.729 117.581 119.977C116.953 119.225 116.075 118.849 114.956 118.849C113.837 118.849 112.948 119.225 112.32 119.977C111.682 120.729 111.369 121.711 111.369 122.901L111.369 123.559L109.789 124.583L103.734 120.113L103.734 128.697L101.329 128.697L101.318 117.106L103.577 117.116L109.267 121.314Z" fill="white"/>
<path d="M114.59 97.212L116.995 97.212L116.995 99.5616L120.677 99.5616L120.677 102.131L116.995 102.131L116.995 111.989L114.59 111.989L101.318 105.065L101.318 102.308L114.59 109.232L114.59 102.141L109.12 102.141L109.12 99.5721L114.59 99.5721L114.59 97.212Z" fill="white"/>
<path d="M108.869 87.1244C108.869 85.2969 109.403 83.7618 110.48 82.4983C111.557 81.2347 113.042 80.6081 114.945 80.6081C116.828 80.6081 118.313 81.2556 119.401 82.54C120.488 83.8245 121.032 85.3909 121.032 87.2288C121.032 88.7013 120.677 90.0171 119.965 91.1762C119.254 92.3354 118.229 93.1499 116.88 93.6094L115.636 91.4268C116.577 91.1658 117.288 90.675 117.78 89.9335C118.271 89.1921 118.512 88.294 118.512 87.2288C118.512 86.0175 118.198 85.0254 117.571 84.2735C116.943 83.5217 116.065 83.1457 114.945 83.1457C113.826 83.1457 112.937 83.5216 112.31 84.284C111.672 85.0358 111.358 86.007 111.358 87.1871L111.358 92.6487L101.318 91.9594L101.308 81.36L103.713 81.36L103.713 89.6098L108.859 89.944L108.869 87.1244Z" fill="white"/>
<path d="M193.004 91.4759L180.944 91.4759L181.556 90.8999L181.556 94.4459L180.404 94.4459L180.404 90.1799L193.004 90.1799L193.004 91.4759ZM193.004 87.402L192.086 87.402L186.956 82.164C186.488 81.684 186.08 81.324 185.732 81.084C185.372 80.844 185.036 80.682 184.724 80.598C184.412 80.514 184.118 80.472 183.842 80.472C183.11 80.472 182.534 80.724 182.114 81.228C181.694 81.72 181.484 82.452 181.484 83.424C181.484 84.168 181.598 84.828 181.826 85.404C182.054 85.968 182.408 86.454 182.888 86.862L182.096 87.78C181.52 87.288 181.076 86.658 180.764 85.89C180.452 85.122 180.296 84.264 180.296 83.316C180.296 82.464 180.434 81.726 180.71 81.102C180.974 80.478 181.364 79.998 181.88 79.662C182.396 79.314 183.002 79.14 183.698 79.14C184.106 79.14 184.508 79.2 184.904 79.32C185.3 79.428 185.72 79.632 186.164 79.932C186.596 80.22 187.088 80.646 187.64 81.21L192.356 86.016L191.852 86.376L191.852 78.564L193.004 78.564L193.004 87.402ZM194.804 78.1478L177.848 72.2078L177.848 71.0378L194.804 76.9778L194.804 78.1478ZM193.004 70.9665L192.086 70.9665L186.956 65.7285C186.488 65.2485 186.08 64.8885 185.732 64.6485C185.372 64.4085 185.036 64.2465 184.724 64.1625C184.412 64.0785 184.118 64.0365 183.842 64.0365C183.11 64.0365 182.534 64.2885 182.114 64.7925C181.694 65.2845 181.484 66.0165 181.484 66.9885C181.484 67.7325 181.598 68.3925 181.826 68.9685C182.054 69.5325 182.408 70.0185 182.888 70.4265L182.096 71.3445C181.52 70.8525 181.076 70.2225 180.764 69.4545C180.452 68.6865 180.296 67.8285 180.296 66.8805C180.296 66.0285 180.434 65.2905 180.71 64.6665C180.974 64.0425 181.364 63.5625 181.88 63.2265C182.396 62.8785 183.002 62.7045 183.698 62.7045C184.106 62.7045 184.508 62.7645 184.904 62.8845C185.3 62.9925 185.72 63.1965 186.164 63.4965C186.596 63.7845 187.088 64.2105 187.64 64.7745L192.356 69.5805L191.852 69.9405L191.852 62.1285L193.004 62.1285L193.004 70.9665ZM189.692 61.1223L188.756 61.1223L180.404 54.4443L180.404 53.0043L188.756 59.6283L188.54 60.3303L188.54 50.1963L189.692 50.1963L189.692 61.1223ZM193.004 54.0123L189.692 54.0123L188.54 53.9763L185.624 53.9763L185.624 52.7163L193.004 52.7163L193.004 54.0123Z" fill="white"/>
<path d="M160.36 92.4479L160.36 88.0079L161.116 88.0079L161.116 92.4479L160.36 92.4479ZM164.236 92.3519L164.236 87.2999L165.004 87.2999L165.004 93.2399L156.604 93.2399L156.604 87.4799L157.372 87.4799L157.372 92.3519L164.236 92.3519ZM165.004 86.5283L161.548 83.8643L161.968 83.8763L158.704 86.4083L158.704 85.4483L161.404 83.3723L161.392 83.7323L158.704 81.6563L158.704 80.7203L162.004 83.2763L161.548 83.2643L165.004 80.5763L165.004 81.5483L162.124 83.7443L162.172 83.4083L165.004 85.5683L165.004 86.5283ZM165.004 79.1582L158.704 79.1582L158.704 78.3062L165.004 78.3062L165.004 79.1582ZM157.312 78.7262C157.312 78.9022 157.252 79.0502 157.132 79.1702C157.012 79.2902 156.868 79.3502 156.7 79.3502C156.532 79.3502 156.392 79.2902 156.28 79.1702C156.16 79.0502 156.1 78.9022 156.1 78.7262C156.1 78.5502 156.156 78.4022 156.268 78.2822C156.38 78.1622 156.52 78.1022 156.688 78.1022C156.864 78.1022 157.012 78.1622 157.132 78.2822C157.252 78.3942 157.312 78.5422 157.312 78.7262ZM165.064 72.6835C165.064 73.2275 164.94 73.7195 164.692 74.1595C164.436 74.5995 164.072 74.9515 163.6 75.2155C163.12 75.4715 162.536 75.5995 161.848 75.5995C161.16 75.5995 160.58 75.4715 160.108 75.2155C159.628 74.9595 159.264 74.6115 159.016 74.1715C158.768 73.7315 158.644 73.2355 158.644 72.6835C158.644 72.0835 158.78 71.5475 159.052 71.0755C159.316 70.5955 159.692 70.2195 160.18 69.9475C160.66 69.6755 161.216 69.5395 161.848 69.5395C162.488 69.5395 163.048 69.6755 163.528 69.9475C164.008 70.2195 164.384 70.5955 164.656 71.0755C164.928 71.5475 165.064 72.0835 165.064 72.6835ZM167.332 75.9355L158.704 75.9355L158.704 75.1195L160.6 75.1195L161.86 75.2035L163.132 75.0835L167.332 75.0835L167.332 75.9355ZM164.308 72.7435C164.308 72.2955 164.208 71.8955 164.008 71.5435C163.8 71.1915 163.512 70.9115 163.144 70.7035C162.768 70.4955 162.336 70.3915 161.848 70.3915C161.36 70.3915 160.932 70.4955 160.564 70.7035C160.196 70.9115 159.908 71.1915 159.7 71.5435C159.492 71.8955 159.388 72.2955 159.388 72.7435C159.388 73.1915 159.492 73.5955 159.7 73.9555C159.908 74.3075 160.196 74.5875 160.564 74.7955C160.932 74.9955 161.36 75.0955 161.848 75.0955C162.336 75.0955 162.768 74.9955 163.144 74.7955C163.512 74.5875 163.8 74.3075 164.008 73.9555C164.208 73.5955 164.308 73.1915 164.308 72.7435ZM165.004 67.8027L158.704 67.8027L158.704 66.9867L160.42 66.9867L160.12 67.0707C159.64 66.8947 159.276 66.5987 159.028 66.1827C158.772 65.7667 158.644 65.2507 158.644 64.6347L159.472 64.6347C159.472 64.6667 159.472 64.6987 159.472 64.7307C159.464 64.7627 159.46 64.7947 159.46 64.8267C159.46 65.4907 159.664 66.0107 160.072 66.3867C160.472 66.7627 161.044 66.9507 161.788 66.9507L165.004 66.9507L165.004 67.8027ZM167.392 62.7625C167.392 63.0585 167.344 63.3425 167.248 63.6145C167.152 63.8785 167.008 64.1065 166.816 64.2985L166.18 63.9025C166.332 63.7425 166.448 63.5705 166.528 63.3865C166.616 63.1945 166.66 62.9825 166.66 62.7505C166.66 62.4705 166.58 62.2305 166.42 62.0305C166.268 61.8225 165.996 61.6265 165.604 61.4425L164.68 61.0345L164.548 60.9385L158.704 58.3465L158.704 57.5065L165.76 60.6625C166.168 60.8385 166.492 61.0345 166.732 61.2505C166.972 61.4585 167.14 61.6865 167.236 61.9345C167.34 62.1825 167.392 62.4585 167.392 62.7625ZM165.184 61.0825L158.704 63.9865L158.704 63.0985L164.488 60.5305L165.184 61.0825ZM165.004 52.986L156.604 52.986L156.604 49.566C156.604 48.67 156.784 47.886 157.144 47.214C157.496 46.534 157.988 46.006 158.62 45.63C159.252 45.254 159.98 45.066 160.804 45.066C161.628 45.066 162.356 45.254 162.988 45.63C163.62 46.006 164.116 46.534 164.476 47.214C164.828 47.886 165.004 48.67 165.004 49.566L165.004 52.986ZM164.236 52.098L164.236 49.614C164.236 48.87 164.092 48.226 163.804 47.682C163.508 47.13 163.104 46.702 162.592 46.398C162.072 46.094 161.476 45.942 160.804 45.942C160.124 45.942 159.528 46.094 159.016 46.398C158.504 46.702 158.104 47.13 157.816 47.682C157.52 48.226 157.372 48.87 157.372 49.614L157.372 52.098L164.236 52.098ZM165.004 39.3039L163.612 39.3039L163.384 39.3399L161.056 39.3399C160.52 39.3399 160.108 39.4919 159.82 39.7959C159.532 40.0919 159.388 40.5359 159.388 41.1279C159.388 41.5359 159.456 41.9239 159.592 42.2919C159.728 42.6599 159.908 42.9719 160.132 43.2279L159.496 43.6119C159.224 43.2919 159.016 42.9079 158.872 42.4599C158.72 42.0119 158.644 41.5399 158.644 41.0439C158.644 40.2279 158.848 39.5999 159.256 39.1599C159.656 38.7119 160.268 38.4879 161.092 38.4879L165.004 38.4879L165.004 39.3039ZM165.064 41.4759C165.064 41.9479 164.988 42.3599 164.836 42.7119C164.676 43.0559 164.46 43.3199 164.188 43.5039C163.908 43.6879 163.588 43.7799 163.228 43.7799C162.9 43.7799 162.604 43.7039 162.34 43.5519C162.068 43.3919 161.852 43.1359 161.692 42.7839C161.524 42.4239 161.44 41.9439 161.44 41.3439L161.44 39.1719L162.076 39.1719L162.076 41.3199C162.076 41.9279 162.184 42.3519 162.4 42.5919C162.616 42.8239 162.884 42.9399 163.204 42.9399C163.564 42.9399 163.852 42.7999 164.068 42.5199C164.284 42.2399 164.392 41.8479 164.392 41.3439C164.392 40.8639 164.284 40.4519 164.068 40.1079C163.844 39.7559 163.524 39.4999 163.108 39.3399L163.696 39.1479C164.112 39.3079 164.444 39.5879 164.692 39.9879C164.94 40.3799 165.064 40.8759 165.064 41.4759ZM165.064 34.1818C165.064 34.7738 164.904 35.2298 164.584 35.5498C164.264 35.8698 163.812 36.0298 163.228 36.0298L157.312 36.0298L157.312 35.1778L163.18 35.1778C163.548 35.1778 163.832 35.0858 164.032 34.9018C164.232 34.7098 164.332 34.4378 164.332 34.0858C164.332 33.7098 164.224 33.3978 164.008 33.1498L164.62 32.8498C164.772 33.0178 164.884 33.2218 164.956 33.4618C165.028 33.6938 165.064 33.9338 165.064 34.1818ZM159.412 37.1578L158.704 37.1578L158.704 33.2578L159.412 33.2578L159.412 37.1578ZM165.064 28.8455C165.064 29.5015 164.928 30.0775 164.656 30.5735C164.376 31.0695 163.996 31.4575 163.516 31.7375C163.028 32.0175 162.472 32.1575 161.848 32.1575C161.224 32.1575 160.672 32.0255 160.192 31.7615C159.712 31.4895 159.336 31.1215 159.064 30.6575C158.784 30.1855 158.644 29.6575 158.644 29.0735C158.644 28.4815 158.78 27.9575 159.052 27.5015C159.316 27.0375 159.692 26.6735 160.18 26.4095C160.66 26.1455 161.216 26.0135 161.848 26.0135C161.888 26.0135 161.932 26.0175 161.98 26.0255C162.02 26.0255 162.064 26.0255 162.112 26.0255L162.112 31.5095L161.476 31.5095L161.476 26.4815L161.728 26.8175C161.272 26.8175 160.868 26.9175 160.516 27.1175C160.156 27.3095 159.876 27.5735 159.676 27.9095C159.476 28.2455 159.376 28.6335 159.376 29.0735C159.376 29.5055 159.476 29.8935 159.676 30.2375C159.876 30.5815 160.156 30.8495 160.516 31.0415C160.876 31.2335 161.288 31.3295 161.752 31.3295L161.884 31.3295C162.364 31.3295 162.788 31.2255 163.156 31.0175C163.516 30.8015 163.8 30.5055 164.008 30.1295C164.208 29.7455 164.308 29.3095 164.308 28.8215C164.308 28.4375 164.24 28.0815 164.104 27.7535C163.968 27.4175 163.76 27.1295 163.48 26.8895L164.032 26.4095C164.368 26.6895 164.624 27.0415 164.8 27.4655C164.976 27.8815 165.064 28.3415 165.064 28.8455Z" fill="white"/>
<path d="M192.088 348.467L194.004 348.467L194.004 356.492L181.322 356.492L181.322 354.224L192.088 354.224L192.088 348.467ZM192.897 339.828C193.758 340.642 194.189 341.738 194.189 343.115C194.189 344.492 193.758 345.587 192.897 346.402C192.03 347.216 190.846 347.624 189.346 347.624C187.852 347.624 186.671 347.213 185.804 346.393C184.931 345.573 184.494 344.48 184.494 343.115C184.494 341.744 184.931 340.651 185.804 339.836C186.671 339.016 187.852 338.606 189.346 338.606C190.846 338.606 192.03 339.013 192.897 339.828ZM191.64 344.785C192.185 344.375 192.457 343.818 192.457 343.115C192.457 342.412 192.185 341.855 191.64 341.445C191.095 341.035 190.33 340.83 189.346 340.83C188.367 340.83 187.606 341.035 187.061 341.445C186.51 341.855 186.235 342.412 186.235 343.115C186.235 343.812 186.51 344.369 187.061 344.785C187.606 345.195 188.367 345.4 189.346 345.4C190.33 345.4 191.095 345.195 191.64 344.785ZM194.004 337.138L181.322 337.138L181.322 334.95L194.004 334.95L194.004 337.138ZM192.501 329.685C192.501 329.058 192.317 328.531 191.948 328.103C191.573 327.669 191.107 327.453 190.55 327.453L189.838 327.453L189.97 329.606C190.005 330.133 190.137 330.543 190.366 330.836C190.588 331.124 190.884 331.267 191.253 331.267C191.634 331.267 191.939 331.124 192.167 330.836C192.39 330.543 192.501 330.16 192.501 329.685ZM194.154 330.344C194.154 331.252 193.893 332 193.371 332.585C192.85 333.166 192.173 333.456 191.341 333.456C190.515 333.456 189.862 333.151 189.381 332.542C188.901 331.926 188.625 331.05 188.555 329.914L188.414 327.453L187.746 327.453C187.26 327.453 186.882 327.608 186.613 327.918C186.343 328.223 186.208 328.648 186.208 329.193C186.208 329.703 186.323 330.119 186.551 330.441C186.78 330.763 187.09 330.959 187.483 331.03L187.483 333.06C186.598 333.013 185.88 332.635 185.329 331.926C184.773 331.211 184.494 330.271 184.494 329.105C184.494 327.951 184.776 327.028 185.338 326.336C185.901 325.639 186.651 325.291 187.588 325.291L194.004 325.291L194.004 327.4L192.519 327.4L192.519 327.444C193.017 327.708 193.415 328.106 193.714 328.639C194.007 329.172 194.154 329.741 194.154 330.344ZM183.159 317.433L187.492 317.433L187.492 314.875C187.492 314.155 187.301 313.595 186.92 313.197C186.539 312.798 186.006 312.599 185.321 312.599C184.653 312.599 184.125 312.807 183.739 313.223C183.352 313.639 183.159 314.205 183.159 314.919L183.159 317.433ZM189.232 317.433L194.004 317.433L194.004 319.701L181.322 319.701L181.322 314.665C181.322 313.299 181.676 312.227 182.385 311.448C183.088 310.668 184.049 310.279 185.268 310.279C186.117 310.279 186.867 310.49 187.518 310.912C188.162 311.333 188.619 311.919 188.889 312.669L194.004 309.901L194.004 312.485L189.232 314.981L189.232 317.433ZM192.897 301.314C193.758 302.128 194.189 303.224 194.189 304.601C194.189 305.978 193.758 307.074 192.897 307.888C192.03 308.703 190.846 309.11 189.346 309.11C187.852 309.11 186.671 308.7 185.804 307.879C184.931 307.059 184.494 305.966 184.494 304.601C184.494 303.23 184.931 302.137 185.804 301.323C186.671 300.502 187.852 300.092 189.346 300.092C190.846 300.092 192.03 300.5 192.897 301.314ZM191.64 306.271C192.185 305.861 192.457 305.304 192.457 304.601C192.457 303.898 192.185 303.341 191.64 302.931C191.095 302.521 190.33 302.316 189.346 302.316C188.367 302.316 187.606 302.521 187.061 302.931C186.51 303.341 186.235 303.898 186.235 304.601C186.235 305.298 186.51 305.855 187.061 306.271C187.606 306.681 188.367 306.886 189.346 306.886C190.33 306.886 191.095 306.681 191.64 306.271ZM187.36 298.853C186.504 298.853 185.813 298.507 185.285 297.816C184.758 297.125 184.494 296.213 184.494 295.083C184.494 293.993 184.764 293.108 185.303 292.428C185.836 291.743 186.534 291.385 187.395 291.356L187.395 293.395C186.991 293.43 186.674 293.6 186.446 293.905C186.217 294.209 186.103 294.617 186.103 295.126C186.103 295.607 186.208 295.994 186.419 296.287C186.624 296.58 186.897 296.726 187.237 296.726C187.752 296.726 188.118 296.281 188.335 295.39L188.704 293.729C188.921 292.797 189.226 292.132 189.618 291.734C190.011 291.335 190.553 291.136 191.244 291.136C192.123 291.136 192.835 291.505 193.38 292.244C193.919 292.982 194.189 293.94 194.189 295.118C194.189 296.278 193.925 297.212 193.398 297.921C192.865 298.625 192.153 299.014 191.262 299.09L191.262 296.937C191.69 296.873 192.018 296.679 192.246 296.357C192.475 296.029 192.589 295.589 192.589 295.039C192.589 294.505 192.49 294.086 192.29 293.782C192.085 293.471 191.81 293.316 191.464 293.316C191.195 293.316 190.981 293.413 190.823 293.606C190.659 293.793 190.518 294.113 190.401 294.564L190.005 296.26C189.601 297.989 188.719 298.853 187.36 298.853ZM186.191 285.722C186.191 286.332 186.402 286.841 186.824 287.251C187.24 287.656 187.776 287.881 188.432 287.928L188.432 283.578C187.77 283.601 187.231 283.809 186.815 284.202C186.399 284.594 186.191 285.101 186.191 285.722ZM191.218 283.569L191.218 281.521C192.103 281.662 192.821 282.11 193.371 282.866C193.916 283.622 194.189 284.547 194.189 285.643C194.189 287.038 193.761 288.133 192.906 288.93C192.044 289.727 190.869 290.125 189.381 290.125C187.905 290.125 186.721 289.73 185.83 288.939C184.94 288.142 184.494 287.073 184.494 285.731C184.494 284.413 184.919 283.367 185.769 282.593C186.613 281.82 187.743 281.433 189.161 281.433L189.873 281.433L189.873 287.946L190.005 287.946C190.755 287.946 191.359 287.735 191.816 287.313C192.273 286.885 192.501 286.314 192.501 285.599C192.501 285.095 192.387 284.662 192.159 284.298C191.924 283.929 191.611 283.686 191.218 283.569Z" fill="white"/>
<path d="M166.076 352.592C166.076 353.224 165.972 353.808 165.764 354.344C165.548 354.88 165.248 355.344 164.864 355.736C164.48 356.128 164.028 356.436 163.508 356.66C162.988 356.876 162.42 356.984 161.804 356.984C161.188 356.984 160.62 356.876 160.1 356.66C159.58 356.436 159.128 356.128 158.744 355.736C158.36 355.336 158.064 354.868 157.856 354.332C157.64 353.796 157.532 353.212 157.532 352.58C157.532 351.972 157.636 351.4 157.844 350.864C158.044 350.328 158.348 349.876 158.756 349.508L159.32 350.072C158.968 350.416 158.716 350.796 158.564 351.212C158.404 351.628 158.324 352.076 158.324 352.556C158.324 353.06 158.412 353.528 158.588 353.96C158.756 354.392 159 354.768 159.32 355.088C159.632 355.408 160 355.66 160.424 355.844C160.84 356.02 161.3 356.108 161.804 356.108C162.308 356.108 162.772 356.02 163.196 355.844C163.612 355.66 163.98 355.408 164.3 355.088C164.612 354.768 164.856 354.392 165.032 353.96C165.2 353.528 165.284 353.06 165.284 352.556C165.284 352.076 165.204 351.628 165.044 351.212C164.884 350.796 164.628 350.416 164.276 350.072L164.84 349.508C165.248 349.876 165.556 350.328 165.764 350.864C165.972 351.4 166.076 351.976 166.076 352.592ZM166.004 343.941L164.612 343.941L164.384 343.977L162.056 343.977C161.52 343.977 161.108 344.129 160.82 344.433C160.532 344.729 160.388 345.173 160.388 345.765C160.388 346.173 160.456 346.561 160.592 346.929C160.728 347.297 160.908 347.609 161.132 347.865L160.496 348.249C160.224 347.929 160.016 347.545 159.872 347.097C159.72 346.649 159.644 346.177 159.644 345.681C159.644 344.865 159.848 344.237 160.256 343.797C160.656 343.349 161.268 343.125 162.092 343.125L166.004 343.125L166.004 343.941ZM166.064 346.113C166.064 346.585 165.988 346.997 165.836 347.349C165.676 347.693 165.46 347.957 165.188 348.141C164.908 348.325 164.588 348.417 164.228 348.417C163.9 348.417 163.604 348.341 163.34 348.189C163.068 348.029 162.852 347.773 162.692 347.421C162.524 347.061 162.44 346.581 162.44 345.981L162.44 343.809L163.076 343.809L163.076 345.957C163.076 346.565 163.184 346.989 163.4 347.229C163.616 347.461 163.884 347.577 164.204 347.577C164.564 347.577 164.852 347.437 165.068 347.157C165.284 346.877 165.392 346.485 165.392 345.981C165.392 345.501 165.284 345.089 165.068 344.745C164.844 344.393 164.524 344.137 164.108 343.977L164.696 343.785C165.112 343.945 165.444 344.225 165.692 344.625C165.94 345.017 166.064 345.513 166.064 346.113ZM166.004 340.811L159.704 340.811L159.704 339.995L161.42 339.995L161.12 340.079C160.64 339.903 160.276 339.607 160.028 339.191C159.772 338.775 159.644 338.259 159.644 337.643L160.472 337.643C160.472 337.675 160.472 337.707 160.472 337.739C160.464 337.771 160.46 337.803 160.46 337.835C160.46 338.499 160.664 339.019 161.072 339.395C161.472 339.771 162.044 339.959 162.788 339.959L166.004 339.959L166.004 340.811ZM166.064 333.638C166.064 334.238 165.928 334.778 165.656 335.258C165.384 335.73 165.008 336.102 164.528 336.374C164.04 336.646 163.48 336.782 162.848 336.782C162.208 336.782 161.648 336.646 161.168 336.374C160.688 336.102 160.316 335.73 160.052 335.258C159.78 334.778 159.644 334.238 159.644 333.638C159.644 333.086 159.768 332.594 160.016 332.162C160.264 331.722 160.628 331.374 161.108 331.118C161.58 330.854 162.16 330.722 162.848 330.722C163.528 330.722 164.108 330.85 164.588 331.106C165.068 331.362 165.436 331.71 165.692 332.15C165.94 332.582 166.064 333.078 166.064 333.638ZM165.308 333.578C165.308 333.13 165.208 332.73 165.008 332.378C164.8 332.018 164.512 331.738 164.144 331.538C163.768 331.33 163.336 331.226 162.848 331.226C162.352 331.226 161.92 331.33 161.552 331.538C161.184 331.738 160.9 332.018 160.7 332.378C160.492 332.73 160.388 333.13 160.388 333.578C160.388 334.018 160.492 334.414 160.7 334.766C160.9 335.118 161.184 335.398 161.552 335.606C161.92 335.814 162.352 335.918 162.848 335.918C163.336 335.918 163.768 335.814 164.144 335.606C164.512 335.398 164.8 335.118 165.008 334.766C165.208 334.414 165.308 334.018 165.308 333.578ZM166.004 331.202L164.108 331.202L162.836 331.118L161.564 331.238L157.1 331.238L157.1 330.386L166.004 330.386L166.004 331.202ZM157.604 318.549L157.604 317.673L166.004 317.673L166.004 318.549L157.604 318.549ZM166.004 323.805L166.004 324.693L157.604 324.693L157.604 323.805L166.004 323.805ZM162.128 318.465L162.128 323.901L161.348 323.901L161.348 318.465L162.128 318.465ZM166.064 312.543C166.064 313.151 165.928 313.699 165.656 314.187C165.376 314.667 164.996 315.047 164.516 315.327C164.028 315.607 163.472 315.747 162.848 315.747C162.216 315.747 161.66 315.607 161.18 315.327C160.7 315.047 160.324 314.667 160.052 314.187C159.78 313.707 159.644 313.159 159.644 312.543C159.644 311.919 159.78 311.367 160.052 310.887C160.324 310.399 160.7 310.019 161.18 309.747C161.66 309.467 162.216 309.327 162.848 309.327C163.472 309.327 164.028 309.467 164.516 309.747C164.996 310.019 165.376 310.399 165.656 310.887C165.928 311.375 166.064 311.927 166.064 312.543ZM165.308 312.543C165.308 312.087 165.208 311.683 165.008 311.331C164.8 310.979 164.512 310.703 164.144 310.503C163.768 310.295 163.336 310.191 162.848 310.191C162.352 310.191 161.92 310.295 161.552 310.503C161.184 310.703 160.9 310.979 160.7 311.331C160.492 311.683 160.388 312.083 160.388 312.531C160.388 312.979 160.492 313.379 160.7 313.731C160.9 314.083 161.184 314.363 161.552 314.571C161.92 314.779 162.352 314.883 162.848 314.883C163.336 314.883 163.768 314.779 164.144 314.571C164.512 314.363 164.8 314.083 165.008 313.731C165.208 313.379 165.308 312.983 165.308 312.543ZM166.004 307.588L157.1 307.588L157.1 306.736L166.004 306.736L166.004 307.588ZM166.064 301.857C166.064 302.457 165.928 302.997 165.656 303.477C165.384 303.949 165.008 304.321 164.528 304.593C164.04 304.865 163.48 305.001 162.848 305.001C162.208 305.001 161.648 304.865 161.168 304.593C160.688 304.321 160.316 303.949 160.052 303.477C159.78 302.997 159.644 302.457 159.644 301.857C159.644 301.305 159.768 300.813 160.016 300.381C160.264 299.941 160.628 299.593 161.108 299.337C161.58 299.073 162.16 298.941 162.848 298.941C163.528 298.941 164.108 299.069 164.588 299.325C165.068 299.581 165.436 299.929 165.692 300.369C165.94 300.801 166.064 301.297 166.064 301.857ZM165.308 301.797C165.308 301.349 165.208 300.949 165.008 300.597C164.8 300.237 164.512 299.957 164.144 299.757C163.768 299.549 163.336 299.445 162.848 299.445C162.352 299.445 161.92 299.549 161.552 299.757C161.184 299.957 160.9 300.237 160.7 300.597C160.492 300.949 160.388 301.349 160.388 301.797C160.388 302.237 160.492 302.633 160.7 302.985C160.9 303.337 161.184 303.617 161.552 303.825C161.92 304.033 162.352 304.137 162.848 304.137C163.336 304.137 163.768 304.033 164.144 303.825C164.512 303.617 164.8 303.337 165.008 302.985C165.208 302.633 165.308 302.237 165.308 301.797ZM166.004 299.421L164.108 299.421L162.836 299.337L161.564 299.457L157.1 299.457L157.1 298.605L166.004 298.605L166.004 299.421ZM166.064 293.556C166.064 294.212 165.928 294.788 165.656 295.284C165.376 295.78 164.996 296.168 164.516 296.448C164.028 296.728 163.472 296.868 162.848 296.868C162.224 296.868 161.672 296.736 161.192 296.472C160.712 296.2 160.336 295.832 160.064 295.368C159.784 294.896 159.644 294.368 159.644 293.784C159.644 293.192 159.78 292.668 160.052 292.212C160.316 291.748 160.692 291.384 161.18 291.12C161.66 290.856 162.216 290.724 162.848 290.724C162.888 290.724 162.932 290.728 162.98 290.736C163.02 290.736 163.064 290.736 163.112 290.736L163.112 296.22L162.476 296.22L162.476 291.192L162.728 291.528C162.272 291.528 161.868 291.628 161.516 291.828C161.156 292.02 160.876 292.284 160.676 292.62C160.476 292.956 160.376 293.344 160.376 293.784C160.376 294.216 160.476 294.604 160.676 294.948C160.876 295.292 161.156 295.56 161.516 295.752C161.876 295.944 162.288 296.04 162.752 296.04L162.884 296.04C163.364 296.04 163.788 295.936 164.156 295.728C164.516 295.512 164.8 295.216 165.008 294.84C165.208 294.456 165.308 294.02 165.308 293.532C165.308 293.148 165.24 292.792 165.104 292.464C164.968 292.128 164.76 291.84 164.48 291.6L165.032 291.12C165.368 291.4 165.624 291.752 165.8 292.176C165.976 292.592 166.064 293.052 166.064 293.556ZM166.004 288.99L159.704 288.99L159.704 288.174L161.42 288.174L161.12 288.258C160.64 288.082 160.276 287.786 160.028 287.37C159.772 286.954 159.644 286.438 159.644 285.822L160.472 285.822C160.472 285.854 160.472 285.886 160.472 285.918C160.464 285.95 160.46 285.982 160.46 286.014C160.46 286.678 160.664 287.198 161.072 287.574C161.472 287.95 162.044 288.138 162.788 288.138L166.004 288.138L166.004 288.99ZM159.644 277.817C159.644 277.305 159.744 276.857 159.944 276.473C160.136 276.081 160.432 275.777 160.832 275.561C161.232 275.337 161.736 275.225 162.344 275.225L166.004 275.225L166.004 276.077L162.428 276.077C161.764 276.077 161.264 276.245 160.928 276.581C160.584 276.909 160.412 277.373 160.412 277.973C160.412 278.421 160.504 278.813 160.688 279.149C160.864 279.477 161.124 279.733 161.468 279.917C161.804 280.093 162.212 280.181 162.692 280.181L166.004 280.181L166.004 281.033L159.704 281.033L159.704 280.217L161.432 280.217L161.108 280.349C160.652 280.149 160.296 279.829 160.04 279.389C159.776 278.949 159.644 278.425 159.644 277.817ZM166.004 268.976L164.612 268.976L164.384 269.012L162.056 269.012C161.52 269.012 161.108 269.164 160.82 269.468C160.532 269.764 160.388 270.208 160.388 270.8C160.388 271.208 160.456 271.596 160.592 271.964C160.728 272.332 160.908 272.644 161.132 272.9L160.496 273.284C160.224 272.964 160.016 272.58 159.872 272.132C159.72 271.684 159.644 271.212 159.644 270.716C159.644 269.9 159.848 269.272 160.256 268.832C160.656 268.384 161.268 268.16 162.092 268.16L166.004 268.16L166.004 268.976ZM166.064 271.148C166.064 271.62 165.988 272.032 165.836 272.384C165.676 272.728 165.46 272.992 165.188 273.176C164.908 273.36 164.588 273.452 164.228 273.452C163.9 273.452 163.604 273.376 163.34 273.224C163.068 273.064 162.852 272.808 162.692 272.456C162.524 272.096 162.44 271.616 162.44 271.016L162.44 268.844L163.076 268.844L163.076 270.992C163.076 271.6 163.184 272.024 163.4 272.264C163.616 272.496 163.884 272.612 164.204 272.612C164.564 272.612 164.852 272.472 165.068 272.192C165.284 271.912 165.392 271.52 165.392 271.016C165.392 270.536 165.284 270.124 165.068 269.78C164.844 269.428 164.524 269.172 164.108 269.012L164.696 268.82C165.112 268.98 165.444 269.26 165.692 269.66C165.94 270.052 166.064 270.548 166.064 271.148ZM159.644 257.974C159.644 257.462 159.744 257.018 159.944 256.642C160.136 256.258 160.432 255.962 160.832 255.754C161.232 255.538 161.736 255.43 162.344 255.43L166.004 255.43L166.004 256.282L162.428 256.282C161.764 256.282 161.264 256.442 160.928 256.762C160.584 257.074 160.412 257.518 160.412 258.094C160.412 258.526 160.504 258.902 160.688 259.222C160.864 259.534 161.124 259.778 161.468 259.954C161.804 260.122 162.212 260.206 162.692 260.206L166.004 260.206L166.004 261.058L162.428 261.058C161.764 261.058 161.264 261.218 160.928 261.538C160.584 261.858 160.412 262.306 160.412 262.882C160.412 263.306 160.504 263.678 160.688 263.998C160.864 264.318 161.124 264.566 161.468 264.742C161.804 264.91 162.212 264.994 162.692 264.994L166.004 264.994L166.004 265.846L159.704 265.846L159.704 265.03L161.408 265.03L161.108 265.162C160.652 264.97 160.296 264.662 160.04 264.238C159.776 263.806 159.644 263.298 159.644 262.714C159.644 262.098 159.8 261.574 160.112 261.142C160.416 260.71 160.876 260.43 161.492 260.302L161.36 260.638C160.848 260.454 160.436 260.13 160.124 259.666C159.804 259.194 159.644 258.63 159.644 257.974ZM166.064 250.443C166.064 251.099 165.928 251.675 165.656 252.171C165.376 252.667 164.996 253.055 164.516 253.335C164.028 253.615 163.472 253.755 162.848 253.755C162.224 253.755 161.672 253.623 161.192 253.359C160.712 253.087 160.336 252.719 160.064 252.255C159.784 251.783 159.644 251.255 159.644 250.671C159.644 250.079 159.78 249.555 160.052 249.099C160.316 248.635 160.692 248.271 161.18 248.007C161.66 247.743 162.216 247.611 162.848 247.611C162.888 247.611 162.932 247.615 162.98 247.623C163.02 247.623 163.064 247.623 163.112 247.623L163.112 253.107L162.476 253.107L162.476 248.079L162.728 248.415C162.272 248.415 161.868 248.515 161.516 248.715C161.156 248.907 160.876 249.171 160.676 249.507C160.476 249.843 160.376 250.231 160.376 250.671C160.376 251.103 160.476 251.491 160.676 251.835C160.876 252.179 161.156 252.447 161.516 252.639C161.876 252.831 162.288 252.927 162.752 252.927L162.884 252.927C163.364 252.927 163.788 252.823 164.156 252.615C164.516 252.399 164.8 252.103 165.008 251.727C165.208 251.343 165.308 250.907 165.308 250.419C165.308 250.035 165.24 249.679 165.104 249.351C164.968 249.015 164.76 248.727 164.48 248.487L165.032 248.007C165.368 248.287 165.624 248.639 165.8 249.063C165.976 249.479 166.064 249.939 166.064 250.443Z" fill="white"/>
</g>
<defs>
<linearGradient id="paint0_linear_271_159" x1="169.306" y1="335.147" x2="169.182" y2="108.031" gradientUnits="userSpaceOnUse">
<stop stop-color="#02CAFD"/>
<stop offset="1" stop-color="#83F8A6"/>
</linearGradient>
<linearGradient id="paint1_linear_271_159" x1="86.3914" y1="351.619" x2="86.3764" y2="249.449" gradientUnits="userSpaceOnUse">
<stop stop-color="#02CAFD"/>
<stop offset="1" stop-color="#83F8A6"/>
</linearGradient>
<linearGradient id="paint2_linear_271_159" x1="18.2925" y1="259.202" x2="18.236" y2="169.229" gradientUnits="userSpaceOnUse">
<stop stop-color="#02CAFD"/>
<stop offset="1" stop-color="#83F8A6"/>
</linearGradient>
<linearGradient id="paint3_linear_271_159" x1="89.8849" y1="147.895" x2="89.8538" y2="-1.36216" gradientUnits="userSpaceOnUse">
<stop stop-color="#02CAFD"/>
<stop offset="1" stop-color="#83F8A6"/>
</linearGradient>
<clipPath id="clip0_271_159">
<rect x="222.004" y="0.60791" width="350" height="222" rx="16" transform="rotate(90 222.004 0.60791)" fill="white"/>
</clipPath>
</defs>
</svg>
