<svg width="441" height="267" viewBox="0 0 441 267" fill="none" xmlns="http://www.w3.org/2000/svg">
<path d="M71 16C71 7.16344 78.1634 0 87 0H441V64H87C78.1634 64 71 56.8366 71 48V16Z" fill="#202020"/>
<path d="M71.5 16C71.5 7.43959 78.4396 0.5 87 0.5H440.5V63.5H87C78.4396 63.5 71.5 56.5604 71.5 48V16Z" stroke="white" stroke-opacity="0.01"/>
<path d="M71.5 16C71.5 7.43959 78.4396 0.5 87 0.5H440.5V63.5H87C78.4396 63.5 71.5 56.5604 71.5 48V16Z" stroke="url(#paint0_radial_253_243)" stroke-opacity="0.12"/>
<rect x="87" y="12" width="40" height="40" rx="8" fill="#2B4089"/>
<path d="M116 26.375C116 29.0674 111.971 31.25 107 31.25C102.029 31.25 98 29.0674 98 26.375C98 23.6826 102.029 21.5 107 21.5C111.971 21.5 116 23.6826 116 26.375Z" fill="white"/>
<path d="M107 32.75C109.685 32.75 112.191 32.1637 114.078 31.1411C114.768 30.7673 115.425 30.3043 115.975 29.7567C115.991 29.8783 116 30.0011 116 30.125C116 32.8174 111.971 35 107 35C102.029 35 98 32.8174 98 30.125C98 30.0011 98.0085 29.8783 98.0253 29.7567C98.5752 30.3043 99.2316 30.7673 99.9216 31.1411C101.809 32.1637 104.315 32.75 107 32.75Z" fill="white"/>
<path d="M107 36.5C109.685 36.5 112.191 35.9137 114.078 34.8911C114.768 34.5173 115.425 34.0543 115.975 33.5067C115.991 33.6283 116 33.7511 116 33.875C116 36.5674 111.971 38.75 107 38.75C102.029 38.75 98 36.5674 98 33.875C98 33.7511 98.0085 33.6283 98.0253 33.5067C98.5752 34.0543 99.2316 34.5173 99.9216 34.8911C101.809 35.9137 104.315 36.5 107 36.5Z" fill="white"/>
<path d="M107 40.25C109.685 40.25 112.191 39.6637 114.078 38.6411C114.768 38.2673 115.425 37.8043 115.975 37.2567C115.991 37.3783 116 37.5011 116 37.625C116 40.3174 111.971 42.5 107 42.5C102.029 42.5 98 40.3174 98 37.625C98 37.5011 98.0085 37.3783 98.0253 37.2567C98.5752 37.8043 99.2316 38.2673 99.9216 38.6411C101.809 39.6637 104.315 40.25 107 40.25Z" fill="white"/>
<path d="M151.36 39.16C150.293 39.16 149.307 38.9867 148.4 38.64C147.507 38.28 146.727 37.78 146.06 37.14C145.407 36.4867 144.893 35.7267 144.52 34.86C144.147 33.9933 143.96 33.04 143.96 32C143.96 30.96 144.147 30.0067 144.52 29.14C144.893 28.2733 145.413 27.52 146.08 26.88C146.747 26.2267 147.527 25.7267 148.42 25.38C149.327 25.02 150.313 24.84 151.38 24.84C152.46 24.84 153.453 25.0267 154.36 25.4C155.28 25.76 156.06 26.3 156.7 27.02L155.4 28.28C154.867 27.72 154.267 27.3067 153.6 27.04C152.933 26.76 152.22 26.62 151.46 26.62C150.673 26.62 149.94 26.7533 149.26 27.02C148.593 27.2867 148.013 27.66 147.52 28.14C147.027 28.62 146.64 29.1933 146.36 29.86C146.093 30.5133 145.96 31.2267 145.96 32C145.96 32.7733 146.093 33.4933 146.36 34.16C146.64 34.8133 147.027 35.38 147.52 35.86C148.013 36.34 148.593 36.7133 149.26 36.98C149.94 37.2467 150.673 37.38 151.46 37.38C152.22 37.38 152.933 37.2467 153.6 36.98C154.267 36.7 154.867 36.2733 155.4 35.7L156.7 36.96C156.06 37.68 155.28 38.2267 154.36 38.6C153.453 38.9733 152.453 39.16 151.36 39.16ZM159.273 39V28.4H161.113V31.28L160.933 30.56C161.226 29.8267 161.72 29.2667 162.413 28.88C163.106 28.4933 163.96 28.3 164.973 28.3V30.16C164.893 30.1467 164.813 30.14 164.733 30.14C164.666 30.14 164.6 30.14 164.533 30.14C163.506 30.14 162.693 30.4467 162.093 31.06C161.493 31.6733 161.193 32.56 161.193 33.72V39H159.273ZM168.229 43C167.723 43 167.229 42.9133 166.749 42.74C166.269 42.58 165.856 42.34 165.509 42.02L166.329 40.58C166.596 40.8333 166.889 41.0267 167.209 41.16C167.529 41.2933 167.869 41.36 168.229 41.36C168.696 41.36 169.083 41.24 169.389 41C169.696 40.76 169.983 40.3333 170.249 39.72L170.909 38.26L171.109 38.02L175.269 28.4H177.149L172.009 40.06C171.703 40.8067 171.356 41.3933 170.969 41.82C170.596 42.2467 170.183 42.5467 169.729 42.72C169.276 42.9067 168.776 43 168.229 43ZM170.749 39.34L165.909 28.4H167.909L172.029 37.84L170.749 39.34ZM184.561 39.12C183.681 39.12 182.874 38.92 182.141 38.52C181.421 38.1067 180.841 37.5 180.401 36.7C179.974 35.9 179.761 34.9 179.761 33.7C179.761 32.5 179.968 31.5 180.381 30.7C180.808 29.9 181.381 29.3 182.101 28.9C182.834 28.5 183.654 28.3 184.561 28.3C185.601 28.3 186.521 28.5267 187.321 28.98C188.121 29.4333 188.754 30.0667 189.221 30.88C189.688 31.68 189.921 32.62 189.921 33.7C189.921 34.78 189.688 35.7267 189.221 36.54C188.754 37.3533 188.121 37.9867 187.321 38.44C186.521 38.8933 185.601 39.12 184.561 39.12ZM178.941 42.88V28.4H180.781V31.26L180.661 33.72L180.861 36.18V42.88H178.941ZM184.401 37.44C185.081 37.44 185.688 37.2867 186.221 36.98C186.768 36.6733 187.194 36.24 187.501 35.68C187.821 35.1067 187.981 34.4467 187.981 33.7C187.981 32.94 187.821 32.2867 187.501 31.74C187.194 31.18 186.768 30.7467 186.221 30.44C185.688 30.1333 185.081 29.98 184.401 29.98C183.734 29.98 183.128 30.1333 182.581 30.44C182.048 30.7467 181.621 31.18 181.301 31.74C180.994 32.2867 180.841 32.94 180.841 33.7C180.841 34.4467 180.994 35.1067 181.301 35.68C181.621 36.24 182.048 36.6733 182.581 36.98C183.128 37.2867 183.734 37.44 184.401 37.44ZM196.214 39.12C195.147 39.12 194.321 38.8333 193.734 38.26C193.147 37.6867 192.854 36.8667 192.854 35.8V26.08H194.774V35.72C194.774 36.2933 194.914 36.7333 195.194 37.04C195.487 37.3467 195.901 37.5 196.434 37.5C197.034 37.5 197.534 37.3333 197.934 37L198.534 38.38C198.241 38.6333 197.887 38.82 197.474 38.94C197.074 39.06 196.654 39.12 196.214 39.12ZM191.054 29.98V28.4H197.814V29.98H191.054ZM205.044 39.12C203.977 39.12 203.03 38.8867 202.204 38.42C201.377 37.9533 200.724 37.3133 200.244 36.5C199.764 35.6733 199.524 34.74 199.524 33.7C199.524 32.6467 199.764 31.7133 200.244 30.9C200.724 30.0867 201.377 29.4533 202.204 29C203.03 28.5333 203.977 28.3 205.044 28.3C206.097 28.3 207.037 28.5333 207.864 29C208.704 29.4533 209.357 30.0867 209.824 30.9C210.304 31.7 210.544 32.6333 210.544 33.7C210.544 34.7533 210.304 35.6867 209.824 36.5C209.357 37.3133 208.704 37.9533 207.864 38.42C207.037 38.8867 206.097 39.12 205.044 39.12ZM205.044 37.44C205.724 37.44 206.33 37.2867 206.864 36.98C207.41 36.6733 207.837 36.24 208.144 35.68C208.45 35.1067 208.604 34.4467 208.604 33.7C208.604 32.94 208.45 32.2867 208.144 31.74C207.837 31.18 207.41 30.7467 206.864 30.44C206.33 30.1333 205.724 29.98 205.044 29.98C204.364 29.98 203.757 30.1333 203.224 30.44C202.69 30.7467 202.264 31.18 201.944 31.74C201.624 32.2867 201.464 32.94 201.464 33.7C201.464 34.4467 201.624 35.1067 201.944 35.68C202.264 36.24 202.69 36.6733 203.224 36.98C203.757 37.2867 204.364 37.44 205.044 37.44ZM217.819 39.12C216.739 39.12 215.772 38.8867 214.919 38.42C214.079 37.9533 213.419 37.3133 212.939 36.5C212.459 35.6867 212.219 34.7533 212.219 33.7C212.219 32.6467 212.459 31.7133 212.939 30.9C213.419 30.0867 214.079 29.4533 214.919 29C215.772 28.5333 216.739 28.3 217.819 28.3C218.779 28.3 219.632 28.4933 220.379 28.88C221.139 29.2533 221.726 29.8133 222.139 30.56L220.679 31.5C220.332 30.98 219.906 30.6 219.399 30.36C218.906 30.1067 218.372 29.98 217.799 29.98C217.106 29.98 216.486 30.1333 215.939 30.44C215.392 30.7467 214.959 31.18 214.639 31.74C214.319 32.2867 214.159 32.94 214.159 33.7C214.159 34.46 214.319 35.12 214.639 35.68C214.959 36.24 215.392 36.6733 215.939 36.98C216.486 37.2867 217.106 37.44 217.799 37.44C218.372 37.44 218.906 37.32 219.399 37.08C219.906 36.8267 220.332 36.44 220.679 35.92L222.139 36.84C221.726 37.5733 221.139 38.14 220.379 38.54C219.632 38.9267 218.779 39.12 217.819 39.12ZM229.085 39.12C228.178 39.12 227.378 38.9533 226.685 38.62C226.005 38.2867 225.471 37.78 225.085 37.1C224.711 36.4067 224.525 35.54 224.525 34.5V28.4H226.445V34.28C226.445 35.32 226.691 36.1 227.185 36.62C227.691 37.14 228.398 37.4 229.305 37.4C229.971 37.4 230.551 37.2667 231.045 37C231.538 36.72 231.918 36.32 232.185 35.8C232.451 35.2667 232.585 34.6267 232.585 33.88V28.4H234.505V39H232.685V36.14L232.985 36.9C232.638 37.6067 232.118 38.1533 231.425 38.54C230.731 38.9267 229.951 39.12 229.085 39.12ZM238.16 39V28.4H240V31.28L239.82 30.56C240.113 29.8267 240.607 29.2667 241.3 28.88C241.993 28.4933 242.847 28.3 243.86 28.3V30.16C243.78 30.1467 243.7 30.14 243.62 30.14C243.553 30.14 243.487 30.14 243.42 30.14C242.393 30.14 241.58 30.4467 240.98 31.06C240.38 31.6733 240.08 32.56 240.08 33.72V39H238.16ZM246.226 39V28.4H248.066V31.28L247.886 30.56C248.18 29.8267 248.673 29.2667 249.366 28.88C250.06 28.4933 250.913 28.3 251.926 28.3V30.16C251.846 30.1467 251.766 30.14 251.686 30.14C251.62 30.14 251.553 30.14 251.486 30.14C250.46 30.14 249.646 30.4467 249.046 31.06C248.446 31.6733 248.146 32.56 248.146 33.72V39H246.226ZM258.915 39.12C257.782 39.12 256.782 38.8867 255.915 38.42C255.062 37.9533 254.395 37.3133 253.915 36.5C253.448 35.6867 253.215 34.7533 253.215 33.7C253.215 32.6467 253.442 31.7133 253.895 30.9C254.362 30.0867 254.995 29.4533 255.795 29C256.608 28.5333 257.522 28.3 258.535 28.3C259.562 28.3 260.468 28.5267 261.255 28.98C262.042 29.4333 262.655 30.0733 263.095 30.9C263.548 31.7133 263.775 32.6667 263.775 33.76C263.775 33.84 263.768 33.9333 263.755 34.04C263.755 34.1467 263.748 34.2467 263.735 34.34H254.715V32.96H262.735L261.955 33.44C261.968 32.76 261.828 32.1533 261.535 31.62C261.242 31.0867 260.835 30.6733 260.315 30.38C259.808 30.0733 259.215 29.92 258.535 29.92C257.868 29.92 257.275 30.0733 256.755 30.38C256.235 30.6733 255.828 31.0933 255.535 31.64C255.242 32.1733 255.095 32.7867 255.095 33.48V33.8C255.095 34.5067 255.255 35.14 255.575 35.7C255.908 36.2467 256.368 36.6733 256.955 36.98C257.542 37.2867 258.215 37.44 258.975 37.44C259.602 37.44 260.168 37.3333 260.675 37.12C261.195 36.9067 261.648 36.5867 262.035 36.16L263.095 37.4C262.615 37.96 262.015 38.3867 261.295 38.68C260.588 38.9733 259.795 39.12 258.915 39.12ZM272.101 28.3C272.968 28.3 273.728 28.4667 274.381 28.8C275.048 29.1333 275.568 29.64 275.941 30.32C276.314 31 276.501 31.86 276.501 32.9V39H274.581V33.12C274.581 32.0933 274.328 31.32 273.821 30.8C273.328 30.28 272.628 30.02 271.721 30.02C271.041 30.02 270.448 30.1533 269.941 30.42C269.434 30.6867 269.041 31.08 268.761 31.6C268.494 32.12 268.361 32.7667 268.361 33.54V39H266.441V28.4H268.281V31.26L267.981 30.5C268.328 29.8067 268.861 29.2667 269.581 28.88C270.301 28.4933 271.141 28.3 272.101 28.3ZM284.674 39.12C283.594 39.12 282.628 38.8867 281.774 38.42C280.934 37.9533 280.274 37.3133 279.794 36.5C279.314 35.6867 279.074 34.7533 279.074 33.7C279.074 32.6467 279.314 31.7133 279.794 30.9C280.274 30.0867 280.934 29.4533 281.774 29C282.628 28.5333 283.594 28.3 284.674 28.3C285.634 28.3 286.488 28.4933 287.234 28.88C287.994 29.2533 288.581 29.8133 288.994 30.56L287.534 31.5C287.188 30.98 286.761 30.6 286.254 30.36C285.761 30.1067 285.228 29.98 284.654 29.98C283.961 29.98 283.341 30.1333 282.794 30.44C282.248 30.7467 281.814 31.18 281.494 31.74C281.174 32.2867 281.014 32.94 281.014 33.7C281.014 34.46 281.174 35.12 281.494 35.68C281.814 36.24 282.248 36.6733 282.794 36.98C283.341 37.2867 283.961 37.44 284.654 37.44C285.228 37.44 285.761 37.32 286.254 37.08C286.761 36.8267 287.188 36.44 287.534 35.92L288.994 36.84C288.581 37.5733 287.994 38.14 287.234 38.54C286.488 38.9267 285.634 39.12 284.674 39.12ZM291.803 43C291.297 43 290.803 42.9133 290.323 42.74C289.843 42.58 289.43 42.34 289.083 42.02L289.903 40.58C290.17 40.8333 290.463 41.0267 290.783 41.16C291.103 41.2933 291.443 41.36 291.803 41.36C292.27 41.36 292.657 41.24 292.963 41C293.27 40.76 293.557 40.3333 293.823 39.72L294.483 38.26L294.683 38.02L298.843 28.4H300.723L295.583 40.06C295.277 40.8067 294.93 41.3933 294.543 41.82C294.17 42.2467 293.757 42.5467 293.303 42.72C292.85 42.9067 292.35 43 291.803 43ZM294.323 39.34L289.483 28.4H291.483L295.603 37.84L294.323 39.34Z" fill="white"/>
<path d="M32 92C32 83.1634 39.1634 76 48 76H441V152H48C39.1634 152 32 144.837 32 136V92Z" fill="#202020"/>
<path d="M32.5 92C32.5 83.4396 39.4396 76.5 48 76.5H440.5V151.5H48C39.4396 151.5 32.5 144.56 32.5 136V92Z" stroke="white" stroke-opacity="0.01"/>
<path d="M32.5 92C32.5 83.4396 39.4396 76.5 48 76.5H440.5V151.5H48C39.4396 151.5 32.5 144.56 32.5 136V92Z" stroke="url(#paint1_radial_253_243)" stroke-opacity="0.12"/>
<rect x="48" y="92" width="44" height="44" rx="8" fill="#2B892E"/>
<path d="M70 109.5C68.7574 109.5 67.75 110.507 67.75 111.75C67.75 112.993 68.7574 114 70 114C71.2426 114 72.25 112.993 72.25 111.75C72.25 110.507 71.2426 109.5 70 109.5Z" fill="white"/>
<path fill-rule="evenodd" clip-rule="evenodd" d="M59.5 106.875C59.5 105.839 60.3395 105 61.375 105H78.625C79.6605 105 80.5 105.839 80.5 106.875V116.625C80.5 117.661 79.6605 118.5 78.625 118.5H61.375C60.3395 118.5 59.5 117.661 59.5 116.625V106.875ZM66.25 111.75C66.25 109.679 67.9289 108 70 108C72.0711 108 73.75 109.679 73.75 111.75C73.75 113.821 72.0711 115.5 70 115.5C67.9289 115.5 66.25 113.821 66.25 111.75ZM76.75 111C76.3358 111 76 111.336 76 111.75V111.758C76 112.172 76.3358 112.508 76.75 112.508H76.7575C77.1717 112.508 77.5075 112.172 77.5075 111.758V111.75C77.5075 111.336 77.1717 111 76.7575 111H76.75ZM62.5 111.75C62.5 111.336 62.8358 111 63.25 111H63.2575C63.6717 111 64.0075 111.336 64.0075 111.75V111.758C64.0075 112.172 63.6717 112.508 63.2575 112.508H63.25C62.8358 112.508 62.5 112.172 62.5 111.758V111.75Z" fill="white"/>
<path d="M60.25 120C59.8358 120 59.5 120.336 59.5 120.75C59.5 121.164 59.8358 121.5 60.25 121.5C65.65 121.5 70.8802 122.222 75.8498 123.575C77.0404 123.899 78.25 123.017 78.25 121.755V120.75C78.25 120.336 77.9142 120 77.5 120H60.25Z" fill="white"/>
<path d="M115.416 123.192C114.136 123.192 112.912 123 111.744 122.616C110.576 122.216 109.656 121.704 108.984 121.08L109.872 119.208C110.512 119.768 111.328 120.232 112.32 120.6C113.312 120.968 114.344 121.152 115.416 121.152C116.392 121.152 117.184 121.04 117.792 120.816C118.4 120.592 118.848 120.288 119.136 119.904C119.424 119.504 119.568 119.056 119.568 118.56C119.568 117.984 119.376 117.52 118.992 117.168C118.624 116.816 118.136 116.536 117.528 116.328C116.936 116.104 116.28 115.912 115.56 115.752C114.84 115.592 114.112 115.408 113.376 115.2C112.656 114.976 111.992 114.696 111.384 114.36C110.792 114.024 110.312 113.576 109.944 113.016C109.576 112.44 109.392 111.704 109.392 110.808C109.392 109.944 109.616 109.152 110.064 108.432C110.528 107.696 111.232 107.112 112.176 106.68C113.136 106.232 114.352 106.008 115.824 106.008C116.8 106.008 117.768 106.136 118.728 106.392C119.688 106.648 120.52 107.016 121.224 107.496L120.432 109.416C119.712 108.936 118.952 108.592 118.152 108.384C117.352 108.16 116.576 108.048 115.824 108.048C114.88 108.048 114.104 108.168 113.496 108.408C112.888 108.648 112.44 108.968 112.152 109.368C111.88 109.768 111.744 110.216 111.744 110.712C111.744 111.304 111.928 111.776 112.296 112.128C112.68 112.48 113.168 112.76 113.76 112.968C114.368 113.176 115.032 113.368 115.752 113.544C116.472 113.704 117.192 113.888 117.912 114.096C118.648 114.304 119.312 114.576 119.904 114.912C120.512 115.248 121 115.696 121.368 116.256C121.736 116.816 121.92 117.536 121.92 118.416C121.92 119.264 121.688 120.056 121.224 120.792C120.76 121.512 120.04 122.096 119.064 122.544C118.104 122.976 116.888 123.192 115.416 123.192ZM141.002 110.16C142.026 110.16 142.93 110.36 143.714 110.76C144.498 111.16 145.106 111.768 145.538 112.584C145.986 113.4 146.21 114.432 146.21 115.68V123H143.906V115.944C143.906 114.712 143.618 113.784 143.042 113.16C142.466 112.536 141.658 112.224 140.618 112.224C139.85 112.224 139.178 112.384 138.602 112.704C138.026 113.024 137.578 113.496 137.258 114.12C136.954 114.744 136.802 115.52 136.802 116.448V123H134.498V115.944C134.498 114.712 134.21 113.784 133.634 113.16C133.074 112.536 132.266 112.224 131.21 112.224C130.458 112.224 129.794 112.384 129.218 112.704C128.642 113.024 128.194 113.496 127.874 114.12C127.554 114.744 127.394 115.52 127.394 116.448V123H125.09V110.28H127.298V113.664L126.938 112.8C127.338 111.968 127.954 111.32 128.786 110.856C129.618 110.392 130.586 110.16 131.69 110.16C132.906 110.16 133.954 110.464 134.834 111.072C135.714 111.664 136.29 112.568 136.562 113.784L135.626 113.4C136.01 112.424 136.682 111.64 137.642 111.048C138.602 110.456 139.722 110.16 141.002 110.16ZM158.346 123V120.312L158.226 119.808V115.224C158.226 114.248 157.938 113.496 157.362 112.968C156.802 112.424 155.954 112.152 154.818 112.152C154.066 112.152 153.33 112.28 152.61 112.536C151.89 112.776 151.282 113.104 150.786 113.52L149.826 111.792C150.482 111.264 151.266 110.864 152.178 110.592C153.106 110.304 154.074 110.16 155.082 110.16C156.826 110.16 158.17 110.584 159.114 111.432C160.058 112.28 160.53 113.576 160.53 115.32V123H158.346ZM154.17 123.144C153.226 123.144 152.394 122.984 151.674 122.664C150.97 122.344 150.426 121.904 150.042 121.344C149.658 120.768 149.466 120.12 149.466 119.4C149.466 118.712 149.626 118.088 149.946 117.528C150.282 116.968 150.818 116.52 151.554 116.184C152.306 115.848 153.314 115.68 154.578 115.68H158.61V117.336H154.674C153.522 117.336 152.746 117.528 152.346 117.912C151.946 118.296 151.746 118.76 151.746 119.304C151.746 119.928 151.994 120.432 152.49 120.816C152.986 121.184 153.674 121.368 154.554 121.368C155.418 121.368 156.17 121.176 156.81 120.792C157.466 120.408 157.938 119.848 158.226 119.112L158.682 120.696C158.378 121.448 157.842 122.048 157.074 122.496C156.306 122.928 155.338 123.144 154.17 123.144ZM164.793 123V110.28H167.001V113.736L166.785 112.872C167.137 111.992 167.729 111.32 168.561 110.856C169.393 110.392 170.417 110.16 171.633 110.16V112.392C171.537 112.376 171.441 112.368 171.345 112.368C171.265 112.368 171.185 112.368 171.105 112.368C169.873 112.368 168.897 112.736 168.177 113.472C167.457 114.208 167.097 115.272 167.097 116.664V123H164.793ZM179.357 123.144C178.077 123.144 177.085 122.8 176.381 122.112C175.677 121.424 175.325 120.44 175.325 119.16V107.496H177.629V119.064C177.629 119.752 177.797 120.28 178.133 120.648C178.485 121.016 178.981 121.2 179.621 121.2C180.341 121.2 180.941 121 181.421 120.6L182.141 122.256C181.789 122.56 181.365 122.784 180.869 122.928C180.389 123.072 179.885 123.144 179.357 123.144ZM173.165 112.176V110.28H181.277V112.176H173.165ZM191.708 123V106.2H198.26C199.732 106.2 200.988 106.432 202.028 106.896C203.068 107.36 203.868 108.032 204.428 108.912C204.988 109.792 205.268 110.84 205.268 112.056C205.268 113.272 204.988 114.32 204.428 115.2C203.868 116.064 203.068 116.736 202.028 117.216C200.988 117.68 199.732 117.912 198.26 117.912H193.028L194.108 116.784V123H191.708ZM194.108 117.024L193.028 115.824H198.188C199.724 115.824 200.884 115.496 201.668 114.84C202.468 114.184 202.868 113.256 202.868 112.056C202.868 110.856 202.468 109.928 201.668 109.272C200.884 108.616 199.724 108.288 198.188 108.288H193.028L194.108 107.088V117.024ZM213.859 123.144C212.579 123.144 211.443 122.864 210.451 122.304C209.459 121.744 208.675 120.976 208.099 120C207.523 119.008 207.235 117.888 207.235 116.64C207.235 115.376 207.523 114.256 208.099 113.28C208.675 112.304 209.459 111.544 210.451 111C211.443 110.44 212.579 110.16 213.859 110.16C215.123 110.16 216.251 110.44 217.243 111C218.251 111.544 219.035 112.304 219.595 113.28C220.171 114.24 220.459 115.36 220.459 116.64C220.459 117.904 220.171 119.024 219.595 120C219.035 120.976 218.251 121.744 217.243 122.304C216.251 122.864 215.123 123.144 213.859 123.144ZM213.859 121.128C214.675 121.128 215.403 120.944 216.043 120.576C216.699 120.208 217.211 119.688 217.579 119.016C217.947 118.328 218.131 117.536 218.131 116.64C218.131 115.728 217.947 114.944 217.579 114.288C217.211 113.616 216.699 113.096 216.043 112.728C215.403 112.36 214.675 112.176 213.859 112.176C213.043 112.176 212.315 112.36 211.675 112.728C211.035 113.096 210.523 113.616 210.139 114.288C209.755 114.944 209.563 115.728 209.563 116.64C209.563 117.536 209.755 118.328 210.139 119.016C210.523 119.688 211.035 120.208 211.675 120.576C212.315 120.944 213.043 121.128 213.859 121.128ZM223.645 123V110.28H225.853V113.736L225.637 112.872C225.989 111.992 226.581 111.32 227.413 110.856C228.245 110.392 229.269 110.16 230.485 110.16V112.392C230.389 112.376 230.293 112.368 230.197 112.368C230.117 112.368 230.037 112.368 229.957 112.368C228.725 112.368 227.749 112.736 227.029 113.472C226.309 114.208 225.949 115.272 225.949 116.664V123H223.645ZM238.208 123.144C236.928 123.144 235.936 122.8 235.232 122.112C234.528 121.424 234.176 120.44 234.176 119.16V107.496H236.48V119.064C236.48 119.752 236.648 120.28 236.984 120.648C237.336 121.016 237.832 121.2 238.472 121.2C239.192 121.2 239.792 121 240.272 120.6L240.992 122.256C240.64 122.56 240.216 122.784 239.72 122.928C239.24 123.072 238.736 123.144 238.208 123.144ZM232.016 112.176V110.28H240.128V112.176H232.016ZM244.114 123V109.152C244.114 107.904 244.474 106.912 245.194 106.176C245.93 105.424 246.97 105.048 248.314 105.048C248.81 105.048 249.282 105.112 249.73 105.24C250.194 105.352 250.586 105.536 250.906 105.792L250.21 107.544C249.97 107.352 249.698 107.208 249.394 107.112C249.09 107 248.77 106.944 248.434 106.944C247.762 106.944 247.25 107.136 246.898 107.52C246.546 107.888 246.37 108.44 246.37 109.176V110.88L246.418 111.936V123H244.114ZM241.954 112.176V110.28H250.066V112.176H241.954ZM257.499 123.144C256.219 123.144 255.083 122.864 254.091 122.304C253.099 121.744 252.315 120.976 251.739 120C251.163 119.008 250.875 117.888 250.875 116.64C250.875 115.376 251.163 114.256 251.739 113.28C252.315 112.304 253.099 111.544 254.091 111C255.083 110.44 256.219 110.16 257.499 110.16C258.763 110.16 259.891 110.44 260.883 111C261.891 111.544 262.675 112.304 263.235 113.28C263.811 114.24 264.099 115.36 264.099 116.64C264.099 117.904 263.811 119.024 263.235 120C262.675 120.976 261.891 121.744 260.883 122.304C259.891 122.864 258.763 123.144 257.499 123.144ZM257.499 121.128C258.315 121.128 259.043 120.944 259.683 120.576C260.339 120.208 260.851 119.688 261.219 119.016C261.587 118.328 261.771 117.536 261.771 116.64C261.771 115.728 261.587 114.944 261.219 114.288C260.851 113.616 260.339 113.096 259.683 112.728C259.043 112.36 258.315 112.176 257.499 112.176C256.683 112.176 255.955 112.36 255.315 112.728C254.675 113.096 254.163 113.616 253.779 114.288C253.395 114.944 253.203 115.728 253.203 116.64C253.203 117.536 253.395 118.328 253.779 119.016C254.163 119.688 254.675 120.208 255.315 120.576C255.955 120.944 256.683 121.128 257.499 121.128ZM267.286 123V105.192H269.59V123H267.286ZM273.989 123V110.28H276.293V123H273.989ZM275.141 107.832C274.693 107.832 274.317 107.688 274.013 107.4C273.725 107.112 273.581 106.76 273.581 106.344C273.581 105.912 273.725 105.552 274.013 105.264C274.317 104.976 274.693 104.832 275.141 104.832C275.589 104.832 275.957 104.976 276.245 105.264C276.549 105.536 276.701 105.88 276.701 106.296C276.701 106.728 276.557 107.096 276.269 107.4C275.981 107.688 275.605 107.832 275.141 107.832ZM286.14 123.144C284.86 123.144 283.724 122.864 282.732 122.304C281.74 121.744 280.956 120.976 280.38 120C279.804 119.008 279.516 117.888 279.516 116.64C279.516 115.376 279.804 114.256 280.38 113.28C280.956 112.304 281.74 111.544 282.732 111C283.724 110.44 284.86 110.16 286.14 110.16C287.404 110.16 288.532 110.44 289.524 111C290.532 111.544 291.316 112.304 291.876 113.28C292.452 114.24 292.74 115.36 292.74 116.64C292.74 117.904 292.452 119.024 291.876 120C291.316 120.976 290.532 121.744 289.524 122.304C288.532 122.864 287.404 123.144 286.14 123.144ZM286.14 121.128C286.956 121.128 287.684 120.944 288.324 120.576C288.98 120.208 289.492 119.688 289.86 119.016C290.228 118.328 290.412 117.536 290.412 116.64C290.412 115.728 290.228 114.944 289.86 114.288C289.492 113.616 288.98 113.096 288.324 112.728C287.684 112.36 286.956 112.176 286.14 112.176C285.324 112.176 284.596 112.36 283.956 112.728C283.316 113.096 282.804 113.616 282.42 114.288C282.036 114.944 281.844 115.728 281.844 116.64C281.844 117.536 282.036 118.328 282.42 119.016C282.804 119.688 283.316 120.208 283.956 120.576C284.596 120.944 285.324 121.128 286.14 121.128ZM302.708 123V106.2H305.108V123H302.708ZM316.593 110.16C317.633 110.16 318.545 110.36 319.329 110.76C320.129 111.16 320.753 111.768 321.201 112.584C321.649 113.4 321.873 114.432 321.873 115.68V123H319.569V115.944C319.569 114.712 319.265 113.784 318.657 113.16C318.065 112.536 317.225 112.224 316.137 112.224C315.321 112.224 314.609 112.384 314.001 112.704C313.393 113.024 312.921 113.496 312.585 114.12C312.265 114.744 312.105 115.52 312.105 116.448V123H309.801V110.28H312.009V113.712L311.649 112.8C312.065 111.968 312.705 111.32 313.569 110.856C314.433 110.392 315.441 110.16 316.593 110.16ZM329.239 123L323.671 110.28H326.071L331.015 121.8H329.863L334.903 110.28H337.159L331.591 123H329.239ZM344.621 123.144C343.261 123.144 342.061 122.864 341.021 122.304C339.997 121.744 339.197 120.976 338.621 120C338.061 119.024 337.781 117.904 337.781 116.64C337.781 115.376 338.053 114.256 338.597 113.28C339.157 112.304 339.917 111.544 340.877 111C341.853 110.44 342.949 110.16 344.165 110.16C345.397 110.16 346.485 110.432 347.429 110.976C348.373 111.52 349.109 112.288 349.637 113.28C350.181 114.256 350.453 115.4 350.453 116.712C350.453 116.808 350.445 116.92 350.429 117.048C350.429 117.176 350.421 117.296 350.405 117.408H339.581V115.752H349.205L348.269 116.328C348.285 115.512 348.117 114.784 347.765 114.144C347.413 113.504 346.925 113.008 346.301 112.656C345.693 112.288 344.981 112.104 344.165 112.104C343.365 112.104 342.653 112.288 342.029 112.656C341.405 113.008 340.917 113.512 340.565 114.168C340.213 114.808 340.037 115.544 340.037 116.376V116.76C340.037 117.608 340.229 118.368 340.613 119.04C341.013 119.696 341.565 120.208 342.269 120.576C342.973 120.944 343.781 121.128 344.693 121.128C345.445 121.128 346.125 121 346.733 120.744C347.357 120.488 347.901 120.104 348.365 119.592L349.637 121.08C349.061 121.752 348.341 122.264 347.477 122.616C346.629 122.968 345.677 123.144 344.621 123.144ZM357.301 123.144C356.245 123.144 355.237 123 354.277 122.712C353.333 122.424 352.589 122.072 352.045 121.656L353.005 119.832C353.549 120.2 354.221 120.512 355.021 120.768C355.821 121.024 356.637 121.152 357.469 121.152C358.541 121.152 359.309 121 359.773 120.696C360.253 120.392 360.493 119.968 360.493 119.424C360.493 119.024 360.349 118.712 360.061 118.488C359.773 118.264 359.389 118.096 358.909 117.984C358.445 117.872 357.925 117.776 357.349 117.696C356.773 117.6 356.197 117.488 355.621 117.36C355.045 117.216 354.517 117.024 354.037 116.784C353.557 116.528 353.173 116.184 352.885 115.752C352.597 115.304 352.453 114.712 352.453 113.976C352.453 113.208 352.669 112.536 353.101 111.96C353.533 111.384 354.141 110.944 354.925 110.64C355.725 110.32 356.669 110.16 357.757 110.16C358.589 110.16 359.429 110.264 360.277 110.472C361.141 110.664 361.845 110.944 362.389 111.312L361.405 113.136C360.829 112.752 360.229 112.488 359.605 112.344C358.981 112.2 358.357 112.128 357.733 112.128C356.725 112.128 355.973 112.296 355.477 112.632C354.981 112.952 354.733 113.368 354.733 113.88C354.733 114.312 354.877 114.648 355.165 114.888C355.469 115.112 355.853 115.288 356.317 115.416C356.797 115.544 357.325 115.656 357.901 115.752C358.477 115.832 359.053 115.944 359.629 116.088C360.205 116.216 360.725 116.4 361.189 116.64C361.669 116.88 362.053 117.216 362.341 117.648C362.645 118.08 362.797 118.656 362.797 119.376C362.797 120.144 362.573 120.808 362.125 121.368C361.677 121.928 361.045 122.368 360.229 122.688C359.413 122.992 358.437 123.144 357.301 123.144ZM370.044 123.144C368.764 123.144 367.772 122.8 367.068 122.112C366.364 121.424 366.012 120.44 366.012 119.16V107.496H368.316V119.064C368.316 119.752 368.484 120.28 368.82 120.648C369.172 121.016 369.668 121.2 370.308 121.2C371.028 121.2 371.628 121 372.108 120.6L372.828 122.256C372.476 122.56 372.052 122.784 371.556 122.928C371.076 123.072 370.572 123.144 370.044 123.144ZM363.852 112.176V110.28H371.964V112.176H363.852ZM375.614 123V110.28H377.918V123H375.614ZM376.766 107.832C376.318 107.832 375.942 107.688 375.638 107.4C375.35 107.112 375.206 106.76 375.206 106.344C375.206 105.912 375.35 105.552 375.638 105.264C375.942 104.976 376.318 104.832 376.766 104.832C377.214 104.832 377.582 104.976 377.87 105.264C378.174 105.536 378.326 105.88 378.326 106.296C378.326 106.728 378.182 107.096 377.894 107.4C377.606 107.688 377.23 107.832 376.766 107.832ZM389.109 110.16C390.149 110.16 391.061 110.36 391.845 110.76C392.645 111.16 393.269 111.768 393.717 112.584C394.165 113.4 394.389 114.432 394.389 115.68V123H392.085V115.944C392.085 114.712 391.781 113.784 391.173 113.16C390.581 112.536 389.741 112.224 388.653 112.224C387.837 112.224 387.125 112.384 386.517 112.704C385.909 113.024 385.437 113.496 385.101 114.12C384.781 114.744 384.621 115.52 384.621 116.448V123H382.317V110.28H384.525V113.712L384.165 112.8C384.581 111.968 385.221 111.32 386.085 110.856C386.949 110.392 387.957 110.16 389.109 110.16ZM404.221 127.8C403.053 127.8 401.917 127.632 400.813 127.296C399.725 126.976 398.837 126.512 398.149 125.904L399.253 124.128C399.845 124.64 400.573 125.04 401.437 125.328C402.301 125.632 403.205 125.784 404.149 125.784C405.653 125.784 406.757 125.432 407.461 124.728C408.165 124.024 408.517 122.952 408.517 121.512V118.824L408.757 116.304L408.637 113.76V110.28H410.821V121.272C410.821 123.512 410.261 125.16 409.141 126.216C408.021 127.272 406.381 127.8 404.221 127.8ZM403.933 122.472C402.701 122.472 401.597 122.216 400.621 121.704C399.661 121.176 398.893 120.448 398.317 119.52C397.757 118.592 397.477 117.52 397.477 116.304C397.477 115.072 397.757 114 398.317 113.088C398.893 112.16 399.661 111.44 400.621 110.928C401.597 110.416 402.701 110.16 403.933 110.16C405.021 110.16 406.013 110.384 406.909 110.832C407.805 111.264 408.517 111.936 409.045 112.848C409.589 113.76 409.861 114.912 409.861 116.304C409.861 117.68 409.589 118.824 409.045 119.736C408.517 120.648 407.805 121.336 406.909 121.8C406.013 122.248 405.021 122.472 403.933 122.472ZM404.197 120.456C405.045 120.456 405.797 120.28 406.453 119.928C407.109 119.576 407.621 119.088 407.989 118.464C408.373 117.84 408.565 117.12 408.565 116.304C408.565 115.488 408.373 114.768 407.989 114.144C407.621 113.52 407.109 113.04 406.453 112.704C405.797 112.352 405.045 112.176 404.197 112.176C403.349 112.176 402.589 112.352 401.917 112.704C401.261 113.04 400.741 113.52 400.357 114.144C399.989 114.768 399.805 115.488 399.805 116.304C399.805 117.12 399.989 117.84 400.357 118.464C400.741 119.088 401.261 119.576 401.917 119.928C402.589 120.28 403.349 120.456 404.197 120.456Z" fill="white"/>
<path d="M71 180C71 171.163 78.1634 164 87 164H441V228H87C78.1634 228 71 220.837 71 212V180Z" fill="#202020"/>
<path d="M71.5 180C71.5 171.44 78.4396 164.5 87 164.5H440.5V227.5H87C78.4396 227.5 71.5 220.56 71.5 212V180Z" stroke="white" stroke-opacity="0.01"/>
<path d="M71.5 180C71.5 171.44 78.4396 164.5 87 164.5H440.5V227.5H87C78.4396 227.5 71.5 220.56 71.5 212V180Z" stroke="url(#paint2_radial_253_243)" stroke-opacity="0.12"/>
<rect x="87" y="176" width="40" height="40" rx="8" fill="#D06604"/>
<path d="M100.625 187.75C99.1753 187.75 98 188.925 98 190.375C98 191.825 99.1753 193 100.625 193H113.375C114.825 193 116 191.825 116 190.375C116 188.925 114.825 187.75 113.375 187.75H100.625Z" fill="white"/>
<path d="M98.75 195.25C98.3358 195.25 98 195.586 98 196C98 196.414 98.3358 196.75 98.75 196.75H115.25C115.664 196.75 116 196.414 116 196C116 195.586 115.664 195.25 115.25 195.25H98.75Z" fill="white"/>
<path d="M98 199.75C98 199.336 98.3358 199 98.75 199H115.25C115.664 199 116 199.336 116 199.75C116 200.164 115.664 200.5 115.25 200.5H98.75C98.3358 200.5 98 200.164 98 199.75Z" fill="white"/>
<path d="M98.75 202.75C98.3358 202.75 98 203.086 98 203.5C98 203.914 98.3358 204.25 98.75 204.25H115.25C115.664 204.25 116 203.914 116 203.5C116 203.086 115.664 202.75 115.25 202.75H98.75Z" fill="white"/>
<path d="M149.18 203.16C148.113 203.16 147.093 203 146.12 202.68C145.147 202.347 144.38 201.92 143.82 201.4L144.56 199.84C145.093 200.307 145.773 200.693 146.6 201C147.427 201.307 148.287 201.46 149.18 201.46C149.993 201.46 150.653 201.367 151.16 201.18C151.667 200.993 152.04 200.74 152.28 200.42C152.52 200.087 152.64 199.713 152.64 199.3C152.64 198.82 152.48 198.433 152.16 198.14C151.853 197.847 151.447 197.613 150.94 197.44C150.447 197.253 149.9 197.093 149.3 196.96C148.7 196.827 148.093 196.673 147.48 196.5C146.88 196.313 146.327 196.08 145.82 195.8C145.327 195.52 144.927 195.147 144.62 194.68C144.313 194.2 144.16 193.587 144.16 192.84C144.16 192.12 144.347 191.46 144.72 190.86C145.107 190.247 145.693 189.76 146.48 189.4C147.28 189.027 148.293 188.84 149.52 188.84C150.333 188.84 151.14 188.947 151.94 189.16C152.74 189.373 153.433 189.68 154.02 190.08L153.36 191.68C152.76 191.28 152.127 190.993 151.46 190.82C150.793 190.633 150.147 190.54 149.52 190.54C148.733 190.54 148.087 190.64 147.58 190.84C147.073 191.04 146.7 191.307 146.46 191.64C146.233 191.973 146.12 192.347 146.12 192.76C146.12 193.253 146.273 193.647 146.58 193.94C146.9 194.233 147.307 194.467 147.8 194.64C148.307 194.813 148.86 194.973 149.46 195.12C150.06 195.253 150.66 195.407 151.26 195.58C151.873 195.753 152.427 195.98 152.92 196.26C153.427 196.54 153.833 196.913 154.14 197.38C154.447 197.847 154.6 198.447 154.6 199.18C154.6 199.887 154.407 200.547 154.02 201.16C153.633 201.76 153.033 202.247 152.22 202.62C151.42 202.98 150.407 203.16 149.18 203.16ZM161.702 203.12C160.795 203.12 159.995 202.953 159.302 202.62C158.622 202.287 158.089 201.78 157.702 201.1C157.329 200.407 157.142 199.54 157.142 198.5V192.4H159.062V198.28C159.062 199.32 159.309 200.1 159.802 200.62C160.309 201.14 161.015 201.4 161.922 201.4C162.589 201.4 163.169 201.267 163.662 201C164.155 200.72 164.535 200.32 164.802 199.8C165.069 199.267 165.202 198.627 165.202 197.88V192.4H167.122V203H165.302V200.14L165.602 200.9C165.255 201.607 164.735 202.153 164.042 202.54C163.349 202.927 162.569 203.12 161.702 203.12ZM173.817 203.12C172.937 203.12 172.097 203 171.297 202.76C170.51 202.52 169.89 202.227 169.437 201.88L170.237 200.36C170.69 200.667 171.25 200.927 171.917 201.14C172.584 201.353 173.264 201.46 173.957 201.46C174.85 201.46 175.49 201.333 175.877 201.08C176.277 200.827 176.477 200.473 176.477 200.02C176.477 199.687 176.357 199.427 176.117 199.24C175.877 199.053 175.557 198.913 175.157 198.82C174.77 198.727 174.337 198.647 173.857 198.58C173.377 198.5 172.897 198.407 172.417 198.3C171.937 198.18 171.497 198.02 171.097 197.82C170.697 197.607 170.377 197.32 170.137 196.96C169.897 196.587 169.777 196.093 169.777 195.48C169.777 194.84 169.957 194.28 170.317 193.8C170.677 193.32 171.184 192.953 171.837 192.7C172.504 192.433 173.29 192.3 174.197 192.3C174.89 192.3 175.59 192.387 176.297 192.56C177.017 192.72 177.604 192.953 178.057 193.26L177.237 194.78C176.757 194.46 176.257 194.24 175.737 194.12C175.217 194 174.697 193.94 174.177 193.94C173.337 193.94 172.71 194.08 172.297 194.36C171.884 194.627 171.677 194.973 171.677 195.4C171.677 195.76 171.797 196.04 172.037 196.24C172.29 196.427 172.61 196.573 172.997 196.68C173.397 196.787 173.837 196.88 174.317 196.96C174.797 197.027 175.277 197.12 175.757 197.24C176.237 197.347 176.67 197.5 177.057 197.7C177.457 197.9 177.777 198.18 178.017 198.54C178.27 198.9 178.397 199.38 178.397 199.98C178.397 200.62 178.21 201.173 177.837 201.64C177.464 202.107 176.937 202.473 176.257 202.74C175.577 202.993 174.764 203.12 173.817 203.12ZM184.437 203.12C183.37 203.12 182.543 202.833 181.957 202.26C181.37 201.687 181.077 200.867 181.077 199.8V190.08H182.997V199.72C182.997 200.293 183.137 200.733 183.417 201.04C183.71 201.347 184.123 201.5 184.657 201.5C185.257 201.5 185.757 201.333 186.157 201L186.757 202.38C186.463 202.633 186.11 202.82 185.697 202.94C185.297 203.06 184.877 203.12 184.437 203.12ZM179.277 193.98V192.4H186.037V193.98H179.277ZM195.658 203V200.76L195.558 200.34V196.52C195.558 195.707 195.318 195.08 194.838 194.64C194.371 194.187 193.664 193.96 192.718 193.96C192.091 193.96 191.478 194.067 190.878 194.28C190.278 194.48 189.771 194.753 189.358 195.1L188.558 193.66C189.104 193.22 189.758 192.887 190.518 192.66C191.291 192.42 192.098 192.3 192.938 192.3C194.391 192.3 195.511 192.653 196.298 193.36C197.084 194.067 197.478 195.147 197.478 196.6V203H195.658ZM192.178 203.12C191.391 203.12 190.698 202.987 190.098 202.72C189.511 202.453 189.058 202.087 188.738 201.62C188.418 201.14 188.258 200.6 188.258 200C188.258 199.427 188.391 198.907 188.658 198.44C188.938 197.973 189.384 197.6 189.998 197.32C190.624 197.04 191.464 196.9 192.518 196.9H195.878V198.28H192.598C191.638 198.28 190.991 198.44 190.658 198.76C190.324 199.08 190.158 199.467 190.158 199.92C190.158 200.44 190.364 200.86 190.778 201.18C191.191 201.487 191.764 201.64 192.498 201.64C193.218 201.64 193.844 201.48 194.378 201.16C194.924 200.84 195.318 200.373 195.558 199.76L195.938 201.08C195.684 201.707 195.238 202.207 194.598 202.58C193.958 202.94 193.151 203.12 192.178 203.12ZM201.031 203V192.4H202.951V203H201.031ZM201.991 190.36C201.618 190.36 201.304 190.24 201.051 190C200.811 189.76 200.691 189.467 200.691 189.12C200.691 188.76 200.811 188.46 201.051 188.22C201.304 187.98 201.618 187.86 201.991 187.86C202.364 187.86 202.671 187.98 202.911 188.22C203.164 188.447 203.291 188.733 203.291 189.08C203.291 189.44 203.171 189.747 202.931 190C202.691 190.24 202.378 190.36 201.991 190.36ZM212.277 192.3C213.144 192.3 213.904 192.467 214.557 192.8C215.224 193.133 215.744 193.64 216.117 194.32C216.49 195 216.677 195.86 216.677 196.9V203H214.757V197.12C214.757 196.093 214.504 195.32 213.997 194.8C213.504 194.28 212.804 194.02 211.897 194.02C211.217 194.02 210.624 194.153 210.117 194.42C209.61 194.687 209.217 195.08 208.937 195.6C208.67 196.12 208.537 196.767 208.537 197.54V203H206.617V192.4H208.457V195.26L208.157 194.5C208.504 193.807 209.037 193.267 209.757 192.88C210.477 192.493 211.317 192.3 212.277 192.3ZM226.81 203V200.76L226.71 200.34V196.52C226.71 195.707 226.47 195.08 225.99 194.64C225.523 194.187 224.817 193.96 223.87 193.96C223.243 193.96 222.63 194.067 222.03 194.28C221.43 194.48 220.923 194.753 220.51 195.1L219.71 193.66C220.257 193.22 220.91 192.887 221.67 192.66C222.443 192.42 223.25 192.3 224.09 192.3C225.543 192.3 226.663 192.653 227.45 193.36C228.237 194.067 228.63 195.147 228.63 196.6V203H226.81ZM223.33 203.12C222.543 203.12 221.85 202.987 221.25 202.72C220.663 202.453 220.21 202.087 219.89 201.62C219.57 201.14 219.41 200.6 219.41 200C219.41 199.427 219.543 198.907 219.81 198.44C220.09 197.973 220.537 197.6 221.15 197.32C221.777 197.04 222.617 196.9 223.67 196.9H227.03V198.28H223.75C222.79 198.28 222.143 198.44 221.81 198.76C221.477 199.08 221.31 199.467 221.31 199.92C221.31 200.44 221.517 200.86 221.93 201.18C222.343 201.487 222.917 201.64 223.65 201.64C224.37 201.64 224.997 201.48 225.53 201.16C226.077 200.84 226.47 200.373 226.71 199.76L227.09 201.08C226.837 201.707 226.39 202.207 225.75 202.58C225.11 202.94 224.303 203.12 223.33 203.12ZM237.803 203.12C236.897 203.12 236.077 202.92 235.343 202.52C234.623 202.107 234.05 201.5 233.623 200.7C233.21 199.9 233.003 198.9 233.003 197.7C233.003 196.5 233.217 195.5 233.643 194.7C234.083 193.9 234.663 193.3 235.383 192.9C236.117 192.5 236.923 192.3 237.803 192.3C238.843 192.3 239.763 192.527 240.563 192.98C241.363 193.433 241.997 194.067 242.463 194.88C242.93 195.68 243.163 196.62 243.163 197.7C243.163 198.78 242.93 199.727 242.463 200.54C241.997 201.353 241.363 201.987 240.563 202.44C239.763 202.893 238.843 203.12 237.803 203.12ZM232.183 203V188.16H234.103V195.22L233.903 197.68L234.023 200.14V203H232.183ZM237.643 201.44C238.323 201.44 238.93 201.287 239.463 200.98C240.01 200.673 240.437 200.24 240.743 199.68C241.063 199.107 241.223 198.447 241.223 197.7C241.223 196.94 241.063 196.287 240.743 195.74C240.437 195.18 240.01 194.747 239.463 194.44C238.93 194.133 238.323 193.98 237.643 193.98C236.977 193.98 236.37 194.133 235.823 194.44C235.29 194.747 234.863 195.18 234.543 195.74C234.237 196.287 234.083 196.94 234.083 197.7C234.083 198.447 234.237 199.107 234.543 199.68C234.863 200.24 235.29 200.673 235.823 200.98C236.37 201.287 236.977 201.44 237.643 201.44ZM245.816 203V188.16H247.736V203H245.816ZM256.122 203.12C254.989 203.12 253.989 202.887 253.122 202.42C252.269 201.953 251.602 201.313 251.122 200.5C250.655 199.687 250.422 198.753 250.422 197.7C250.422 196.647 250.649 195.713 251.102 194.9C251.569 194.087 252.202 193.453 253.002 193C253.815 192.533 254.729 192.3 255.742 192.3C256.769 192.3 257.675 192.527 258.462 192.98C259.249 193.433 259.862 194.073 260.302 194.9C260.755 195.713 260.982 196.667 260.982 197.76C260.982 197.84 260.975 197.933 260.962 198.04C260.962 198.147 260.955 198.247 260.942 198.34H251.922V196.96H259.942L259.162 197.44C259.175 196.76 259.035 196.153 258.742 195.62C258.449 195.087 258.042 194.673 257.522 194.38C257.015 194.073 256.422 193.92 255.742 193.92C255.075 193.92 254.482 194.073 253.962 194.38C253.442 194.673 253.035 195.093 252.742 195.64C252.449 196.173 252.302 196.787 252.302 197.48V197.8C252.302 198.507 252.462 199.14 252.782 199.7C253.115 200.247 253.575 200.673 254.162 200.98C254.749 201.287 255.422 201.44 256.182 201.44C256.809 201.44 257.375 201.333 257.882 201.12C258.402 200.907 258.855 200.587 259.242 200.16L260.302 201.4C259.822 201.96 259.222 202.387 258.502 202.68C257.795 202.973 257.002 203.12 256.122 203.12ZM269.299 203V189H271.299V203H269.299ZM280.871 192.3C281.737 192.3 282.497 192.467 283.151 192.8C283.817 193.133 284.337 193.64 284.711 194.32C285.084 195 285.271 195.86 285.271 196.9V203H283.351V197.12C283.351 196.093 283.097 195.32 282.591 194.8C282.097 194.28 281.397 194.02 280.491 194.02C279.811 194.02 279.217 194.153 278.711 194.42C278.204 194.687 277.811 195.08 277.531 195.6C277.264 196.12 277.131 196.767 277.131 197.54V203H275.211V192.4H277.051V195.26L276.751 194.5C277.097 193.807 277.631 193.267 278.351 192.88C279.071 192.493 279.911 192.3 280.871 192.3ZM291.409 203L286.769 192.4H288.769L292.889 202H291.929L296.129 192.4H298.009L293.369 203H291.409ZM304.228 203.12C303.094 203.12 302.094 202.887 301.228 202.42C300.374 201.953 299.708 201.313 299.228 200.5C298.761 199.687 298.528 198.753 298.528 197.7C298.528 196.647 298.754 195.713 299.208 194.9C299.674 194.087 300.308 193.453 301.108 193C301.921 192.533 302.834 192.3 303.848 192.3C304.874 192.3 305.781 192.527 306.568 192.98C307.354 193.433 307.968 194.073 308.408 194.9C308.861 195.713 309.088 196.667 309.088 197.76C309.088 197.84 309.081 197.933 309.068 198.04C309.068 198.147 309.061 198.247 309.048 198.34H300.028V196.96H308.048L307.268 197.44C307.281 196.76 307.141 196.153 306.848 195.62C306.554 195.087 306.148 194.673 305.628 194.38C305.121 194.073 304.528 193.92 303.848 193.92C303.181 193.92 302.588 194.073 302.068 194.38C301.548 194.673 301.141 195.093 300.848 195.64C300.554 196.173 300.408 196.787 300.408 197.48V197.8C300.408 198.507 300.568 199.14 300.888 199.7C301.221 200.247 301.681 200.673 302.268 200.98C302.854 201.287 303.528 201.44 304.288 201.44C304.914 201.44 305.481 201.333 305.988 201.12C306.508 200.907 306.961 200.587 307.348 200.16L308.408 201.4C307.928 201.96 307.328 202.387 306.608 202.68C305.901 202.973 305.108 203.12 304.228 203.12ZM314.794 203.12C313.914 203.12 313.074 203 312.274 202.76C311.487 202.52 310.867 202.227 310.414 201.88L311.214 200.36C311.667 200.667 312.227 200.927 312.894 201.14C313.56 201.353 314.24 201.46 314.934 201.46C315.827 201.46 316.467 201.333 316.854 201.08C317.254 200.827 317.454 200.473 317.454 200.02C317.454 199.687 317.334 199.427 317.094 199.24C316.854 199.053 316.534 198.913 316.134 198.82C315.747 198.727 315.314 198.647 314.834 198.58C314.354 198.5 313.874 198.407 313.394 198.3C312.914 198.18 312.474 198.02 312.074 197.82C311.674 197.607 311.354 197.32 311.114 196.96C310.874 196.587 310.754 196.093 310.754 195.48C310.754 194.84 310.934 194.28 311.294 193.8C311.654 193.32 312.16 192.953 312.814 192.7C313.48 192.433 314.267 192.3 315.174 192.3C315.867 192.3 316.567 192.387 317.274 192.56C317.994 192.72 318.58 192.953 319.034 193.26L318.214 194.78C317.734 194.46 317.234 194.24 316.714 194.12C316.194 194 315.674 193.94 315.154 193.94C314.314 193.94 313.687 194.08 313.274 194.36C312.86 194.627 312.654 194.973 312.654 195.4C312.654 195.76 312.774 196.04 313.014 196.24C313.267 196.427 313.587 196.573 313.974 196.68C314.374 196.787 314.814 196.88 315.294 196.96C315.774 197.027 316.254 197.12 316.734 197.24C317.214 197.347 317.647 197.5 318.034 197.7C318.434 197.9 318.754 198.18 318.994 198.54C319.247 198.9 319.374 199.38 319.374 199.98C319.374 200.62 319.187 201.173 318.814 201.64C318.44 202.107 317.914 202.473 317.234 202.74C316.554 202.993 315.74 203.12 314.794 203.12ZM325.413 203.12C324.346 203.12 323.52 202.833 322.933 202.26C322.346 201.687 322.053 200.867 322.053 199.8V190.08H323.973V199.72C323.973 200.293 324.113 200.733 324.393 201.04C324.686 201.347 325.1 201.5 325.633 201.5C326.233 201.5 326.733 201.333 327.133 201L327.733 202.38C327.44 202.633 327.086 202.82 326.673 202.94C326.273 203.06 325.853 203.12 325.413 203.12ZM320.253 193.98V192.4H327.013V193.98H320.253ZM330.054 203V192.4H331.974V203H330.054ZM331.014 190.36C330.641 190.36 330.328 190.24 330.074 190C329.834 189.76 329.714 189.467 329.714 189.12C329.714 188.76 329.834 188.46 330.074 188.22C330.328 187.98 330.641 187.86 331.014 187.86C331.388 187.86 331.694 187.98 331.934 188.22C332.188 188.447 332.314 188.733 332.314 189.08C332.314 189.44 332.194 189.747 331.954 190C331.714 190.24 331.401 190.36 331.014 190.36ZM341.3 192.3C342.167 192.3 342.927 192.467 343.58 192.8C344.247 193.133 344.767 193.64 345.14 194.32C345.514 195 345.7 195.86 345.7 196.9V203H343.78V197.12C343.78 196.093 343.527 195.32 343.02 194.8C342.527 194.28 341.827 194.02 340.92 194.02C340.24 194.02 339.647 194.153 339.14 194.42C338.634 194.687 338.24 195.08 337.96 195.6C337.694 196.12 337.56 196.767 337.56 197.54V203H335.64V192.4H337.48V195.26L337.18 194.5C337.527 193.807 338.06 193.267 338.78 192.88C339.5 192.493 340.34 192.3 341.3 192.3ZM353.894 207C352.92 207 351.974 206.86 351.054 206.58C350.147 206.313 349.407 205.927 348.834 205.42L349.754 203.94C350.247 204.367 350.854 204.7 351.574 204.94C352.294 205.193 353.047 205.32 353.834 205.32C355.087 205.32 356.007 205.027 356.594 204.44C357.18 203.853 357.474 202.96 357.474 201.76V199.52L357.674 197.42L357.574 195.3V192.4H359.394V201.56C359.394 203.427 358.927 204.8 357.994 205.68C357.06 206.56 355.694 207 353.894 207ZM353.654 202.56C352.627 202.56 351.707 202.347 350.894 201.92C350.094 201.48 349.454 200.873 348.974 200.1C348.507 199.327 348.274 198.433 348.274 197.42C348.274 196.393 348.507 195.5 348.974 194.74C349.454 193.967 350.094 193.367 350.894 192.94C351.707 192.513 352.627 192.3 353.654 192.3C354.56 192.3 355.387 192.487 356.134 192.86C356.88 193.22 357.474 193.78 357.914 194.54C358.367 195.3 358.594 196.26 358.594 197.42C358.594 198.567 358.367 199.52 357.914 200.28C357.474 201.04 356.88 201.613 356.134 202C355.387 202.373 354.56 202.56 353.654 202.56ZM353.874 200.88C354.58 200.88 355.207 200.733 355.754 200.44C356.3 200.147 356.727 199.74 357.034 199.22C357.354 198.7 357.514 198.1 357.514 197.42C357.514 196.74 357.354 196.14 357.034 195.62C356.727 195.1 356.3 194.7 355.754 194.42C355.207 194.127 354.58 193.98 353.874 193.98C353.167 193.98 352.534 194.127 351.974 194.42C351.427 194.7 350.994 195.1 350.674 195.62C350.367 196.14 350.214 196.74 350.214 197.42C350.214 198.1 350.367 198.7 350.674 199.22C350.994 199.74 351.427 200.147 351.974 200.44C352.534 200.733 353.167 200.88 353.874 200.88Z" fill="white"/>
<rect y="52" width="441" height="215" fill="url(#paint3_linear_253_243)"/>
<defs>
<radialGradient id="paint0_radial_253_243" cx="0" cy="0" r="1" gradientUnits="userSpaceOnUse" gradientTransform="translate(256) rotate(90) scale(40.9244 236.594)">
<stop stop-color="white"/>
<stop offset="1" stop-color="white" stop-opacity="0"/>
</radialGradient>
<radialGradient id="paint1_radial_253_243" cx="0" cy="0" r="1" gradientUnits="userSpaceOnUse" gradientTransform="translate(236.5 76) rotate(90) scale(48.5978 261.533)">
<stop stop-color="white"/>
<stop offset="1" stop-color="white" stop-opacity="0"/>
</radialGradient>
<radialGradient id="paint2_radial_253_243" cx="0" cy="0" r="1" gradientUnits="userSpaceOnUse" gradientTransform="translate(256 164) rotate(90) scale(40.9244 236.594)">
<stop stop-color="white"/>
<stop offset="1" stop-color="white" stop-opacity="0"/>
</radialGradient>
<linearGradient id="paint3_linear_253_243" x1="220.5" y1="52" x2="220.5" y2="267" gradientUnits="userSpaceOnUse">
<stop stop-color="#131313" stop-opacity="0"/>
<stop offset="1" stop-color="#131313"/>
</linearGradient>
</defs>
</svg>
