<svg width="409" height="228" viewBox="0 0 409 228" fill="none" xmlns="http://www.w3.org/2000/svg">
<path d="M39 16C39 7.16344 46.1634 0 55 0H409V64H55C46.1634 64 39 56.8366 39 48V16Z" fill="#202020"/>
<path d="M39.5 16C39.5 7.43959 46.4396 0.5 55 0.5H408.5V63.5H55C46.4396 63.5 39.5 56.5604 39.5 48V16Z" stroke="white" stroke-opacity="0.01"/>
<path d="M39.5 16C39.5 7.43959 46.4396 0.5 55 0.5H408.5V63.5H55C46.4396 63.5 39.5 56.5604 39.5 48V16Z" stroke="url(#paint0_radial_2_776)" stroke-opacity="0.12"/>
<rect x="55" y="12" width="40" height="40" rx="8" fill="#2B4089"/>
<path d="M84 26.375C84 29.0674 79.9706 31.25 75 31.25C70.0294 31.25 66 29.0674 66 26.375C66 23.6826 70.0294 21.5 75 21.5C79.9706 21.5 84 23.6826 84 26.375Z" fill="white"/>
<path d="M75 32.75C77.6852 32.75 80.1905 32.1637 82.0784 31.1411C82.7684 30.7673 83.4248 30.3043 83.9747 29.7567C83.9915 29.8783 84 30.0011 84 30.125C84 32.8174 79.9706 35 75 35C70.0294 35 66 32.8174 66 30.125C66 30.0011 66.0085 29.8783 66.0253 29.7567C66.5752 30.3043 67.2316 30.7673 67.9216 31.1411C69.8095 32.1637 72.3148 32.75 75 32.75Z" fill="white"/>
<path d="M75 36.5C77.6852 36.5 80.1905 35.9137 82.0784 34.8911C82.7684 34.5173 83.4248 34.0543 83.9747 33.5067C83.9915 33.6283 84 33.7511 84 33.875C84 36.5674 79.9706 38.75 75 38.75C70.0294 38.75 66 36.5674 66 33.875C66 33.7511 66.0085 33.6283 66.0253 33.5067C66.5752 34.0543 67.2316 34.5173 67.9216 34.8911C69.8095 35.9137 72.3148 36.5 75 36.5Z" fill="white"/>
<path d="M75 40.25C77.6852 40.25 80.1905 39.6637 82.0784 38.6411C82.7684 38.2673 83.4248 37.8043 83.9747 37.2567C83.9915 37.3783 84 37.5011 84 37.625C84 40.3174 79.9706 42.5 75 42.5C70.0294 42.5 66 40.3174 66 37.625C66 37.5011 66.0085 37.3783 66.0253 37.2567C66.5752 37.8043 67.2316 38.2673 67.9216 38.6411C69.8095 39.6637 72.3148 40.25 75 40.25Z" fill="white"/>
<path d="M119.36 39.16C118.293 39.16 117.307 38.9867 116.4 38.64C115.507 38.28 114.727 37.78 114.06 37.14C113.407 36.4867 112.893 35.7267 112.52 34.86C112.147 33.9933 111.96 33.04 111.96 32C111.96 30.96 112.147 30.0067 112.52 29.14C112.893 28.2733 113.413 27.52 114.08 26.88C114.747 26.2267 115.527 25.7267 116.42 25.38C117.327 25.02 118.313 24.84 119.38 24.84C120.46 24.84 121.453 25.0267 122.36 25.4C123.28 25.76 124.06 26.3 124.7 27.02L123.4 28.28C122.867 27.72 122.267 27.3067 121.6 27.04C120.933 26.76 120.22 26.62 119.46 26.62C118.673 26.62 117.94 26.7533 117.26 27.02C116.593 27.2867 116.013 27.66 115.52 28.14C115.027 28.62 114.64 29.1933 114.36 29.86C114.093 30.5133 113.96 31.2267 113.96 32C113.96 32.7733 114.093 33.4933 114.36 34.16C114.64 34.8133 115.027 35.38 115.52 35.86C116.013 36.34 116.593 36.7133 117.26 36.98C117.94 37.2467 118.673 37.38 119.46 37.38C120.22 37.38 120.933 37.2467 121.6 36.98C122.267 36.7 122.867 36.2733 123.4 35.7L124.7 36.96C124.06 37.68 123.28 38.2267 122.36 38.6C121.453 38.9733 120.453 39.16 119.36 39.16ZM127.273 39V28.4H129.113V31.28L128.933 30.56C129.226 29.8267 129.72 29.2667 130.413 28.88C131.106 28.4933 131.96 28.3 132.973 28.3V30.16C132.893 30.1467 132.813 30.14 132.733 30.14C132.666 30.14 132.6 30.14 132.533 30.14C131.506 30.14 130.693 30.4467 130.093 31.06C129.493 31.6733 129.193 32.56 129.193 33.72V39H127.273ZM136.229 43C135.723 43 135.229 42.9133 134.749 42.74C134.269 42.58 133.856 42.34 133.509 42.02L134.329 40.58C134.596 40.8333 134.889 41.0267 135.209 41.16C135.529 41.2933 135.869 41.36 136.229 41.36C136.696 41.36 137.083 41.24 137.389 41C137.696 40.76 137.983 40.3333 138.249 39.72L138.909 38.26L139.109 38.02L143.269 28.4H145.149L140.009 40.06C139.703 40.8067 139.356 41.3933 138.969 41.82C138.596 42.2467 138.183 42.5467 137.729 42.72C137.276 42.9067 136.776 43 136.229 43ZM138.749 39.34L133.909 28.4H135.909L140.029 37.84L138.749 39.34ZM152.561 39.12C151.681 39.12 150.874 38.92 150.141 38.52C149.421 38.1067 148.841 37.5 148.401 36.7C147.974 35.9 147.761 34.9 147.761 33.7C147.761 32.5 147.968 31.5 148.381 30.7C148.808 29.9 149.381 29.3 150.101 28.9C150.834 28.5 151.654 28.3 152.561 28.3C153.601 28.3 154.521 28.5267 155.321 28.98C156.121 29.4333 156.754 30.0667 157.221 30.88C157.688 31.68 157.921 32.62 157.921 33.7C157.921 34.78 157.688 35.7267 157.221 36.54C156.754 37.3533 156.121 37.9867 155.321 38.44C154.521 38.8933 153.601 39.12 152.561 39.12ZM146.941 42.88V28.4H148.781V31.26L148.661 33.72L148.861 36.18V42.88H146.941ZM152.401 37.44C153.081 37.44 153.688 37.2867 154.221 36.98C154.768 36.6733 155.194 36.24 155.501 35.68C155.821 35.1067 155.981 34.4467 155.981 33.7C155.981 32.94 155.821 32.2867 155.501 31.74C155.194 31.18 154.768 30.7467 154.221 30.44C153.688 30.1333 153.081 29.98 152.401 29.98C151.734 29.98 151.128 30.1333 150.581 30.44C150.048 30.7467 149.621 31.18 149.301 31.74C148.994 32.2867 148.841 32.94 148.841 33.7C148.841 34.4467 148.994 35.1067 149.301 35.68C149.621 36.24 150.048 36.6733 150.581 36.98C151.128 37.2867 151.734 37.44 152.401 37.44ZM164.214 39.12C163.147 39.12 162.321 38.8333 161.734 38.26C161.147 37.6867 160.854 36.8667 160.854 35.8V26.08H162.774V35.72C162.774 36.2933 162.914 36.7333 163.194 37.04C163.487 37.3467 163.901 37.5 164.434 37.5C165.034 37.5 165.534 37.3333 165.934 37L166.534 38.38C166.241 38.6333 165.887 38.82 165.474 38.94C165.074 39.06 164.654 39.12 164.214 39.12ZM159.054 29.98V28.4H165.814V29.98H159.054ZM173.044 39.12C171.977 39.12 171.03 38.8867 170.204 38.42C169.377 37.9533 168.724 37.3133 168.244 36.5C167.764 35.6733 167.524 34.74 167.524 33.7C167.524 32.6467 167.764 31.7133 168.244 30.9C168.724 30.0867 169.377 29.4533 170.204 29C171.03 28.5333 171.977 28.3 173.044 28.3C174.097 28.3 175.037 28.5333 175.864 29C176.704 29.4533 177.357 30.0867 177.824 30.9C178.304 31.7 178.544 32.6333 178.544 33.7C178.544 34.7533 178.304 35.6867 177.824 36.5C177.357 37.3133 176.704 37.9533 175.864 38.42C175.037 38.8867 174.097 39.12 173.044 39.12ZM173.044 37.44C173.724 37.44 174.33 37.2867 174.864 36.98C175.41 36.6733 175.837 36.24 176.144 35.68C176.45 35.1067 176.604 34.4467 176.604 33.7C176.604 32.94 176.45 32.2867 176.144 31.74C175.837 31.18 175.41 30.7467 174.864 30.44C174.33 30.1333 173.724 29.98 173.044 29.98C172.364 29.98 171.757 30.1333 171.224 30.44C170.69 30.7467 170.264 31.18 169.944 31.74C169.624 32.2867 169.464 32.94 169.464 33.7C169.464 34.4467 169.624 35.1067 169.944 35.68C170.264 36.24 170.69 36.6733 171.224 36.98C171.757 37.2867 172.364 37.44 173.044 37.44ZM185.819 39.12C184.739 39.12 183.772 38.8867 182.919 38.42C182.079 37.9533 181.419 37.3133 180.939 36.5C180.459 35.6867 180.219 34.7533 180.219 33.7C180.219 32.6467 180.459 31.7133 180.939 30.9C181.419 30.0867 182.079 29.4533 182.919 29C183.772 28.5333 184.739 28.3 185.819 28.3C186.779 28.3 187.632 28.4933 188.379 28.88C189.139 29.2533 189.726 29.8133 190.139 30.56L188.679 31.5C188.332 30.98 187.906 30.6 187.399 30.36C186.906 30.1067 186.372 29.98 185.799 29.98C185.106 29.98 184.486 30.1333 183.939 30.44C183.392 30.7467 182.959 31.18 182.639 31.74C182.319 32.2867 182.159 32.94 182.159 33.7C182.159 34.46 182.319 35.12 182.639 35.68C182.959 36.24 183.392 36.6733 183.939 36.98C184.486 37.2867 185.106 37.44 185.799 37.44C186.372 37.44 186.906 37.32 187.399 37.08C187.906 36.8267 188.332 36.44 188.679 35.92L190.139 36.84C189.726 37.5733 189.139 38.14 188.379 38.54C187.632 38.9267 186.779 39.12 185.819 39.12ZM197.085 39.12C196.178 39.12 195.378 38.9533 194.685 38.62C194.005 38.2867 193.471 37.78 193.085 37.1C192.711 36.4067 192.525 35.54 192.525 34.5V28.4H194.445V34.28C194.445 35.32 194.691 36.1 195.185 36.62C195.691 37.14 196.398 37.4 197.305 37.4C197.971 37.4 198.551 37.2667 199.045 37C199.538 36.72 199.918 36.32 200.185 35.8C200.451 35.2667 200.585 34.6267 200.585 33.88V28.4H202.505V39H200.685V36.14L200.985 36.9C200.638 37.6067 200.118 38.1533 199.425 38.54C198.731 38.9267 197.951 39.12 197.085 39.12ZM206.16 39V28.4H208V31.28L207.82 30.56C208.113 29.8267 208.607 29.2667 209.3 28.88C209.993 28.4933 210.847 28.3 211.86 28.3V30.16C211.78 30.1467 211.7 30.14 211.62 30.14C211.553 30.14 211.487 30.14 211.42 30.14C210.393 30.14 209.58 30.4467 208.98 31.06C208.38 31.6733 208.08 32.56 208.08 33.72V39H206.16ZM214.226 39V28.4H216.066V31.28L215.886 30.56C216.18 29.8267 216.673 29.2667 217.366 28.88C218.06 28.4933 218.913 28.3 219.926 28.3V30.16C219.846 30.1467 219.766 30.14 219.686 30.14C219.62 30.14 219.553 30.14 219.486 30.14C218.46 30.14 217.646 30.4467 217.046 31.06C216.446 31.6733 216.146 32.56 216.146 33.72V39H214.226ZM226.915 39.12C225.782 39.12 224.782 38.8867 223.915 38.42C223.062 37.9533 222.395 37.3133 221.915 36.5C221.448 35.6867 221.215 34.7533 221.215 33.7C221.215 32.6467 221.442 31.7133 221.895 30.9C222.362 30.0867 222.995 29.4533 223.795 29C224.608 28.5333 225.522 28.3 226.535 28.3C227.562 28.3 228.468 28.5267 229.255 28.98C230.042 29.4333 230.655 30.0733 231.095 30.9C231.548 31.7133 231.775 32.6667 231.775 33.76C231.775 33.84 231.768 33.9333 231.755 34.04C231.755 34.1467 231.748 34.2467 231.735 34.34H222.715V32.96H230.735L229.955 33.44C229.968 32.76 229.828 32.1533 229.535 31.62C229.242 31.0867 228.835 30.6733 228.315 30.38C227.808 30.0733 227.215 29.92 226.535 29.92C225.868 29.92 225.275 30.0733 224.755 30.38C224.235 30.6733 223.828 31.0933 223.535 31.64C223.242 32.1733 223.095 32.7867 223.095 33.48V33.8C223.095 34.5067 223.255 35.14 223.575 35.7C223.908 36.2467 224.368 36.6733 224.955 36.98C225.542 37.2867 226.215 37.44 226.975 37.44C227.602 37.44 228.168 37.3333 228.675 37.12C229.195 36.9067 229.648 36.5867 230.035 36.16L231.095 37.4C230.615 37.96 230.015 38.3867 229.295 38.68C228.588 38.9733 227.795 39.12 226.915 39.12ZM240.101 28.3C240.968 28.3 241.728 28.4667 242.381 28.8C243.048 29.1333 243.568 29.64 243.941 30.32C244.314 31 244.501 31.86 244.501 32.9V39H242.581V33.12C242.581 32.0933 242.328 31.32 241.821 30.8C241.328 30.28 240.628 30.02 239.721 30.02C239.041 30.02 238.448 30.1533 237.941 30.42C237.434 30.6867 237.041 31.08 236.761 31.6C236.494 32.12 236.361 32.7667 236.361 33.54V39H234.441V28.4H236.281V31.26L235.981 30.5C236.328 29.8067 236.861 29.2667 237.581 28.88C238.301 28.4933 239.141 28.3 240.101 28.3ZM252.674 39.12C251.594 39.12 250.628 38.8867 249.774 38.42C248.934 37.9533 248.274 37.3133 247.794 36.5C247.314 35.6867 247.074 34.7533 247.074 33.7C247.074 32.6467 247.314 31.7133 247.794 30.9C248.274 30.0867 248.934 29.4533 249.774 29C250.628 28.5333 251.594 28.3 252.674 28.3C253.634 28.3 254.488 28.4933 255.234 28.88C255.994 29.2533 256.581 29.8133 256.994 30.56L255.534 31.5C255.188 30.98 254.761 30.6 254.254 30.36C253.761 30.1067 253.228 29.98 252.654 29.98C251.961 29.98 251.341 30.1333 250.794 30.44C250.248 30.7467 249.814 31.18 249.494 31.74C249.174 32.2867 249.014 32.94 249.014 33.7C249.014 34.46 249.174 35.12 249.494 35.68C249.814 36.24 250.248 36.6733 250.794 36.98C251.341 37.2867 251.961 37.44 252.654 37.44C253.228 37.44 253.761 37.32 254.254 37.08C254.761 36.8267 255.188 36.44 255.534 35.92L256.994 36.84C256.581 37.5733 255.994 38.14 255.234 38.54C254.488 38.9267 253.634 39.12 252.674 39.12ZM259.803 43C259.297 43 258.803 42.9133 258.323 42.74C257.843 42.58 257.43 42.34 257.083 42.02L257.903 40.58C258.17 40.8333 258.463 41.0267 258.783 41.16C259.103 41.2933 259.443 41.36 259.803 41.36C260.27 41.36 260.657 41.24 260.963 41C261.27 40.76 261.557 40.3333 261.823 39.72L262.483 38.26L262.683 38.02L266.843 28.4H268.723L263.583 40.06C263.277 40.8067 262.93 41.3933 262.543 41.82C262.17 42.2467 261.757 42.5467 261.303 42.72C260.85 42.9067 260.35 43 259.803 43ZM262.323 39.34L257.483 28.4H259.483L263.603 37.84L262.323 39.34Z" fill="white"/>
<path d="M0 92C0 83.1634 7.16344 76 16 76H409V152H16C7.16343 152 0 144.837 0 136V92Z" fill="#202020"/>
<path d="M0.5 92C0.5 83.4396 7.43959 76.5 16 76.5H408.5V151.5H16C7.43958 151.5 0.5 144.56 0.5 136V92Z" stroke="white" stroke-opacity="0.01"/>
<path d="M0.5 92C0.5 83.4396 7.43959 76.5 16 76.5H408.5V151.5H16C7.43958 151.5 0.5 144.56 0.5 136V92Z" stroke="url(#paint1_radial_2_776)" stroke-opacity="0.12"/>
<rect x="16" y="92" width="44" height="44" rx="8" fill="#2B892E"/>
<path d="M38 109.5C36.7574 109.5 35.75 110.507 35.75 111.75C35.75 112.993 36.7574 114 38 114C39.2426 114 40.25 112.993 40.25 111.75C40.25 110.507 39.2426 109.5 38 109.5Z" fill="white"/>
<path fill-rule="evenodd" clip-rule="evenodd" d="M27.5 106.875C27.5 105.839 28.3395 105 29.375 105H46.625C47.6605 105 48.5 105.839 48.5 106.875V116.625C48.5 117.661 47.6605 118.5 46.625 118.5H29.375C28.3395 118.5 27.5 117.661 27.5 116.625V106.875ZM34.25 111.75C34.25 109.679 35.9289 108 38 108C40.0711 108 41.75 109.679 41.75 111.75C41.75 113.821 40.0711 115.5 38 115.5C35.9289 115.5 34.25 113.821 34.25 111.75ZM44.75 111C44.3358 111 44 111.336 44 111.75V111.758C44 112.172 44.3358 112.508 44.75 112.508H44.7575C45.1717 112.508 45.5075 112.172 45.5075 111.758V111.75C45.5075 111.336 45.1717 111 44.7575 111H44.75ZM30.5 111.75C30.5 111.336 30.8358 111 31.25 111H31.2575C31.6717 111 32.0075 111.336 32.0075 111.75V111.758C32.0075 112.172 31.6717 112.508 31.2575 112.508H31.25C30.8358 112.508 30.5 112.172 30.5 111.758V111.75Z" fill="white"/>
<path d="M28.25 120C27.8358 120 27.5 120.336 27.5 120.75C27.5 121.164 27.8358 121.5 28.25 121.5C33.65 121.5 38.8802 122.222 43.8498 123.575C45.0404 123.899 46.25 123.017 46.25 121.755V120.75C46.25 120.336 45.9142 120 45.5 120H28.25Z" fill="white"/>
<path d="M83.416 123.192C82.136 123.192 80.912 123 79.744 122.616C78.576 122.216 77.656 121.704 76.984 121.08L77.872 119.208C78.512 119.768 79.328 120.232 80.32 120.6C81.312 120.968 82.344 121.152 83.416 121.152C84.392 121.152 85.184 121.04 85.792 120.816C86.4 120.592 86.848 120.288 87.136 119.904C87.424 119.504 87.568 119.056 87.568 118.56C87.568 117.984 87.376 117.52 86.992 117.168C86.624 116.816 86.136 116.536 85.528 116.328C84.936 116.104 84.28 115.912 83.56 115.752C82.84 115.592 82.112 115.408 81.376 115.2C80.656 114.976 79.992 114.696 79.384 114.36C78.792 114.024 78.312 113.576 77.944 113.016C77.576 112.44 77.392 111.704 77.392 110.808C77.392 109.944 77.616 109.152 78.064 108.432C78.528 107.696 79.232 107.112 80.176 106.68C81.136 106.232 82.352 106.008 83.824 106.008C84.8 106.008 85.768 106.136 86.728 106.392C87.688 106.648 88.52 107.016 89.224 107.496L88.432 109.416C87.712 108.936 86.952 108.592 86.152 108.384C85.352 108.16 84.576 108.048 83.824 108.048C82.88 108.048 82.104 108.168 81.496 108.408C80.888 108.648 80.44 108.968 80.152 109.368C79.88 109.768 79.744 110.216 79.744 110.712C79.744 111.304 79.928 111.776 80.296 112.128C80.68 112.48 81.168 112.76 81.76 112.968C82.368 113.176 83.032 113.368 83.752 113.544C84.472 113.704 85.192 113.888 85.912 114.096C86.648 114.304 87.312 114.576 87.904 114.912C88.512 115.248 89 115.696 89.368 116.256C89.736 116.816 89.92 117.536 89.92 118.416C89.92 119.264 89.688 120.056 89.224 120.792C88.76 121.512 88.04 122.096 87.064 122.544C86.104 122.976 84.888 123.192 83.416 123.192ZM109.002 110.16C110.026 110.16 110.93 110.36 111.714 110.76C112.498 111.16 113.106 111.768 113.538 112.584C113.986 113.4 114.21 114.432 114.21 115.68V123H111.906V115.944C111.906 114.712 111.618 113.784 111.042 113.16C110.466 112.536 109.658 112.224 108.618 112.224C107.85 112.224 107.178 112.384 106.602 112.704C106.026 113.024 105.578 113.496 105.258 114.12C104.954 114.744 104.802 115.52 104.802 116.448V123H102.498V115.944C102.498 114.712 102.21 113.784 101.634 113.16C101.074 112.536 100.266 112.224 99.2103 112.224C98.4583 112.224 97.7943 112.384 97.2183 112.704C96.6423 113.024 96.1943 113.496 95.8743 114.12C95.5543 114.744 95.3943 115.52 95.3943 116.448V123H93.0903V110.28H95.2983V113.664L94.9383 112.8C95.3383 111.968 95.9543 111.32 96.7863 110.856C97.6183 110.392 98.5863 110.16 99.6903 110.16C100.906 110.16 101.954 110.464 102.834 111.072C103.714 111.664 104.29 112.568 104.562 113.784L103.626 113.4C104.01 112.424 104.682 111.64 105.642 111.048C106.602 110.456 107.722 110.16 109.002 110.16ZM126.346 123V120.312L126.226 119.808V115.224C126.226 114.248 125.938 113.496 125.362 112.968C124.802 112.424 123.954 112.152 122.818 112.152C122.066 112.152 121.33 112.28 120.61 112.536C119.89 112.776 119.282 113.104 118.786 113.52L117.826 111.792C118.482 111.264 119.266 110.864 120.178 110.592C121.106 110.304 122.074 110.16 123.082 110.16C124.826 110.16 126.17 110.584 127.114 111.432C128.058 112.28 128.53 113.576 128.53 115.32V123H126.346ZM122.17 123.144C121.226 123.144 120.394 122.984 119.674 122.664C118.97 122.344 118.426 121.904 118.042 121.344C117.658 120.768 117.466 120.12 117.466 119.4C117.466 118.712 117.626 118.088 117.946 117.528C118.282 116.968 118.818 116.52 119.554 116.184C120.306 115.848 121.314 115.68 122.578 115.68H126.61V117.336H122.674C121.522 117.336 120.746 117.528 120.346 117.912C119.946 118.296 119.746 118.76 119.746 119.304C119.746 119.928 119.994 120.432 120.49 120.816C120.986 121.184 121.674 121.368 122.554 121.368C123.418 121.368 124.17 121.176 124.81 120.792C125.466 120.408 125.938 119.848 126.226 119.112L126.682 120.696C126.378 121.448 125.842 122.048 125.074 122.496C124.306 122.928 123.338 123.144 122.17 123.144ZM132.793 123V110.28H135.001V113.736L134.785 112.872C135.137 111.992 135.729 111.32 136.561 110.856C137.393 110.392 138.417 110.16 139.633 110.16V112.392C139.537 112.376 139.441 112.368 139.345 112.368C139.265 112.368 139.185 112.368 139.105 112.368C137.873 112.368 136.897 112.736 136.177 113.472C135.457 114.208 135.097 115.272 135.097 116.664V123H132.793ZM147.357 123.144C146.077 123.144 145.085 122.8 144.381 122.112C143.677 121.424 143.325 120.44 143.325 119.16V107.496H145.629V119.064C145.629 119.752 145.797 120.28 146.133 120.648C146.485 121.016 146.981 121.2 147.621 121.2C148.341 121.2 148.941 121 149.421 120.6L150.141 122.256C149.789 122.56 149.365 122.784 148.869 122.928C148.389 123.072 147.885 123.144 147.357 123.144ZM141.165 112.176V110.28H149.277V112.176H141.165ZM159.708 123V106.2H166.26C167.732 106.2 168.988 106.432 170.028 106.896C171.068 107.36 171.868 108.032 172.428 108.912C172.988 109.792 173.268 110.84 173.268 112.056C173.268 113.272 172.988 114.32 172.428 115.2C171.868 116.064 171.068 116.736 170.028 117.216C168.988 117.68 167.732 117.912 166.26 117.912H161.028L162.108 116.784V123H159.708ZM162.108 117.024L161.028 115.824H166.188C167.724 115.824 168.884 115.496 169.668 114.84C170.468 114.184 170.868 113.256 170.868 112.056C170.868 110.856 170.468 109.928 169.668 109.272C168.884 108.616 167.724 108.288 166.188 108.288H161.028L162.108 107.088V117.024ZM181.859 123.144C180.579 123.144 179.443 122.864 178.451 122.304C177.459 121.744 176.675 120.976 176.099 120C175.523 119.008 175.235 117.888 175.235 116.64C175.235 115.376 175.523 114.256 176.099 113.28C176.675 112.304 177.459 111.544 178.451 111C179.443 110.44 180.579 110.16 181.859 110.16C183.123 110.16 184.251 110.44 185.243 111C186.251 111.544 187.035 112.304 187.595 113.28C188.171 114.24 188.459 115.36 188.459 116.64C188.459 117.904 188.171 119.024 187.595 120C187.035 120.976 186.251 121.744 185.243 122.304C184.251 122.864 183.123 123.144 181.859 123.144ZM181.859 121.128C182.675 121.128 183.403 120.944 184.043 120.576C184.699 120.208 185.211 119.688 185.579 119.016C185.947 118.328 186.131 117.536 186.131 116.64C186.131 115.728 185.947 114.944 185.579 114.288C185.211 113.616 184.699 113.096 184.043 112.728C183.403 112.36 182.675 112.176 181.859 112.176C181.043 112.176 180.315 112.36 179.675 112.728C179.035 113.096 178.523 113.616 178.139 114.288C177.755 114.944 177.563 115.728 177.563 116.64C177.563 117.536 177.755 118.328 178.139 119.016C178.523 119.688 179.035 120.208 179.675 120.576C180.315 120.944 181.043 121.128 181.859 121.128ZM191.645 123V110.28H193.853V113.736L193.637 112.872C193.989 111.992 194.581 111.32 195.413 110.856C196.245 110.392 197.269 110.16 198.485 110.16V112.392C198.389 112.376 198.293 112.368 198.197 112.368C198.117 112.368 198.037 112.368 197.957 112.368C196.725 112.368 195.749 112.736 195.029 113.472C194.309 114.208 193.949 115.272 193.949 116.664V123H191.645ZM206.208 123.144C204.928 123.144 203.936 122.8 203.232 122.112C202.528 121.424 202.176 120.44 202.176 119.16V107.496H204.48V119.064C204.48 119.752 204.648 120.28 204.984 120.648C205.336 121.016 205.832 121.2 206.472 121.2C207.192 121.2 207.792 121 208.272 120.6L208.992 122.256C208.64 122.56 208.216 122.784 207.72 122.928C207.24 123.072 206.736 123.144 206.208 123.144ZM200.016 112.176V110.28H208.128V112.176H200.016ZM212.114 123V109.152C212.114 107.904 212.474 106.912 213.194 106.176C213.93 105.424 214.97 105.048 216.314 105.048C216.81 105.048 217.282 105.112 217.73 105.24C218.194 105.352 218.586 105.536 218.906 105.792L218.21 107.544C217.97 107.352 217.698 107.208 217.394 107.112C217.09 107 216.77 106.944 216.434 106.944C215.762 106.944 215.25 107.136 214.898 107.52C214.546 107.888 214.37 108.44 214.37 109.176V110.88L214.418 111.936V123H212.114ZM209.954 112.176V110.28H218.066V112.176H209.954ZM225.499 123.144C224.219 123.144 223.083 122.864 222.091 122.304C221.099 121.744 220.315 120.976 219.739 120C219.163 119.008 218.875 117.888 218.875 116.64C218.875 115.376 219.163 114.256 219.739 113.28C220.315 112.304 221.099 111.544 222.091 111C223.083 110.44 224.219 110.16 225.499 110.16C226.763 110.16 227.891 110.44 228.883 111C229.891 111.544 230.675 112.304 231.235 113.28C231.811 114.24 232.099 115.36 232.099 116.64C232.099 117.904 231.811 119.024 231.235 120C230.675 120.976 229.891 121.744 228.883 122.304C227.891 122.864 226.763 123.144 225.499 123.144ZM225.499 121.128C226.315 121.128 227.043 120.944 227.683 120.576C228.339 120.208 228.851 119.688 229.219 119.016C229.587 118.328 229.771 117.536 229.771 116.64C229.771 115.728 229.587 114.944 229.219 114.288C228.851 113.616 228.339 113.096 227.683 112.728C227.043 112.36 226.315 112.176 225.499 112.176C224.683 112.176 223.955 112.36 223.315 112.728C222.675 113.096 222.163 113.616 221.779 114.288C221.395 114.944 221.203 115.728 221.203 116.64C221.203 117.536 221.395 118.328 221.779 119.016C222.163 119.688 222.675 120.208 223.315 120.576C223.955 120.944 224.683 121.128 225.499 121.128ZM235.286 123V105.192H237.59V123H235.286ZM241.989 123V110.28H244.293V123H241.989ZM243.141 107.832C242.693 107.832 242.317 107.688 242.013 107.4C241.725 107.112 241.581 106.76 241.581 106.344C241.581 105.912 241.725 105.552 242.013 105.264C242.317 104.976 242.693 104.832 243.141 104.832C243.589 104.832 243.957 104.976 244.245 105.264C244.549 105.536 244.701 105.88 244.701 106.296C244.701 106.728 244.557 107.096 244.269 107.4C243.981 107.688 243.605 107.832 243.141 107.832ZM254.14 123.144C252.86 123.144 251.724 122.864 250.732 122.304C249.74 121.744 248.956 120.976 248.38 120C247.804 119.008 247.516 117.888 247.516 116.64C247.516 115.376 247.804 114.256 248.38 113.28C248.956 112.304 249.74 111.544 250.732 111C251.724 110.44 252.86 110.16 254.14 110.16C255.404 110.16 256.532 110.44 257.524 111C258.532 111.544 259.316 112.304 259.876 113.28C260.452 114.24 260.74 115.36 260.74 116.64C260.74 117.904 260.452 119.024 259.876 120C259.316 120.976 258.532 121.744 257.524 122.304C256.532 122.864 255.404 123.144 254.14 123.144ZM254.14 121.128C254.956 121.128 255.684 120.944 256.324 120.576C256.98 120.208 257.492 119.688 257.86 119.016C258.228 118.328 258.412 117.536 258.412 116.64C258.412 115.728 258.228 114.944 257.86 114.288C257.492 113.616 256.98 113.096 256.324 112.728C255.684 112.36 254.956 112.176 254.14 112.176C253.324 112.176 252.596 112.36 251.956 112.728C251.316 113.096 250.804 113.616 250.42 114.288C250.036 114.944 249.844 115.728 249.844 116.64C249.844 117.536 250.036 118.328 250.42 119.016C250.804 119.688 251.316 120.208 251.956 120.576C252.596 120.944 253.324 121.128 254.14 121.128ZM270.708 123V106.2H273.108V123H270.708ZM284.593 110.16C285.633 110.16 286.545 110.36 287.329 110.76C288.129 111.16 288.753 111.768 289.201 112.584C289.649 113.4 289.873 114.432 289.873 115.68V123H287.569V115.944C287.569 114.712 287.265 113.784 286.657 113.16C286.065 112.536 285.225 112.224 284.137 112.224C283.321 112.224 282.609 112.384 282.001 112.704C281.393 113.024 280.921 113.496 280.585 114.12C280.265 114.744 280.105 115.52 280.105 116.448V123H277.801V110.28H280.009V113.712L279.649 112.8C280.065 111.968 280.705 111.32 281.569 110.856C282.433 110.392 283.441 110.16 284.593 110.16ZM297.239 123L291.671 110.28H294.071L299.015 121.8H297.863L302.903 110.28H305.159L299.591 123H297.239ZM312.621 123.144C311.261 123.144 310.061 122.864 309.021 122.304C307.997 121.744 307.197 120.976 306.621 120C306.061 119.024 305.781 117.904 305.781 116.64C305.781 115.376 306.053 114.256 306.597 113.28C307.157 112.304 307.917 111.544 308.877 111C309.853 110.44 310.949 110.16 312.165 110.16C313.397 110.16 314.485 110.432 315.429 110.976C316.373 111.52 317.109 112.288 317.637 113.28C318.181 114.256 318.453 115.4 318.453 116.712C318.453 116.808 318.445 116.92 318.429 117.048C318.429 117.176 318.421 117.296 318.405 117.408H307.581V115.752H317.205L316.269 116.328C316.285 115.512 316.117 114.784 315.765 114.144C315.413 113.504 314.925 113.008 314.301 112.656C313.693 112.288 312.981 112.104 312.165 112.104C311.365 112.104 310.653 112.288 310.029 112.656C309.405 113.008 308.917 113.512 308.565 114.168C308.213 114.808 308.037 115.544 308.037 116.376V116.76C308.037 117.608 308.229 118.368 308.613 119.04C309.013 119.696 309.565 120.208 310.269 120.576C310.973 120.944 311.781 121.128 312.693 121.128C313.445 121.128 314.125 121 314.733 120.744C315.357 120.488 315.901 120.104 316.365 119.592L317.637 121.08C317.061 121.752 316.341 122.264 315.477 122.616C314.629 122.968 313.677 123.144 312.621 123.144ZM325.301 123.144C324.245 123.144 323.237 123 322.277 122.712C321.333 122.424 320.589 122.072 320.045 121.656L321.005 119.832C321.549 120.2 322.221 120.512 323.021 120.768C323.821 121.024 324.637 121.152 325.469 121.152C326.541 121.152 327.309 121 327.773 120.696C328.253 120.392 328.493 119.968 328.493 119.424C328.493 119.024 328.349 118.712 328.061 118.488C327.773 118.264 327.389 118.096 326.909 117.984C326.445 117.872 325.925 117.776 325.349 117.696C324.773 117.6 324.197 117.488 323.621 117.36C323.045 117.216 322.517 117.024 322.037 116.784C321.557 116.528 321.173 116.184 320.885 115.752C320.597 115.304 320.453 114.712 320.453 113.976C320.453 113.208 320.669 112.536 321.101 111.96C321.533 111.384 322.141 110.944 322.925 110.64C323.725 110.32 324.669 110.16 325.757 110.16C326.589 110.16 327.429 110.264 328.277 110.472C329.141 110.664 329.845 110.944 330.389 111.312L329.405 113.136C328.829 112.752 328.229 112.488 327.605 112.344C326.981 112.2 326.357 112.128 325.733 112.128C324.725 112.128 323.973 112.296 323.477 112.632C322.981 112.952 322.733 113.368 322.733 113.88C322.733 114.312 322.877 114.648 323.165 114.888C323.469 115.112 323.853 115.288 324.317 115.416C324.797 115.544 325.325 115.656 325.901 115.752C326.477 115.832 327.053 115.944 327.629 116.088C328.205 116.216 328.725 116.4 329.189 116.64C329.669 116.88 330.053 117.216 330.341 117.648C330.645 118.08 330.797 118.656 330.797 119.376C330.797 120.144 330.573 120.808 330.125 121.368C329.677 121.928 329.045 122.368 328.229 122.688C327.413 122.992 326.437 123.144 325.301 123.144ZM338.044 123.144C336.764 123.144 335.772 122.8 335.068 122.112C334.364 121.424 334.012 120.44 334.012 119.16V107.496H336.316V119.064C336.316 119.752 336.484 120.28 336.82 120.648C337.172 121.016 337.668 121.2 338.308 121.2C339.028 121.2 339.628 121 340.108 120.6L340.828 122.256C340.476 122.56 340.052 122.784 339.556 122.928C339.076 123.072 338.572 123.144 338.044 123.144ZM331.852 112.176V110.28H339.964V112.176H331.852ZM343.614 123V110.28H345.918V123H343.614ZM344.766 107.832C344.318 107.832 343.942 107.688 343.638 107.4C343.35 107.112 343.206 106.76 343.206 106.344C343.206 105.912 343.35 105.552 343.638 105.264C343.942 104.976 344.318 104.832 344.766 104.832C345.214 104.832 345.582 104.976 345.87 105.264C346.174 105.536 346.326 105.88 346.326 106.296C346.326 106.728 346.182 107.096 345.894 107.4C345.606 107.688 345.23 107.832 344.766 107.832ZM357.109 110.16C358.149 110.16 359.061 110.36 359.845 110.76C360.645 111.16 361.269 111.768 361.717 112.584C362.165 113.4 362.389 114.432 362.389 115.68V123H360.085V115.944C360.085 114.712 359.781 113.784 359.173 113.16C358.581 112.536 357.741 112.224 356.653 112.224C355.837 112.224 355.125 112.384 354.517 112.704C353.909 113.024 353.437 113.496 353.101 114.12C352.781 114.744 352.621 115.52 352.621 116.448V123H350.317V110.28H352.525V113.712L352.165 112.8C352.581 111.968 353.221 111.32 354.085 110.856C354.949 110.392 355.957 110.16 357.109 110.16ZM372.221 127.8C371.053 127.8 369.917 127.632 368.813 127.296C367.725 126.976 366.837 126.512 366.149 125.904L367.253 124.128C367.845 124.64 368.573 125.04 369.437 125.328C370.301 125.632 371.205 125.784 372.149 125.784C373.653 125.784 374.757 125.432 375.461 124.728C376.165 124.024 376.517 122.952 376.517 121.512V118.824L376.757 116.304L376.637 113.76V110.28H378.821V121.272C378.821 123.512 378.261 125.16 377.141 126.216C376.021 127.272 374.381 127.8 372.221 127.8ZM371.933 122.472C370.701 122.472 369.597 122.216 368.621 121.704C367.661 121.176 366.893 120.448 366.317 119.52C365.757 118.592 365.477 117.52 365.477 116.304C365.477 115.072 365.757 114 366.317 113.088C366.893 112.16 367.661 111.44 368.621 110.928C369.597 110.416 370.701 110.16 371.933 110.16C373.021 110.16 374.013 110.384 374.909 110.832C375.805 111.264 376.517 111.936 377.045 112.848C377.589 113.76 377.861 114.912 377.861 116.304C377.861 117.68 377.589 118.824 377.045 119.736C376.517 120.648 375.805 121.336 374.909 121.8C374.013 122.248 373.021 122.472 371.933 122.472ZM372.197 120.456C373.045 120.456 373.797 120.28 374.453 119.928C375.109 119.576 375.621 119.088 375.989 118.464C376.373 117.84 376.565 117.12 376.565 116.304C376.565 115.488 376.373 114.768 375.989 114.144C375.621 113.52 375.109 113.04 374.453 112.704C373.797 112.352 373.045 112.176 372.197 112.176C371.349 112.176 370.589 112.352 369.917 112.704C369.261 113.04 368.741 113.52 368.357 114.144C367.989 114.768 367.805 115.488 367.805 116.304C367.805 117.12 367.989 117.84 368.357 118.464C368.741 119.088 369.261 119.576 369.917 119.928C370.589 120.28 371.349 120.456 372.197 120.456Z" fill="white"/>
<path d="M39 180C39 171.163 46.1634 164 55 164H409V228H55C46.1634 228 39 220.837 39 212V180Z" fill="#202020"/>
<path d="M39.5 180C39.5 171.44 46.4396 164.5 55 164.5H408.5V227.5H55C46.4396 227.5 39.5 220.56 39.5 212V180Z" stroke="white" stroke-opacity="0.01"/>
<path d="M39.5 180C39.5 171.44 46.4396 164.5 55 164.5H408.5V227.5H55C46.4396 227.5 39.5 220.56 39.5 212V180Z" stroke="url(#paint2_radial_2_776)" stroke-opacity="0.12"/>
<rect x="55" y="176" width="40" height="40" rx="8" fill="#D06604"/>
<path d="M68.625 187.75C67.1753 187.75 66 188.925 66 190.375C66 191.825 67.1753 193 68.625 193H81.375C82.8247 193 84 191.825 84 190.375C84 188.925 82.8247 187.75 81.375 187.75H68.625Z" fill="white"/>
<path d="M66.75 195.25C66.3358 195.25 66 195.586 66 196C66 196.414 66.3358 196.75 66.75 196.75H83.25C83.6642 196.75 84 196.414 84 196C84 195.586 83.6642 195.25 83.25 195.25H66.75Z" fill="white"/>
<path d="M66 199.75C66 199.336 66.3358 199 66.75 199H83.25C83.6642 199 84 199.336 84 199.75C84 200.164 83.6642 200.5 83.25 200.5H66.75C66.3358 200.5 66 200.164 66 199.75Z" fill="white"/>
<path d="M66.75 202.75C66.3358 202.75 66 203.086 66 203.5C66 203.914 66.3358 204.25 66.75 204.25H83.25C83.6642 204.25 84 203.914 84 203.5C84 203.086 83.6642 202.75 83.25 202.75H66.75Z" fill="white"/>
<path d="M117.18 203.16C116.113 203.16 115.093 203 114.12 202.68C113.147 202.347 112.38 201.92 111.82 201.4L112.56 199.84C113.093 200.307 113.773 200.693 114.6 201C115.427 201.307 116.287 201.46 117.18 201.46C117.993 201.46 118.653 201.367 119.16 201.18C119.667 200.993 120.04 200.74 120.28 200.42C120.52 200.087 120.64 199.713 120.64 199.3C120.64 198.82 120.48 198.433 120.16 198.14C119.853 197.847 119.447 197.613 118.94 197.44C118.447 197.253 117.9 197.093 117.3 196.96C116.7 196.827 116.093 196.673 115.48 196.5C114.88 196.313 114.327 196.08 113.82 195.8C113.327 195.52 112.927 195.147 112.62 194.68C112.313 194.2 112.16 193.587 112.16 192.84C112.16 192.12 112.347 191.46 112.72 190.86C113.107 190.247 113.693 189.76 114.48 189.4C115.28 189.027 116.293 188.84 117.52 188.84C118.333 188.84 119.14 188.947 119.94 189.16C120.74 189.373 121.433 189.68 122.02 190.08L121.36 191.68C120.76 191.28 120.127 190.993 119.46 190.82C118.793 190.633 118.147 190.54 117.52 190.54C116.733 190.54 116.087 190.64 115.58 190.84C115.073 191.04 114.7 191.307 114.46 191.64C114.233 191.973 114.12 192.347 114.12 192.76C114.12 193.253 114.273 193.647 114.58 193.94C114.9 194.233 115.307 194.467 115.8 194.64C116.307 194.813 116.86 194.973 117.46 195.12C118.06 195.253 118.66 195.407 119.26 195.58C119.873 195.753 120.427 195.98 120.92 196.26C121.427 196.54 121.833 196.913 122.14 197.38C122.447 197.847 122.6 198.447 122.6 199.18C122.6 199.887 122.407 200.547 122.02 201.16C121.633 201.76 121.033 202.247 120.22 202.62C119.42 202.98 118.407 203.16 117.18 203.16ZM129.702 203.12C128.795 203.12 127.995 202.953 127.302 202.62C126.622 202.287 126.089 201.78 125.702 201.1C125.329 200.407 125.142 199.54 125.142 198.5V192.4H127.062V198.28C127.062 199.32 127.309 200.1 127.802 200.62C128.309 201.14 129.015 201.4 129.922 201.4C130.589 201.4 131.169 201.267 131.662 201C132.155 200.72 132.535 200.32 132.802 199.8C133.069 199.267 133.202 198.627 133.202 197.88V192.4H135.122V203H133.302V200.14L133.602 200.9C133.255 201.607 132.735 202.153 132.042 202.54C131.349 202.927 130.569 203.12 129.702 203.12ZM141.817 203.12C140.937 203.12 140.097 203 139.297 202.76C138.51 202.52 137.89 202.227 137.437 201.88L138.237 200.36C138.69 200.667 139.25 200.927 139.917 201.14C140.584 201.353 141.264 201.46 141.957 201.46C142.85 201.46 143.49 201.333 143.877 201.08C144.277 200.827 144.477 200.473 144.477 200.02C144.477 199.687 144.357 199.427 144.117 199.24C143.877 199.053 143.557 198.913 143.157 198.82C142.77 198.727 142.337 198.647 141.857 198.58C141.377 198.5 140.897 198.407 140.417 198.3C139.937 198.18 139.497 198.02 139.097 197.82C138.697 197.607 138.377 197.32 138.137 196.96C137.897 196.587 137.777 196.093 137.777 195.48C137.777 194.84 137.957 194.28 138.317 193.8C138.677 193.32 139.184 192.953 139.837 192.7C140.504 192.433 141.29 192.3 142.197 192.3C142.89 192.3 143.59 192.387 144.297 192.56C145.017 192.72 145.604 192.953 146.057 193.26L145.237 194.78C144.757 194.46 144.257 194.24 143.737 194.12C143.217 194 142.697 193.94 142.177 193.94C141.337 193.94 140.71 194.08 140.297 194.36C139.884 194.627 139.677 194.973 139.677 195.4C139.677 195.76 139.797 196.04 140.037 196.24C140.29 196.427 140.61 196.573 140.997 196.68C141.397 196.787 141.837 196.88 142.317 196.96C142.797 197.027 143.277 197.12 143.757 197.24C144.237 197.347 144.67 197.5 145.057 197.7C145.457 197.9 145.777 198.18 146.017 198.54C146.27 198.9 146.397 199.38 146.397 199.98C146.397 200.62 146.21 201.173 145.837 201.64C145.464 202.107 144.937 202.473 144.257 202.74C143.577 202.993 142.764 203.12 141.817 203.12ZM152.437 203.12C151.37 203.12 150.543 202.833 149.957 202.26C149.37 201.687 149.077 200.867 149.077 199.8V190.08H150.997V199.72C150.997 200.293 151.137 200.733 151.417 201.04C151.71 201.347 152.123 201.5 152.657 201.5C153.257 201.5 153.757 201.333 154.157 201L154.757 202.38C154.463 202.633 154.11 202.82 153.697 202.94C153.297 203.06 152.877 203.12 152.437 203.12ZM147.277 193.98V192.4H154.037V193.98H147.277ZM163.658 203V200.76L163.558 200.34V196.52C163.558 195.707 163.318 195.08 162.838 194.64C162.371 194.187 161.664 193.96 160.718 193.96C160.091 193.96 159.478 194.067 158.878 194.28C158.278 194.48 157.771 194.753 157.358 195.1L156.558 193.66C157.104 193.22 157.758 192.887 158.518 192.66C159.291 192.42 160.098 192.3 160.938 192.3C162.391 192.3 163.511 192.653 164.298 193.36C165.084 194.067 165.478 195.147 165.478 196.6V203H163.658ZM160.178 203.12C159.391 203.12 158.698 202.987 158.098 202.72C157.511 202.453 157.058 202.087 156.738 201.62C156.418 201.14 156.258 200.6 156.258 200C156.258 199.427 156.391 198.907 156.658 198.44C156.938 197.973 157.384 197.6 157.998 197.32C158.624 197.04 159.464 196.9 160.518 196.9H163.878V198.28H160.598C159.638 198.28 158.991 198.44 158.658 198.76C158.324 199.08 158.158 199.467 158.158 199.92C158.158 200.44 158.364 200.86 158.778 201.18C159.191 201.487 159.764 201.64 160.498 201.64C161.218 201.64 161.844 201.48 162.378 201.16C162.924 200.84 163.318 200.373 163.558 199.76L163.938 201.08C163.684 201.707 163.238 202.207 162.598 202.58C161.958 202.94 161.151 203.12 160.178 203.12ZM169.031 203V192.4H170.951V203H169.031ZM169.991 190.36C169.618 190.36 169.304 190.24 169.051 190C168.811 189.76 168.691 189.467 168.691 189.12C168.691 188.76 168.811 188.46 169.051 188.22C169.304 187.98 169.618 187.86 169.991 187.86C170.364 187.86 170.671 187.98 170.911 188.22C171.164 188.447 171.291 188.733 171.291 189.08C171.291 189.44 171.171 189.747 170.931 190C170.691 190.24 170.378 190.36 169.991 190.36ZM180.277 192.3C181.144 192.3 181.904 192.467 182.557 192.8C183.224 193.133 183.744 193.64 184.117 194.32C184.49 195 184.677 195.86 184.677 196.9V203H182.757V197.12C182.757 196.093 182.504 195.32 181.997 194.8C181.504 194.28 180.804 194.02 179.897 194.02C179.217 194.02 178.624 194.153 178.117 194.42C177.61 194.687 177.217 195.08 176.937 195.6C176.67 196.12 176.537 196.767 176.537 197.54V203H174.617V192.4H176.457V195.26L176.157 194.5C176.504 193.807 177.037 193.267 177.757 192.88C178.477 192.493 179.317 192.3 180.277 192.3ZM194.81 203V200.76L194.71 200.34V196.52C194.71 195.707 194.47 195.08 193.99 194.64C193.523 194.187 192.817 193.96 191.87 193.96C191.243 193.96 190.63 194.067 190.03 194.28C189.43 194.48 188.923 194.753 188.51 195.1L187.71 193.66C188.257 193.22 188.91 192.887 189.67 192.66C190.443 192.42 191.25 192.3 192.09 192.3C193.543 192.3 194.663 192.653 195.45 193.36C196.237 194.067 196.63 195.147 196.63 196.6V203H194.81ZM191.33 203.12C190.543 203.12 189.85 202.987 189.25 202.72C188.663 202.453 188.21 202.087 187.89 201.62C187.57 201.14 187.41 200.6 187.41 200C187.41 199.427 187.543 198.907 187.81 198.44C188.09 197.973 188.537 197.6 189.15 197.32C189.777 197.04 190.617 196.9 191.67 196.9H195.03V198.28H191.75C190.79 198.28 190.143 198.44 189.81 198.76C189.477 199.08 189.31 199.467 189.31 199.92C189.31 200.44 189.517 200.86 189.93 201.18C190.343 201.487 190.917 201.64 191.65 201.64C192.37 201.64 192.997 201.48 193.53 201.16C194.077 200.84 194.47 200.373 194.71 199.76L195.09 201.08C194.837 201.707 194.39 202.207 193.75 202.58C193.11 202.94 192.303 203.12 191.33 203.12ZM205.803 203.12C204.897 203.12 204.077 202.92 203.343 202.52C202.623 202.107 202.05 201.5 201.623 200.7C201.21 199.9 201.003 198.9 201.003 197.7C201.003 196.5 201.217 195.5 201.643 194.7C202.083 193.9 202.663 193.3 203.383 192.9C204.117 192.5 204.923 192.3 205.803 192.3C206.843 192.3 207.763 192.527 208.563 192.98C209.363 193.433 209.997 194.067 210.463 194.88C210.93 195.68 211.163 196.62 211.163 197.7C211.163 198.78 210.93 199.727 210.463 200.54C209.997 201.353 209.363 201.987 208.563 202.44C207.763 202.893 206.843 203.12 205.803 203.12ZM200.183 203V188.16H202.103V195.22L201.903 197.68L202.023 200.14V203H200.183ZM205.643 201.44C206.323 201.44 206.93 201.287 207.463 200.98C208.01 200.673 208.437 200.24 208.743 199.68C209.063 199.107 209.223 198.447 209.223 197.7C209.223 196.94 209.063 196.287 208.743 195.74C208.437 195.18 208.01 194.747 207.463 194.44C206.93 194.133 206.323 193.98 205.643 193.98C204.977 193.98 204.37 194.133 203.823 194.44C203.29 194.747 202.863 195.18 202.543 195.74C202.237 196.287 202.083 196.94 202.083 197.7C202.083 198.447 202.237 199.107 202.543 199.68C202.863 200.24 203.29 200.673 203.823 200.98C204.37 201.287 204.977 201.44 205.643 201.44ZM213.816 203V188.16H215.736V203H213.816ZM224.122 203.12C222.989 203.12 221.989 202.887 221.122 202.42C220.269 201.953 219.602 201.313 219.122 200.5C218.655 199.687 218.422 198.753 218.422 197.7C218.422 196.647 218.649 195.713 219.102 194.9C219.569 194.087 220.202 193.453 221.002 193C221.815 192.533 222.729 192.3 223.742 192.3C224.769 192.3 225.675 192.527 226.462 192.98C227.249 193.433 227.862 194.073 228.302 194.9C228.755 195.713 228.982 196.667 228.982 197.76C228.982 197.84 228.975 197.933 228.962 198.04C228.962 198.147 228.955 198.247 228.942 198.34H219.922V196.96H227.942L227.162 197.44C227.175 196.76 227.035 196.153 226.742 195.62C226.449 195.087 226.042 194.673 225.522 194.38C225.015 194.073 224.422 193.92 223.742 193.92C223.075 193.92 222.482 194.073 221.962 194.38C221.442 194.673 221.035 195.093 220.742 195.64C220.449 196.173 220.302 196.787 220.302 197.48V197.8C220.302 198.507 220.462 199.14 220.782 199.7C221.115 200.247 221.575 200.673 222.162 200.98C222.749 201.287 223.422 201.44 224.182 201.44C224.809 201.44 225.375 201.333 225.882 201.12C226.402 200.907 226.855 200.587 227.242 200.16L228.302 201.4C227.822 201.96 227.222 202.387 226.502 202.68C225.795 202.973 225.002 203.12 224.122 203.12ZM237.299 203V189H239.299V203H237.299ZM248.871 192.3C249.737 192.3 250.497 192.467 251.151 192.8C251.817 193.133 252.337 193.64 252.711 194.32C253.084 195 253.271 195.86 253.271 196.9V203H251.351V197.12C251.351 196.093 251.097 195.32 250.591 194.8C250.097 194.28 249.397 194.02 248.491 194.02C247.811 194.02 247.217 194.153 246.711 194.42C246.204 194.687 245.811 195.08 245.531 195.6C245.264 196.12 245.131 196.767 245.131 197.54V203H243.211V192.4H245.051V195.26L244.751 194.5C245.097 193.807 245.631 193.267 246.351 192.88C247.071 192.493 247.911 192.3 248.871 192.3ZM259.409 203L254.769 192.4H256.769L260.889 202H259.929L264.129 192.4H266.009L261.369 203H259.409ZM272.228 203.12C271.094 203.12 270.094 202.887 269.228 202.42C268.374 201.953 267.708 201.313 267.228 200.5C266.761 199.687 266.528 198.753 266.528 197.7C266.528 196.647 266.754 195.713 267.208 194.9C267.674 194.087 268.308 193.453 269.108 193C269.921 192.533 270.834 192.3 271.848 192.3C272.874 192.3 273.781 192.527 274.568 192.98C275.354 193.433 275.968 194.073 276.408 194.9C276.861 195.713 277.088 196.667 277.088 197.76C277.088 197.84 277.081 197.933 277.068 198.04C277.068 198.147 277.061 198.247 277.048 198.34H268.028V196.96H276.048L275.268 197.44C275.281 196.76 275.141 196.153 274.848 195.62C274.554 195.087 274.148 194.673 273.628 194.38C273.121 194.073 272.528 193.92 271.848 193.92C271.181 193.92 270.588 194.073 270.068 194.38C269.548 194.673 269.141 195.093 268.848 195.64C268.554 196.173 268.408 196.787 268.408 197.48V197.8C268.408 198.507 268.568 199.14 268.888 199.7C269.221 200.247 269.681 200.673 270.268 200.98C270.854 201.287 271.528 201.44 272.288 201.44C272.914 201.44 273.481 201.333 273.988 201.12C274.508 200.907 274.961 200.587 275.348 200.16L276.408 201.4C275.928 201.96 275.328 202.387 274.608 202.68C273.901 202.973 273.108 203.12 272.228 203.12ZM282.794 203.12C281.914 203.12 281.074 203 280.274 202.76C279.487 202.52 278.867 202.227 278.414 201.88L279.214 200.36C279.667 200.667 280.227 200.927 280.894 201.14C281.56 201.353 282.24 201.46 282.934 201.46C283.827 201.46 284.467 201.333 284.854 201.08C285.254 200.827 285.454 200.473 285.454 200.02C285.454 199.687 285.334 199.427 285.094 199.24C284.854 199.053 284.534 198.913 284.134 198.82C283.747 198.727 283.314 198.647 282.834 198.58C282.354 198.5 281.874 198.407 281.394 198.3C280.914 198.18 280.474 198.02 280.074 197.82C279.674 197.607 279.354 197.32 279.114 196.96C278.874 196.587 278.754 196.093 278.754 195.48C278.754 194.84 278.934 194.28 279.294 193.8C279.654 193.32 280.16 192.953 280.814 192.7C281.48 192.433 282.267 192.3 283.174 192.3C283.867 192.3 284.567 192.387 285.274 192.56C285.994 192.72 286.58 192.953 287.034 193.26L286.214 194.78C285.734 194.46 285.234 194.24 284.714 194.12C284.194 194 283.674 193.94 283.154 193.94C282.314 193.94 281.687 194.08 281.274 194.36C280.86 194.627 280.654 194.973 280.654 195.4C280.654 195.76 280.774 196.04 281.014 196.24C281.267 196.427 281.587 196.573 281.974 196.68C282.374 196.787 282.814 196.88 283.294 196.96C283.774 197.027 284.254 197.12 284.734 197.24C285.214 197.347 285.647 197.5 286.034 197.7C286.434 197.9 286.754 198.18 286.994 198.54C287.247 198.9 287.374 199.38 287.374 199.98C287.374 200.62 287.187 201.173 286.814 201.64C286.44 202.107 285.914 202.473 285.234 202.74C284.554 202.993 283.74 203.12 282.794 203.12ZM293.413 203.12C292.346 203.12 291.52 202.833 290.933 202.26C290.346 201.687 290.053 200.867 290.053 199.8V190.08H291.973V199.72C291.973 200.293 292.113 200.733 292.393 201.04C292.686 201.347 293.1 201.5 293.633 201.5C294.233 201.5 294.733 201.333 295.133 201L295.733 202.38C295.44 202.633 295.086 202.82 294.673 202.94C294.273 203.06 293.853 203.12 293.413 203.12ZM288.253 193.98V192.4H295.013V193.98H288.253ZM298.054 203V192.4H299.974V203H298.054ZM299.014 190.36C298.641 190.36 298.328 190.24 298.074 190C297.834 189.76 297.714 189.467 297.714 189.12C297.714 188.76 297.834 188.46 298.074 188.22C298.328 187.98 298.641 187.86 299.014 187.86C299.388 187.86 299.694 187.98 299.934 188.22C300.188 188.447 300.314 188.733 300.314 189.08C300.314 189.44 300.194 189.747 299.954 190C299.714 190.24 299.401 190.36 299.014 190.36ZM309.3 192.3C310.167 192.3 310.927 192.467 311.58 192.8C312.247 193.133 312.767 193.64 313.14 194.32C313.514 195 313.7 195.86 313.7 196.9V203H311.78V197.12C311.78 196.093 311.527 195.32 311.02 194.8C310.527 194.28 309.827 194.02 308.92 194.02C308.24 194.02 307.647 194.153 307.14 194.42C306.634 194.687 306.24 195.08 305.96 195.6C305.694 196.12 305.56 196.767 305.56 197.54V203H303.64V192.4H305.48V195.26L305.18 194.5C305.527 193.807 306.06 193.267 306.78 192.88C307.5 192.493 308.34 192.3 309.3 192.3ZM321.894 207C320.92 207 319.974 206.86 319.054 206.58C318.147 206.313 317.407 205.927 316.834 205.42L317.754 203.94C318.247 204.367 318.854 204.7 319.574 204.94C320.294 205.193 321.047 205.32 321.834 205.32C323.087 205.32 324.007 205.027 324.594 204.44C325.18 203.853 325.474 202.96 325.474 201.76V199.52L325.674 197.42L325.574 195.3V192.4H327.394V201.56C327.394 203.427 326.927 204.8 325.994 205.68C325.06 206.56 323.694 207 321.894 207ZM321.654 202.56C320.627 202.56 319.707 202.347 318.894 201.92C318.094 201.48 317.454 200.873 316.974 200.1C316.507 199.327 316.274 198.433 316.274 197.42C316.274 196.393 316.507 195.5 316.974 194.74C317.454 193.967 318.094 193.367 318.894 192.94C319.707 192.513 320.627 192.3 321.654 192.3C322.56 192.3 323.387 192.487 324.134 192.86C324.88 193.22 325.474 193.78 325.914 194.54C326.367 195.3 326.594 196.26 326.594 197.42C326.594 198.567 326.367 199.52 325.914 200.28C325.474 201.04 324.88 201.613 324.134 202C323.387 202.373 322.56 202.56 321.654 202.56ZM321.874 200.88C322.58 200.88 323.207 200.733 323.754 200.44C324.3 200.147 324.727 199.74 325.034 199.22C325.354 198.7 325.514 198.1 325.514 197.42C325.514 196.74 325.354 196.14 325.034 195.62C324.727 195.1 324.3 194.7 323.754 194.42C323.207 194.127 322.58 193.98 321.874 193.98C321.167 193.98 320.534 194.127 319.974 194.42C319.427 194.7 318.994 195.1 318.674 195.62C318.367 196.14 318.214 196.74 318.214 197.42C318.214 198.1 318.367 198.7 318.674 199.22C318.994 199.74 319.427 200.147 319.974 200.44C320.534 200.733 321.167 200.88 321.874 200.88Z" fill="white"/>
<defs>
<radialGradient id="paint0_radial_2_776" cx="0" cy="0" r="1" gradientUnits="userSpaceOnUse" gradientTransform="translate(224) rotate(90) scale(40.9244 236.594)">
<stop stop-color="white"/>
<stop offset="1" stop-color="white" stop-opacity="0"/>
</radialGradient>
<radialGradient id="paint1_radial_2_776" cx="0" cy="0" r="1" gradientUnits="userSpaceOnUse" gradientTransform="translate(204.5 76) rotate(90) scale(48.5978 261.533)">
<stop stop-color="white"/>
<stop offset="1" stop-color="white" stop-opacity="0"/>
</radialGradient>
<radialGradient id="paint2_radial_2_776" cx="0" cy="0" r="1" gradientUnits="userSpaceOnUse" gradientTransform="translate(224 164) rotate(90) scale(40.9244 236.594)">
<stop stop-color="white"/>
<stop offset="1" stop-color="white" stop-opacity="0"/>
</radialGradient>
</defs>
</svg>
