<svg width="822" height="270" viewBox="0 0 822 270" fill="none" xmlns="http://www.w3.org/2000/svg">
<rect x="211" y="10" width="118.771" height="118.771" rx="10" fill="#202020"/>
<rect x="211.5" y="10.5" width="117.771" height="117.771" rx="9.5" stroke="white" stroke-opacity="0.04"/>
<rect x="211.5" y="10.5" width="117.771" height="117.771" rx="9.5" stroke="url(#paint0_linear_253_242)" stroke-opacity="0.12"/>
<path d="M253.788 58.3754C255.111 57.2082 256.848 56.5 258.75 56.5H281.25C283.152 56.5 284.889 57.2082 286.211 58.3754C285.904 55.9088 283.8 54 281.25 54H258.75C256.2 54 254.096 55.9088 253.788 58.3754Z" fill="white"/>
<path d="M253.788 63.3754C255.111 62.2082 256.848 61.5 258.75 61.5H281.25C283.152 61.5 284.889 62.2082 286.211 63.3754C285.904 60.9088 283.8 59 281.25 59H258.75C256.2 59 254.096 60.9088 253.788 63.3754Z" fill="white"/>
<path d="M258.75 64C255.989 64 253.75 66.2386 253.75 69V79C253.75 81.7614 255.989 84 258.75 84H281.25C284.011 84 286.25 81.7614 286.25 79V69C286.25 66.2386 284.011 64 281.25 64H275C274.31 64 273.75 64.5596 273.75 65.25C273.75 67.3211 272.071 69 270 69C267.929 69 266.25 67.3211 266.25 65.25C266.25 64.5596 265.69 64 265 64H258.75Z" fill="white"/>
<rect x="211" y="150.615" width="118.771" height="118.771" rx="10" fill="#202020"/>
<rect x="211.5" y="151.115" width="117.771" height="117.771" rx="9.5" stroke="white" stroke-opacity="0.04"/>
<rect x="211.5" y="151.115" width="117.771" height="117.771" rx="9.5" stroke="url(#paint1_linear_253_242)" stroke-opacity="0.12"/>
<path fill-rule="evenodd" clip-rule="evenodd" d="M262.5 199.615V200.865H259.188C257.589 200.865 256.248 202.072 256.08 203.662L253.975 223.662C253.781 225.507 255.228 227.115 257.083 227.115H282.917C284.773 227.115 286.219 225.507 286.025 223.662L283.92 203.662C283.753 202.072 282.411 200.865 280.812 200.865H277.5V199.615C277.5 195.472 274.142 192.115 270 192.115C265.858 192.115 262.5 195.472 262.5 199.615ZM270 194.615C267.239 194.615 265 196.853 265 199.615V200.865H275V199.615C275 196.853 272.761 194.615 270 194.615ZM265 208.365C265 211.126 267.239 213.365 270 213.365C272.761 213.365 275 211.126 275 208.365V207.115C275 206.424 275.56 205.865 276.25 205.865C276.94 205.865 277.5 206.424 277.5 207.115V208.365C277.5 212.507 274.142 215.865 270 215.865C265.858 215.865 262.5 212.507 262.5 208.365V207.115C262.5 206.424 263.06 205.865 263.75 205.865C264.44 205.865 265 206.424 265 207.115V208.365Z" fill="white"/>
<rect x="351.614" y="10" width="118.771" height="118.771" rx="10" fill="#202020"/>
<rect x="352.114" y="10.5" width="117.771" height="117.771" rx="9.5" stroke="white" stroke-opacity="0.04"/>
<rect x="352.114" y="10.5" width="117.771" height="117.771" rx="9.5" stroke="url(#paint2_linear_253_242)" stroke-opacity="0.12"/>
<path fill-rule="evenodd" clip-rule="evenodd" d="M393.114 59.625C393.114 57.8991 394.513 56.5 396.239 56.5H424.989C426.715 56.5 428.114 57.8991 428.114 59.625V64.6689C428.114 65.1151 427.876 65.5275 427.49 65.7509C426.366 66.4012 425.614 67.6135 425.614 69C425.614 70.3865 426.366 71.5988 427.49 72.2491C427.876 72.4725 428.114 72.8849 428.114 73.3311V78.375C428.114 80.1009 426.715 81.5 424.989 81.5H396.239C394.513 81.5 393.114 80.1009 393.114 78.375V73.3311C393.114 72.8849 393.352 72.4725 393.738 72.2491C394.863 71.5988 395.614 70.3865 395.614 69C395.614 67.6135 394.863 66.4012 393.738 65.7509C393.352 65.5275 393.114 65.1151 393.114 64.6689V59.625ZM418.114 57.75C418.805 57.75 419.364 58.3096 419.364 59V60.25C419.364 60.9404 418.805 61.5 418.114 61.5C417.424 61.5 416.864 60.9404 416.864 60.25V59C416.864 58.3096 417.424 57.75 418.114 57.75ZM419.364 65.25C419.364 64.5596 418.805 64 418.114 64C417.424 64 416.864 64.5596 416.864 65.25V66.5C416.864 67.1904 417.424 67.75 418.114 67.75C418.805 67.75 419.364 67.1904 419.364 66.5V65.25ZM418.114 70.25C418.805 70.25 419.364 70.8096 419.364 71.5V72.75C419.364 73.4404 418.805 74 418.114 74C417.424 74 416.864 73.4404 416.864 72.75V71.5C416.864 70.8096 417.424 70.25 418.114 70.25ZM419.364 77.75C419.364 77.0596 418.805 76.5 418.114 76.5C417.424 76.5 416.864 77.0596 416.864 77.75V79C416.864 79.6904 417.424 80.25 418.114 80.25C418.805 80.25 419.364 79.6904 419.364 79V77.75ZM400.614 69C400.614 68.3096 401.174 67.75 401.864 67.75H410.614C411.305 67.75 411.864 68.3096 411.864 69C411.864 69.6904 411.305 70.25 410.614 70.25H401.864C401.174 70.25 400.614 69.6904 400.614 69ZM401.864 72.75C401.174 72.75 400.614 73.3096 400.614 74C400.614 74.6904 401.174 75.25 401.864 75.25H406.864C407.555 75.25 408.114 74.6904 408.114 74C408.114 73.3096 407.555 72.75 406.864 72.75H401.864Z" fill="white"/>
<rect x="351.614" y="150.615" width="118.771" height="118.771" rx="10" fill="#202020"/>
<rect x="352.114" y="151.115" width="117.771" height="117.771" rx="9.5" stroke="white" stroke-opacity="0.04"/>
<rect x="352.114" y="151.115" width="117.771" height="117.771" rx="9.5" stroke="url(#paint3_linear_253_242)" stroke-opacity="0.12"/>
<path d="M406.239 194.615C404.513 194.615 403.114 196.014 403.114 197.74C403.114 199.465 404.513 200.865 406.239 200.865H409.364V208.365H396.239C394.513 208.365 393.114 206.965 393.114 205.24V203.99C393.114 202.264 394.513 200.865 396.239 200.865H401.562C400.963 199.971 400.614 198.896 400.614 197.74C400.614 194.633 403.133 192.115 406.239 192.115C408.006 192.115 409.583 192.929 410.614 194.204C411.646 192.929 413.222 192.115 414.989 192.115C418.096 192.115 420.614 194.633 420.614 197.74C420.614 198.896 420.265 199.971 419.667 200.865H426.239C427.965 200.865 429.364 202.264 429.364 203.99V205.24C429.364 206.965 427.965 208.365 426.239 208.365H411.864V200.865H414.989C416.715 200.865 418.114 199.465 418.114 197.74C418.114 196.014 416.715 194.615 414.989 194.615C413.263 194.615 411.864 196.014 411.864 197.74V200.865H409.364V197.74C409.364 196.014 407.965 194.615 406.239 194.615Z" fill="white"/>
<path d="M409.364 210.865H395.614V222.115C395.614 224.186 397.293 225.865 399.364 225.865H409.364V210.865Z" fill="white"/>
<path d="M411.864 210.865V225.865H423.114C425.185 225.865 426.864 224.186 426.864 222.115V210.865H411.864Z" fill="white"/>
<rect x="492.229" y="10" width="118.771" height="118.771" rx="10" fill="#202020"/>
<rect x="492.729" y="10.5" width="117.771" height="117.771" rx="9.5" stroke="white" stroke-opacity="0.04"/>
<rect x="492.729" y="10.5" width="117.771" height="117.771" rx="9.5" stroke="url(#paint4_linear_253_242)" stroke-opacity="0.12"/>
<path d="M551.229 61.5C549.158 61.5 547.479 63.1789 547.479 65.25C547.479 67.3211 549.158 69 551.229 69C553.3 69 554.979 67.3211 554.979 65.25C554.979 63.1789 553.3 61.5 551.229 61.5Z" fill="white"/>
<path fill-rule="evenodd" clip-rule="evenodd" d="M533.729 57.125C533.729 55.3991 535.128 54 536.854 54H565.604C567.33 54 568.729 55.3991 568.729 57.125V73.375C568.729 75.1009 567.33 76.5 565.604 76.5H536.854C535.128 76.5 533.729 75.1009 533.729 73.375V57.125ZM544.979 65.25C544.979 61.7982 547.777 59 551.229 59C554.68 59 557.479 61.7982 557.479 65.25C557.479 68.7018 554.68 71.5 551.229 71.5C547.777 71.5 544.979 68.7018 544.979 65.25ZM562.479 64C561.788 64 561.229 64.5596 561.229 65.25V65.2625C561.229 65.9529 561.788 66.5125 562.479 66.5125H562.491C563.182 66.5125 563.741 65.9529 563.741 65.2625V65.25C563.741 64.5596 563.182 64 562.491 64H562.479ZM538.729 65.25C538.729 64.5596 539.288 64 539.979 64H539.991C540.682 64 541.241 64.5596 541.241 65.25V65.2625C541.241 65.9529 540.682 66.5125 539.991 66.5125H539.979C539.288 66.5125 538.729 65.9529 538.729 65.2625V65.25Z" fill="white"/>
<path d="M534.979 79C534.288 79 533.729 79.5596 533.729 80.25C533.729 80.9404 534.288 81.5 534.979 81.5C543.979 81.5 552.696 82.7037 560.978 84.9582C562.963 85.4983 564.979 84.028 564.979 81.9252V80.25C564.979 79.5596 564.419 79 563.729 79H534.979Z" fill="white"/>
<rect x="492.229" y="150.615" width="118.771" height="118.771" rx="10" fill="#202020"/>
<rect x="492.729" y="151.115" width="117.771" height="117.771" rx="9.5" stroke="white" stroke-opacity="0.04"/>
<rect x="492.729" y="151.115" width="117.771" height="117.771" rx="9.5" stroke="url(#paint5_linear_253_242)" stroke-opacity="0.12"/>
<path fill-rule="evenodd" clip-rule="evenodd" d="M540.604 192.115H546.229C549.68 192.115 552.479 194.913 552.479 198.365V201.49C552.479 203.215 553.878 204.615 555.604 204.615H558.729C562.18 204.615 564.979 207.413 564.979 210.865V223.99C564.979 225.715 563.58 227.115 561.854 227.115H540.604C538.878 227.115 537.479 225.715 537.479 223.99V195.24C537.479 193.514 538.878 192.115 540.604 192.115ZM547.479 218.365C547.479 217.674 546.919 217.115 546.229 217.115C545.538 217.115 544.979 217.674 544.979 218.365V219.615C544.979 220.305 545.538 220.865 546.229 220.865C546.919 220.865 547.479 220.305 547.479 219.615V218.365ZM551.229 213.365C551.919 213.365 552.479 213.924 552.479 214.615V219.615C552.479 220.305 551.919 220.865 551.229 220.865C550.538 220.865 549.979 220.305 549.979 219.615V214.615C549.979 213.924 550.538 213.365 551.229 213.365ZM557.479 210.865C557.479 210.174 556.919 209.615 556.229 209.615C555.538 209.615 554.979 210.174 554.979 210.865V219.615C554.979 220.305 555.538 220.865 556.229 220.865C556.919 220.865 557.479 220.305 557.479 219.615V210.865Z" fill="white"/>
<path d="M554.979 198.365C554.979 196.176 554.175 194.175 552.847 192.641C558.512 194.121 562.972 198.581 564.452 204.246C562.918 202.918 560.917 202.115 558.729 202.115H555.604C555.258 202.115 554.979 201.835 554.979 201.49V198.365Z" fill="white"/>
<rect width="822" height="269" fill="url(#paint6_linear_253_242)"/>
<defs>
<linearGradient id="paint0_linear_253_242" x1="270.386" y1="10" x2="270.386" y2="97.9365" gradientUnits="userSpaceOnUse">
<stop stop-color="white"/>
<stop offset="1" stop-color="white" stop-opacity="0"/>
</linearGradient>
<linearGradient id="paint1_linear_253_242" x1="270.386" y1="150.615" x2="270.386" y2="238.551" gradientUnits="userSpaceOnUse">
<stop stop-color="white"/>
<stop offset="1" stop-color="white" stop-opacity="0"/>
</linearGradient>
<linearGradient id="paint2_linear_253_242" x1="411" y1="10" x2="411" y2="97.9365" gradientUnits="userSpaceOnUse">
<stop stop-color="white"/>
<stop offset="1" stop-color="white" stop-opacity="0"/>
</linearGradient>
<linearGradient id="paint3_linear_253_242" x1="411" y1="150.615" x2="411" y2="238.551" gradientUnits="userSpaceOnUse">
<stop stop-color="white"/>
<stop offset="1" stop-color="white" stop-opacity="0"/>
</linearGradient>
<linearGradient id="paint4_linear_253_242" x1="551.614" y1="10" x2="551.614" y2="97.9365" gradientUnits="userSpaceOnUse">
<stop stop-color="white"/>
<stop offset="1" stop-color="white" stop-opacity="0"/>
</linearGradient>
<linearGradient id="paint5_linear_253_242" x1="551.614" y1="150.615" x2="551.614" y2="238.551" gradientUnits="userSpaceOnUse">
<stop stop-color="white"/>
<stop offset="1" stop-color="white" stop-opacity="0"/>
</linearGradient>
<linearGradient id="paint6_linear_253_242" x1="411" y1="0" x2="411" y2="269" gradientUnits="userSpaceOnUse">
<stop stop-color="#131313" stop-opacity="0"/>
<stop offset="1" stop-color="#131313"/>
</linearGradient>
</defs>
</svg>
