<svg width="293" height="190" viewBox="0 0 293 190" fill="none" xmlns="http://www.w3.org/2000/svg">
<rect width="87" height="87" rx="10" fill="#202020"/>
<rect x="0.5" y="0.5" width="86" height="86" rx="9.5" stroke="white" stroke-opacity="0.04"/>
<rect x="0.5" y="0.5" width="86" height="86" rx="9.5" stroke="url(#paint0_linear_2_757)" stroke-opacity="0.12"/>
<path d="M27.7885 33.3754C29.1106 32.2082 30.8475 31.5 32.7498 31.5H55.2498C57.1521 31.5 58.889 32.2082 60.2112 33.3754C59.9038 30.9088 57.7997 29 55.2498 29H32.7498C30.1999 29 28.0958 30.9088 27.7885 33.3754Z" fill="white"/>
<path d="M27.7885 38.3754C29.1106 37.2082 30.8475 36.5 32.7498 36.5H55.2498C57.1521 36.5 58.889 37.2082 60.2112 38.3754C59.9038 35.9088 57.7997 34 55.2498 34H32.7498C30.1999 34 28.0958 35.9088 27.7885 38.3754Z" fill="white"/>
<path d="M32.75 39C29.9886 39 27.75 41.2386 27.75 44V54C27.75 56.7614 29.9886 59 32.75 59H55.25C58.0114 59 60.25 56.7614 60.25 54V44C60.25 41.2386 58.0114 39 55.25 39H49C48.3096 39 47.75 39.5596 47.75 40.25C47.75 42.3211 46.0711 44 44 44C41.9289 44 40.25 42.3211 40.25 40.25C40.25 39.5596 39.6904 39 39 39H32.75Z" fill="white"/>
<rect y="103" width="87" height="87" rx="10" fill="#202020"/>
<rect x="0.5" y="103.5" width="86" height="86" rx="9.5" stroke="white" stroke-opacity="0.04"/>
<rect x="0.5" y="103.5" width="86" height="86" rx="9.5" stroke="url(#paint1_linear_2_757)" stroke-opacity="0.12"/>
<path fill-rule="evenodd" clip-rule="evenodd" d="M36.5 137V138.25H33.1881C31.5889 138.25 30.2477 139.457 30.0803 141.048L27.975 161.048C27.7808 162.893 29.2275 164.5 31.0829 164.5H56.9174C58.7727 164.5 60.2195 162.893 60.0252 161.048L57.92 141.048C57.7525 139.457 56.4114 138.25 54.8121 138.25H51.5V137C51.5 132.858 48.1421 129.5 44 129.5C39.8579 129.5 36.5 132.858 36.5 137ZM44 132C41.2386 132 39 134.239 39 137V138.25H49V137C49 134.239 46.7614 132 44 132ZM39 145.75C39 148.511 41.2386 150.75 44 150.75C46.7614 150.75 49 148.511 49 145.75V144.5C49 143.81 49.5596 143.25 50.25 143.25C50.9404 143.25 51.5 143.81 51.5 144.5V145.75C51.5 149.892 48.1421 153.25 44 153.25C39.8579 153.25 36.5 149.892 36.5 145.75V144.5C36.5 143.81 37.0596 143.25 37.75 143.25C38.4404 143.25 39 143.81 39 144.5V145.75Z" fill="white"/>
<rect x="103" width="87" height="87" rx="10" fill="#202020"/>
<rect x="103.5" y="0.5" width="86" height="86" rx="9.5" stroke="white" stroke-opacity="0.04"/>
<rect x="103.5" y="0.5" width="86" height="86" rx="9.5" stroke="url(#paint2_linear_2_757)" stroke-opacity="0.12"/>
<path fill-rule="evenodd" clip-rule="evenodd" d="M129.5 34.625C129.5 32.8991 130.899 31.5 132.625 31.5H161.375C163.101 31.5 164.5 32.8991 164.5 34.625V39.6689C164.5 40.1151 164.262 40.5275 163.876 40.7509C162.752 41.4012 162 42.6135 162 44C162 45.3865 162.752 46.5988 163.876 47.2491C164.262 47.4725 164.5 47.8849 164.5 48.3311V53.375C164.5 55.1009 163.101 56.5 161.375 56.5H132.625C130.899 56.5 129.5 55.1009 129.5 53.375V48.3311C129.5 47.8849 129.738 47.4725 130.124 47.2491C131.248 46.5988 132 45.3865 132 44C132 42.6135 131.248 41.4012 130.124 40.7509C129.738 40.5275 129.5 40.1151 129.5 39.6689V34.625ZM154.5 32.75C155.19 32.75 155.75 33.3096 155.75 34V35.25C155.75 35.9404 155.19 36.5 154.5 36.5C153.81 36.5 153.25 35.9404 153.25 35.25V34C153.25 33.3096 153.81 32.75 154.5 32.75ZM155.75 40.25C155.75 39.5596 155.19 39 154.5 39C153.81 39 153.25 39.5596 153.25 40.25V41.5C153.25 42.1904 153.81 42.75 154.5 42.75C155.19 42.75 155.75 42.1904 155.75 41.5V40.25ZM154.5 45.25C155.19 45.25 155.75 45.8096 155.75 46.5V47.75C155.75 48.4404 155.19 49 154.5 49C153.81 49 153.25 48.4404 153.25 47.75V46.5C153.25 45.8096 153.81 45.25 154.5 45.25ZM155.75 52.75C155.75 52.0596 155.19 51.5 154.5 51.5C153.81 51.5 153.25 52.0596 153.25 52.75V54C153.25 54.6904 153.81 55.25 154.5 55.25C155.19 55.25 155.75 54.6904 155.75 54V52.75ZM137 44C137 43.3096 137.56 42.75 138.25 42.75H147C147.69 42.75 148.25 43.3096 148.25 44C148.25 44.6904 147.69 45.25 147 45.25H138.25C137.56 45.25 137 44.6904 137 44ZM138.25 47.75C137.56 47.75 137 48.3096 137 49C137 49.6904 137.56 50.25 138.25 50.25H143.25C143.94 50.25 144.5 49.6904 144.5 49C144.5 48.3096 143.94 47.75 143.25 47.75H138.25Z" fill="white"/>
<rect x="103" y="103" width="87" height="87" rx="10" fill="#202020"/>
<rect x="103.5" y="103.5" width="86" height="86" rx="9.5" stroke="white" stroke-opacity="0.04"/>
<rect x="103.5" y="103.5" width="86" height="86" rx="9.5" stroke="url(#paint3_linear_2_757)" stroke-opacity="0.12"/>
<path d="M142.625 132C140.899 132 139.5 133.399 139.5 135.125C139.5 136.851 140.899 138.25 142.625 138.25H145.75V145.75H132.625C130.899 145.75 129.5 144.351 129.5 142.625V141.375C129.5 139.649 130.899 138.25 132.625 138.25H137.947C137.349 137.356 137 136.281 137 135.125C137 132.018 139.518 129.5 142.625 129.5C144.392 129.5 145.969 130.315 147 131.589C148.031 130.315 149.608 129.5 151.375 129.5C154.482 129.5 157 132.018 157 135.125C157 136.281 156.651 137.356 156.053 138.25H162.625C164.351 138.25 165.75 139.649 165.75 141.375V142.625C165.75 144.351 164.351 145.75 162.625 145.75H148.25V138.25H151.375C153.101 138.25 154.5 136.851 154.5 135.125C154.5 133.399 153.101 132 151.375 132C149.649 132 148.25 133.399 148.25 135.125V138.25H145.75V135.125C145.75 133.399 144.351 132 142.625 132Z" fill="white"/>
<path d="M145.75 148.25H132V159.5C132 161.571 133.679 163.25 135.75 163.25H145.75V148.25Z" fill="white"/>
<path d="M148.25 148.25V163.25H159.5C161.571 163.25 163.25 161.571 163.25 159.5V148.25H148.25Z" fill="white"/>
<rect x="206" width="87" height="87" rx="10" fill="#202020"/>
<rect x="206.5" y="0.5" width="86" height="86" rx="9.5" stroke="white" stroke-opacity="0.04"/>
<rect x="206.5" y="0.5" width="86" height="86" rx="9.5" stroke="url(#paint4_linear_2_757)" stroke-opacity="0.12"/>
<path d="M250 36.5C247.929 36.5 246.25 38.1789 246.25 40.25C246.25 42.3211 247.929 44 250 44C252.071 44 253.75 42.3211 253.75 40.25C253.75 38.1789 252.071 36.5 250 36.5Z" fill="white"/>
<path fill-rule="evenodd" clip-rule="evenodd" d="M232.5 32.125C232.5 30.3991 233.899 29 235.625 29H264.375C266.101 29 267.5 30.3991 267.5 32.125V48.375C267.5 50.1009 266.101 51.5 264.375 51.5H235.625C233.899 51.5 232.5 50.1009 232.5 48.375V32.125ZM243.75 40.25C243.75 36.7982 246.548 34 250 34C253.452 34 256.25 36.7982 256.25 40.25C256.25 43.7018 253.452 46.5 250 46.5C246.548 46.5 243.75 43.7018 243.75 40.25ZM261.25 39C260.56 39 260 39.5596 260 40.25V40.2625C260 40.9529 260.56 41.5125 261.25 41.5125H261.263C261.953 41.5125 262.513 40.9529 262.513 40.2625V40.25C262.513 39.5596 261.953 39 261.263 39H261.25ZM237.5 40.25C237.5 39.5596 238.06 39 238.75 39H238.763C239.453 39 240.013 39.5596 240.013 40.25V40.2625C240.013 40.9529 239.453 41.5125 238.763 41.5125H238.75C238.06 41.5125 237.5 40.9529 237.5 40.2625V40.25Z" fill="white"/>
<path d="M233.75 54C233.06 54 232.5 54.5596 232.5 55.25C232.5 55.9404 233.06 56.5 233.75 56.5C242.75 56.5 251.467 57.7037 259.75 59.9582C261.734 60.4983 263.75 59.028 263.75 56.9252V55.25C263.75 54.5596 263.19 54 262.5 54H233.75Z" fill="white"/>
<rect x="206" y="103" width="87" height="87" rx="10" fill="#202020"/>
<rect x="206.5" y="103.5" width="86" height="86" rx="9.5" stroke="white" stroke-opacity="0.04"/>
<rect x="206.5" y="103.5" width="86" height="86" rx="9.5" stroke="url(#paint5_linear_2_757)" stroke-opacity="0.12"/>
<path fill-rule="evenodd" clip-rule="evenodd" d="M239.375 129.5H245C248.452 129.5 251.25 132.298 251.25 135.75V138.875C251.25 140.601 252.649 142 254.375 142H257.5C260.952 142 263.75 144.798 263.75 148.25V161.375C263.75 163.101 262.351 164.5 260.625 164.5H239.375C237.649 164.5 236.25 163.101 236.25 161.375V132.625C236.25 130.899 237.649 129.5 239.375 129.5ZM246.25 155.75C246.25 155.06 245.69 154.5 245 154.5C244.31 154.5 243.75 155.06 243.75 155.75V157C243.75 157.69 244.31 158.25 245 158.25C245.69 158.25 246.25 157.69 246.25 157V155.75ZM250 150.75C250.69 150.75 251.25 151.31 251.25 152V157C251.25 157.69 250.69 158.25 250 158.25C249.31 158.25 248.75 157.69 248.75 157V152C248.75 151.31 249.31 150.75 250 150.75ZM256.25 148.25C256.25 147.56 255.69 147 255 147C254.31 147 253.75 147.56 253.75 148.25V157C253.75 157.69 254.31 158.25 255 158.25C255.69 158.25 256.25 157.69 256.25 157V148.25Z" fill="white"/>
<path d="M253.75 135.75C253.75 133.562 252.947 131.561 251.619 130.027C257.284 131.506 261.744 135.966 263.223 141.631C261.689 140.303 259.688 139.5 257.5 139.5H254.375C254.03 139.5 253.75 139.22 253.75 138.875V135.75Z" fill="white"/>
<defs>
<linearGradient id="paint0_linear_2_757" x1="43.5" y1="0" x2="43.5" y2="64.4135" gradientUnits="userSpaceOnUse">
<stop stop-color="white"/>
<stop offset="1" stop-color="white" stop-opacity="0"/>
</linearGradient>
<linearGradient id="paint1_linear_2_757" x1="43.5" y1="103" x2="43.5" y2="167.413" gradientUnits="userSpaceOnUse">
<stop stop-color="white"/>
<stop offset="1" stop-color="white" stop-opacity="0"/>
</linearGradient>
<linearGradient id="paint2_linear_2_757" x1="146.5" y1="0" x2="146.5" y2="64.4135" gradientUnits="userSpaceOnUse">
<stop stop-color="white"/>
<stop offset="1" stop-color="white" stop-opacity="0"/>
</linearGradient>
<linearGradient id="paint3_linear_2_757" x1="146.5" y1="103" x2="146.5" y2="167.413" gradientUnits="userSpaceOnUse">
<stop stop-color="white"/>
<stop offset="1" stop-color="white" stop-opacity="0"/>
</linearGradient>
<linearGradient id="paint4_linear_2_757" x1="249.5" y1="0" x2="249.5" y2="64.4135" gradientUnits="userSpaceOnUse">
<stop stop-color="white"/>
<stop offset="1" stop-color="white" stop-opacity="0"/>
</linearGradient>
<linearGradient id="paint5_linear_2_757" x1="249.5" y1="103" x2="249.5" y2="167.413" gradientUnits="userSpaceOnUse">
<stop stop-color="white"/>
<stop offset="1" stop-color="white" stop-opacity="0"/>
</linearGradient>
</defs>
</svg>
